<svg id="Layer_1" data-name="Layer 1" xmlns="http://www.w3.org/2000/svg" viewBox="0 0 333.48 181.2"><title>Wella logo - Brandlogos.net</title><path d="M281.66,458c-.95-2.66-8.29-23.62-12.16-34.53.08.17-1.05-4.44-4-4.49-.91-.17-6.65-.12-6.65-.12s-3.24-.49-5.1,4.71c-3.92,10.88-11.34,31.71-12.3,34.37l-12.56-39.84H217.26l18.08,56.48h10.82s14-37.1,15.3-40.64l14.7,40.64h11.32l18.64-56.48H294.67l-13,39.9" transform="translate(-217.26 -293.4)" style="fill:#111"/><path d="M322.84,461.25V450.6H354.9v-9.88h-32v-9.57a3.1,3.1,0,0,1,3.1-3.09H363.5c4,0,4.59-9.87,4.59-9.87H324a11.16,11.16,0,0,0-12.51,11.34v33.35a12,12,0,0,0,12.2,11.71l.57,0h44.14s.39-9.64-4.79-9.88l-37.38,0a3.1,3.1,0,0,1-3.37-3.49" transform="translate(-217.26 -293.4)" style="fill:#111"/><path d="M526.74,423.63a9.26,9.26,0,0,0-8.13-5.59h-9.06a9.35,9.35,0,0,0-8.14,5.59l-24,50.92h13l5-10.83h37.27l5,10.84h13Zm-27.86,31.53s7.76-17.5,11.65-24.93a4.14,4.14,0,0,1,3.51-2.54,3.73,3.73,0,0,1,3.55,2.51c3.92,7.4,11.69,25,11.69,25Z" transform="translate(-217.26 -293.4)" style="fill:#111"/><path d="M386.36,461.58V418.1h-11v45a10.59,10.59,0,0,0,10.92,11.48h37.08s.53-9.78-4.71-9.78h-29a3.19,3.19,0,0,1-3.27-3.12s0-.06,0-.09" transform="translate(-217.26 -293.4)" style="fill:#111"/><path d="M439.61,461.58V418.09h-11v45a10.59,10.59,0,0,0,10.93,11.47h31.58s2-3.92,4.68-9.77H442.89a3.23,3.23,0,0,1-3.29-3.16v-.05" transform="translate(-217.26 -293.4)" style="fill:#111"/><path d="M488.29,363.91c-15.84-1.66-39,10-44.26,12.16a118.84,118.84,0,0,1-33.41,10.33c-31.54,3.5-47.76-17.45-58-26.19a48.67,48.67,0,0,0-12.37-8.61,17.22,17.22,0,0,0-7.8-1.63c-.84.07-3,.34-3.07,1.42s2.49.65,6,3.28a75.94,75.94,0,0,1,9.22,8c4.13,4.32,9,9.77,13.28,14,21,20.82,34,21.21,39.77,21.78,26.87,2.64,47.76-10.15,66.82-18.17,21.92-9.23,34.28-7,40.59,3.92,1,1.66,2.29.82,2-2.05a19.94,19.94,0,0,0-18.67-18.21" transform="translate(-217.26 -293.4)" style="fill:#111"/><path d="M308.8,393a22.62,22.62,0,0,0-14.17-6.79,82.28,82.28,0,0,0-17.84-.32,36.88,36.88,0,0,1-8.37.25c-3.14-.59-3.08-3.64-2.18-6.11.43-1.18,1.54-2.46,1.59-3.72a2.94,2.94,0,0,0-.55-1.73,4.11,4.11,0,0,0-.69-.8c-.49-.45-.6-.44-.39-1.12a4.84,4.84,0,0,1,1-1.89c.47-.53,1.26-.63,1.4-1.42s-.53-1.24-1.18-1.53-2.81-2-1.84-2.92a6,6,0,0,0,2-4.22,3.92,3.92,0,0,0-1.64-3.38,6.67,6.67,0,0,1-3.21-3.84c-.14-.78,2.51-2.2,3.16-2.65a60.42,60.42,0,0,0,12-10.59,35.11,35.11,0,0,0,2-10.18c1.72-8.34,11.07-13.43,11.95-14.09a16,16,0,0,0,2.82-3.44,23.78,23.78,0,0,1,20.08-7.87c11.46.27,21.19,7.53,30.16,13.94,9.88,7.06,19.77,14.15,30.11,20.57,29.06,18,46.86,7.32,68.32-2.16,26.13-11.55,33.64-8.51,40.66-.71,1.26,1.4,1.88-.24,1-3.26a19.89,19.89,0,0,0-20.85-13.38c-12.1.39-31.23,9.88-31.42,10-11,5-24.47,13.73-50.76,0a227.44,227.44,0,0,1-26.17-17.48,117.92,117.92,0,0,0-27.29-16,38.11,38.11,0,0,0-29.86.74,20.79,20.79,0,0,0-10.89,11,9.41,9.41,0,0,1-.9,2.38,3.3,3.3,0,0,1-.63.66,38.15,38.15,0,0,0-8.16,6,28.36,28.36,0,0,0-6.41,13.87c-.36,1.6-.67,3.22-.94,4.85a7.22,7.22,0,0,1-2.24,4.38A127.54,127.54,0,0,1,256,349.06a8.35,8.35,0,0,0-2.42,1.82c-1.43,2.3.6,5.23,2.15,6.76.88.86,2.35,1.66,2.48,3a3.72,3.72,0,0,1-1.35,2.88c-.37.39-1.12.74-1.2,1.32a5.56,5.56,0,0,0,0,2,5.49,5.49,0,0,0,2.69,3.26c-2,.86-5.28,4.32-2.7,6.33,1.53,1.18,1.41,2.12,1,3.83a23.2,23.2,0,0,0-.81,5.2,7.33,7.33,0,0,0,3.64,7.13,19.83,19.83,0,0,0,9.69,1c12.25-.54,26.08-3.76,36.49,4.79a37.51,37.51,0,0,1,7.51,10.59c.5.74,1.72.64,1.6-.5a28,28,0,0,0-6-15.43" transform="translate(-217.26 -293.4)" style="fill:#111"/><path d="M375.23,366.43c15.05,7.75,30.41,14.74,71.41-4.37h0l.21-.11c26.59-12.39,40.56-14.62,49.53-1.3.67,1,2.05.62,1.37-2.81a19.39,19.39,0,0,0-19-16.48c-12-1.09-30.27,7.41-30.27,7.41-32,14.58-39.24,14.23-51.33,12.3-20-3.19-43.52-23.71-51.23-30s-17-12.8-27.53-11.52a18,18,0,0,0-7,2.25c-.78.47-4,2.33-3.5,3.48.36.84,1.62.58,2.28.44,1.35-.23,2.71-.47,4.08-.62,5.91-.64,14.39,1.12,24.52,10.07,12.56,11.06,24,24.87,36.4,31.27" transform="translate(-217.26 -293.4)" style="fill:#111"/></svg>