<svg xmlns="http://www.w3.org/2000/svg" viewBox="0 0 284.5 51.48"><title>LOreal logo</title><polygon points="154.78 48.01 191.49 48.01 191.49 43.53 161.08 43.53 161.08 29.18 183.92 29.18 183.92 24.64 161.08 24.64 161.08 11.42 191.49 11.42 191.49 6.95 154.78 6.95 154.78 48.01"/><polygon points="173.86 0.32 168.89 5.9 184.49 0.32 173.86 0.32"/><polygon points="247.39 6.95 247.39 48.01 284.5 48.01 284.5 43.53 253.13 43.53 253.13 6.95 247.39 6.95"/><path d="M579.19,518.5l9.87-19.57L599,518.54ZM585,493.21l-20.85,41.06h7.09l5.34-10.63h25L607,534.27h7L593.1,493.21Z" transform="translate(-369.75 -486.26)"/><path d="M499.69,512.2H480.51V498.07h19.84c4.57,0,7.14,2.13,8.1,4.86a7.65,7.65,0,0,1-.81,6c-1.62,2.74-4.81,3.33-7.93,3.33m4.91,4.91c9.41-2.51,10.32-9.51,10.27-12-.56-7.33-5.5-11.88-14.39-11.88H474.6v41h5.9V517h16.85l12.37,17.23h7.44s-8.91-11.59-12.59-17.17" transform="translate(-369.75 -486.26)"/><path d="M439.16,486.26c-16.65,0-28,11.74-28,26,0,15,12.54,25.53,28,25.53s28-10.41,28-25.53C467.15,498,455.66,486.26,439.16,486.26Zm-.2,46.38c-11.52,0-21-9.26-21-20.41a21.26,21.26,0,0,1,42.5-.22q0,.11,0,.22C460.42,523.38,450.48,532.64,439,532.64Z" transform="translate(-369.75 -486.26)"/><polygon points="26.55 21.48 30.8 21.48 38.53 6.95 32.32 6.95 26.55 21.48"/><polygon points="0 6.95 0 48.01 37.11 48.01 37.11 43.53 5.74 43.53 5.74 6.95 0 6.95"/></svg>