<?xml version="1.0" encoding="UTF-8"?><svg id="Layer_1" xmlns="http://www.w3.org/2000/svg" viewBox="0 0 698.01 124.98"><defs><style>.cls-1{fill-rule:evenodd;}</style></defs><g id="Desktop"><g id="Pantene_Black"><path id="Fill-1" class="cls-1" d="M43.03,69.97h-16.24V10.02h16.82c17.03.15,24.72,14.17,24.72,30.43,0,18.93-8.86,29.49-25.3,29.51M48.66,0H0v.86c1.11,1.16,3.42,3.41,3.42,12.48v98.26c0,9.08-2.3,11.35-3.42,12.49v.88h30.21v-.88c-1.13-1.14-3.42-3.42-3.42-12.49v-31.65h20.42c30.78.49,46.1-22.17,46.1-39.5C93.3,14.54,71.94-.21,48.07,0"/><path id="Fill-3" class="cls-1" d="M287.36,0v90.46L228.87,0h-26.9v.86c3.8,2.54,5.97,7.94,5.97,16.03v94.71c0,9.08-2.27,11.35-3.4,12.49v.88h15.27V28.29l60.91,96.69h18.51V13.35c0-9.07,2.27-11.34,3.4-12.48V0h-15.27"/><path id="Fill-4" class="cls-1" d="M591.1,0v90.46L532.61,0h-26.89v.86c3.79,2.54,5.95,7.94,5.95,16.03v94.71c0,9.08-2.26,11.35-3.41,12.49v.88h15.29V28.29l60.9,96.69h18.51V13.35c0-9.07,2.28-11.34,3.39-12.48V0h-15.27"/><path id="Fill-5" class="cls-1" d="M494.59,109.26c-13.81,7.88-48.29,4.02-48.29,4.02v-47.27h18.42c7.84,0,13.88.62,16.34,2.35h.79v-14.32h-.79c-2.46,1.76-8.5,2.36-16.34,2.36h-18.42V10.72s31.82-2.69,47.67,4.68l.67-.43c-.29-3.1-1.41-14.97-1.41-14.97h-73.76v.86c1.15,1.16,3.44,3.41,3.44,12.48v98.26c0,9.06-2.28,11.35-3.44,12.49v.88h74.34l1.48-15.27-.71-.45"/><path id="Fill-6" class="cls-1" d="M697.31,109.26c-13.82,7.88-48.3,4.02-48.3,4.02v-47.27h18.42c7.83,0,13.88.62,16.33,2.35h.8v-14.32h-.8c-2.45,1.76-8.51,2.36-16.33,2.36h-18.42V10.72s31.83-2.69,47.66,4.68l.69-.43c-.3-3.1-1.41-14.97-1.41-14.97h-73.75v.86c1.15,1.16,3.43,3.41,3.43,12.48v98.26c0,9.06-2.28,11.35-3.43,12.49v.88h74.33l1.48-15.27-.7-.45"/><path id="Fill-7" class="cls-1" d="M403.19,17.08l.67-.45L402.28,0h-86.36l-1.59,16.62.69.45c12.64-6.53,32.38-6.49,32.38-6.49v101.01c0,9.08-2.3,11.35-3.41,12.49v.88h30.17v-.88c-1.1-1.14-3.38-3.41-3.38-12.49V10.59s19.71-.04,32.4,6.49"/><path id="Fill-8" class="cls-1" d="M118.54,69.97l16.55-49.13,16.55,49.13h-33.11ZM197.73,124.1c-2.91-1.86-5.99-5.75-8.91-14.33L151.87,0h-28.18v.86c2.05,1.34,3.77,4.88,2.21,9.51-1.38,4.15-33.36,99.16-33.36,99.16-3.04,8.75-6.11,12.61-8.96,14.57v.88h16.46l15.15-45.02h39.82l15.15,45.02h27.57v-.88h0Z"/></g></g></svg>