<svg width="305" height="88" viewBox="0 0 305 88" fill="none" xmlns="http://www.w3.org/2000/svg" xmlns:xlink="http://www.w3.org/1999/xlink">
 <path fill-rule="evenodd" clip-rule="evenodd" d="M61.8319 72.7561C61.8319 72.7561 61.8319 72.6338 61.8319 72.4211V72.7561ZM61.8319 72.7561C61.8319 72.7561 61.8319 72.5956 61.8319 72.4211V72.7561ZM62.4527 65.537H60.6893C60.3535 65.537 60.2647 65.637 60.2431 65.9045L59.7829 65.909L59.7752 64.9887H66.201L66.1985 65.9007L65.7344 65.9045C65.7103 65.637 65.6227 65.537 65.2882 65.537H63.5051L63.5172 71.3817C63.5172 72.2045 63.6613 72.4211 64.1437 72.4211C64.1437 72.7045 64.1437 72.7561 64.1437 72.7561H61.8319C61.8319 72.7561 61.8319 72.6497 61.8319 72.4211C62.4813 72.4211 62.4578 72.1982 62.4578 71.3817L62.4527 65.537ZM84.5769 71.3817C84.5769 71.8052 84.6004 72.0969 84.6778 72.2205C84.7445 72.3306 84.7648 72.3759 85.032 72.3873L85.0917 72.4211V72.7548H83.0116V72.4211L83.07 72.3873C83.3366 72.3759 83.3518 72.3306 83.4178 72.2205C83.4972 72.0969 83.5194 71.8052 83.5194 71.3817V68.8889H79.0633V71.3817C79.0633 71.8052 79.0862 72.0969 79.163 72.2205C79.2302 72.3306 79.2353 72.3759 79.5026 72.3873L79.5603 72.4211V72.7548H77.4821V72.4211L77.5411 72.3873C77.8084 72.3759 77.8376 72.3306 77.9055 72.2205C77.9829 72.0969 78.0051 71.8052 78.0051 71.3817V66.3631C78.0051 65.9395 77.9829 65.6478 77.9055 65.5262C77.8376 65.4128 77.8084 65.3682 77.5411 65.3568L77.4821 65.3243V64.9899L79.5603 64.9887V65.3243L79.5026 65.3568C79.2353 65.3682 79.2302 65.4128 79.163 65.5262C79.0862 65.6478 79.0633 65.9395 79.0633 66.3631V68.3533H83.5194V66.3631C83.5194 65.9395 83.4972 65.6478 83.4178 65.5262C83.3518 65.4128 83.3366 65.3682 83.07 65.3568L83.0116 65.3243V64.9899L85.0917 64.9887V65.3243L85.032 65.3568C84.7648 65.3682 84.7445 65.4128 84.6778 65.5262C84.6004 65.6478 84.5769 65.9395 84.5769 66.3631V71.3817ZM113.642 69.7697L112.239 66.4395L110.824 69.7697H113.642ZM115.392 71.3002C115.49 71.5256 115.613 71.8262 115.748 72.0619C115.87 72.2746 115.993 72.4185 116.193 72.4408L116.296 72.4752V72.8089H114.083V72.4752L114.215 72.4408C114.449 72.43 114.59 72.3517 114.59 72.2173C114.59 72.0619 114.467 71.7695 114.354 71.5014L113.843 70.2168H110.634L110.324 70.9658C110.223 71.2008 109.933 71.9485 109.933 72.1275C109.933 72.3638 110.001 72.4077 110.348 72.4408L110.445 72.4752V72.8089H108.661V72.4752L108.73 72.4408C108.997 72.4185 109.209 72.1835 109.332 71.8912L111.315 67.3668C111.66 66.5847 112.038 65.7574 112.339 64.953H112.695L115.392 71.3002ZM129.703 71.4224L131.74 66.1376C131.975 65.5351 131.846 65.4326 131.557 65.4103L131.408 65.3772V65.0434L133.02 65.0422V65.3772L132.942 65.4103C132.711 65.4326 132.565 65.679 132.343 66.2166L130.404 70.9212C130.136 71.5581 129.892 72.1963 129.691 72.8771H129.134C128.956 72.2173 128.711 71.5791 128.488 71.032L126.393 65.8682C126.249 65.5122 126.093 65.4205 125.904 65.4103L125.818 65.3772V65.0434L127.911 65.0422V65.3772L127.723 65.4103C127.511 65.4205 127.407 65.4886 127.508 65.7574L129.703 71.4224ZM144.635 66.4165C144.635 65.993 144.613 65.7007 144.535 65.5797C144.468 65.4676 144.448 65.4205 144.181 65.4103L144.121 65.3772V64.9918H149.481L149.302 65.9344L148.913 65.9433V65.858C148.913 65.7134 148.907 65.5574 148.813 65.5574C148.253 65.5574 146.005 65.5536 145.694 65.5536V68.5851L148.167 68.5788L148.311 68.1017H148.645C148.634 68.5603 148.611 68.5068 148.611 68.9208C148.611 69.3347 148.634 69.2806 148.645 69.6844H148.311L148.167 69.1163C148.167 69.1163 146.071 69.1208 145.694 69.1208V72.251C146.001 72.251 148.68 72.251 148.879 72.251C149.069 72.251 149.192 72.309 149.269 71.639H149.658C149.547 72.1752 149.481 72.7765 149.481 72.7765L144.112 72.7803V72.4752C144.112 72.4752 144.468 72.3854 144.535 72.2746C144.613 72.1504 144.635 71.8587 144.635 71.4345V66.4165ZM198.697 66.4165C198.697 65.993 198.674 65.7007 198.596 65.5797C198.529 65.4676 198.509 65.4205 198.24 65.4103L198.183 65.3772V64.9918H203.543L203.364 65.9344L202.974 65.9433V65.858C202.974 65.7134 202.968 65.5574 202.873 65.5574C202.316 65.5574 200.066 65.5536 199.754 65.5536V68.5851L202.228 68.5788C202.228 68.5788 202.305 68.3508 202.316 68.2055L202.371 68.1017H202.707C202.696 68.5603 202.672 68.5068 202.672 68.9208C202.672 69.3347 202.696 69.2806 202.707 69.6844H202.371L202.316 69.501C202.305 69.3564 202.228 69.1163 202.228 69.1163C202.228 69.1163 200.132 69.1208 199.754 69.1208V72.251C200.061 72.251 202.74 72.251 202.941 72.251C203.13 72.251 203.251 72.309 203.33 71.639H203.718C203.609 72.1752 203.543 72.7765 203.543 72.7765L198.172 72.7803V72.4752C198.172 72.4752 198.529 72.3854 198.596 72.2746C198.674 72.1504 198.697 71.8587 198.697 71.4345V66.4165ZM161.172 66.3669C161.172 65.9414 161.151 65.651 161.073 65.5287C161.005 65.4166 160.872 65.3829 160.604 65.3606L160.589 65.3281V64.9925C161.08 65.0027 161.853 65.0027 162.053 64.9918L167.378 71.5868H167.411V66.3669C167.411 65.9414 167.388 65.651 167.311 65.5287C167.243 65.4166 167.109 65.3829 166.842 65.3606L166.828 65.3281V64.9925C167.272 65.0027 168.015 65.0027 168.505 64.9918V65.3281L168.49 65.3606C168.225 65.3829 168.09 65.4166 168.024 65.5287C167.947 65.651 167.922 65.9414 167.922 66.3669V72.7593L166.953 72.772L161.706 66.2325H161.685V71.3849C161.685 71.809 161.706 72.1014 161.786 72.2236C161.853 72.3345 161.986 72.3688 162.254 72.3911L162.268 72.4236V72.7593C161.777 72.7491 161.034 72.7491 160.589 72.7593V72.4236L160.604 72.3911C160.872 72.3688 161.005 72.3345 161.073 72.2236C161.151 72.1014 161.172 71.809 161.172 71.3849V66.3669ZM227.364 66.3669C227.364 65.9414 227.342 65.651 227.264 65.5287C227.196 65.4166 227.064 65.3829 226.795 65.3606L226.781 65.3281V64.9925C227.272 65.0027 228.045 65.0027 228.244 64.9918L233.569 71.5868H233.603V66.3669C233.603 65.9414 233.581 65.651 233.503 65.5287C233.435 65.4166 233.301 65.3829 233.033 65.3606L233.021 65.3281V64.9925C233.465 65.0027 234.207 65.0027 234.697 64.9918V65.3281L234.684 65.3606C234.417 65.3829 234.282 65.4166 234.216 65.5287C234.138 65.651 234.114 65.9414 234.114 66.3669V72.7593L233.146 72.772L227.899 66.2325H227.876V71.3849C227.876 71.809 227.899 72.1014 227.977 72.2236C228.045 72.3345 228.178 72.3688 228.445 72.3911L228.46 72.4236V72.7593C227.97 72.7491 227.226 72.7491 226.781 72.7593V72.4236L226.795 72.3911C227.064 72.3688 227.196 72.3345 227.264 72.2236C227.342 72.1014 227.364 71.809 227.364 71.3849V66.3669ZM180.25 66.3809C180.25 65.9574 180.229 65.6644 180.149 65.5434C180.083 65.4313 180.08 65.3842 179.813 65.3752L179.756 65.3409V65.0065H181.809V65.3409L181.751 65.3752C181.483 65.3842 181.474 65.4313 181.409 65.5434C181.331 65.6644 181.309 65.9574 181.309 66.3809V70.2245C181.309 71.8116 182.132 72.2708 183.601 72.2708C184.806 72.2708 185.895 71.8116 185.895 69.9576V66.3809C185.895 65.9574 185.874 65.6644 185.798 65.5434C185.73 65.4313 185.72 65.3969 185.452 65.3752L185.437 65.3409V65.0065C186.736 65.0173 186.182 65.0211 186.902 65.0065V65.3409L186.888 65.3752C186.62 65.3969 186.577 65.4313 186.51 65.5434C186.431 65.6644 186.41 65.9574 186.41 66.3809V69.6112C186.41 72.002 185.507 72.9637 183.256 72.9637C181.363 72.9637 180.25 72.3937 180.25 70.3487V66.3809ZM269.584 72.3962C268.939 72.7879 267.836 73 267.156 73C264.482 73 262.679 71.4689 262.679 68.9322C262.679 67.647 263.18 66.6293 264.038 65.9255C264.872 65.2326 266.009 64.8517 267.254 64.8517C268.293 64.8517 269.294 65.1218 269.829 65.3096L269.604 66.2783H269.099C269.099 66.2783 269.241 65.6204 268.433 65.3931C268.07 65.2899 267.478 65.2753 267.067 65.2753C264.973 65.2753 263.87 66.8535 263.87 68.7526C263.87 70.9658 265.33 72.3962 267.534 72.3962C268.337 72.3962 269.284 72.1052 269.796 71.7256L269.896 71.8377L269.584 72.3962ZM46.3639 67.5438C47.7362 67.5438 48.8801 68.452 48.8236 69.8162C48.7538 71.5192 46.7619 72.8841 44.7249 72.8841C44.5649 72.6765 44.3358 72.4707 44.0609 72.2644L44.1295 72.0803C44.4043 72.16 44.6106 72.2185 45.0791 72.2185C46.6705 72.2185 47.8016 71.3715 47.8816 70.0302C47.9629 68.6456 46.772 68.21 46.0167 68.21C45.5355 68.21 45.1204 68.4164 44.7313 68.5323L44.6214 68.4629L44.617 64.9727L48.8211 64.9918V65.8682H45.1204L45.1299 67.796C45.1299 67.796 45.7564 67.5438 46.3639 67.5438ZM250.962 64.9403H252.574C252.574 64.9403 252.574 65.0797 252.574 65.2753C252.219 65.2753 251.795 65.5765 251.504 66.1147L250.142 68.5985H250.148L250.072 68.7278L249.768 69.2825C249.721 69.4194 249.661 69.6634 249.661 69.9952V70.5053C249.661 70.9295 249.685 72.1033 249.762 72.2255C249.829 72.3376 249.964 72.3829 250.23 72.3937L250.289 72.4274V72.7618H247.976V72.4274L248.036 72.3937C248.304 72.3829 248.436 72.3376 248.504 72.2255C248.581 72.1033 248.603 70.9295 248.603 70.5053V69.85C248.603 69.6723 248.569 69.5156 248.504 69.4035L247.12 66.9891C246.542 65.9841 245.941 65.3593 245.662 65.3249L245.452 65.2899V64.9944H246.656C246.656 64.9944 246.882 65.0409 247.235 65.3944C247.447 65.6083 247.577 65.8529 247.724 66.1204L249.315 68.9654L249.516 68.6272L250.948 66.0357C251.391 65.2288 250.962 65.2753 250.962 65.2753V64.9403ZM106.005 52.2001C108.41 52.2001 109.924 52.2173 110.489 49.4742H112.488L111.7 54.9654L71.0265 54.982C69.7538 53.5082 67.6197 50.6308 64.6242 46.3497C62.9599 43.9716 61.4929 41.9883 60.2196 40.3967C58.1648 37.7658 56.2066 35.38 54.3467 33.2382L54.6406 32.3536C55.66 32.4128 56.4351 32.4421 56.9645 32.4421C60.5338 32.4421 63.2404 31.5938 65.0851 29.8971C66.9272 28.2005 67.8508 25.9618 67.8508 23.1786C67.8508 20.7534 67.0535 18.6924 65.4621 17.2614C63.8714 15.8316 61.4637 15.1151 58.2423 15.1151C56.218 15.1151 53.2187 15.1081 51.1386 15.1081C51.1386 16.18 51.1253 46.8885 51.1253 49.4284C51.1253 52.1039 51.1265 53.4331 52.7052 53.4331V54.982C49.9548 54.982 48.4605 54.982 44.0121 54.982V53.4363C45.6079 53.4363 45.6091 52.1574 45.6091 49.0781C45.6091 48.6647 45.6104 21.5508 45.6104 18.9918C45.6104 15.8972 45.6434 14.5941 44 14.5941V13.0516C44.8049 13.0516 59.8095 13 60.3008 13C64.0504 13 66.7837 13.3356 68.502 14.005C70.2191 14.6756 71.5496 15.7622 72.4915 17.2697C73.4342 18.7765 73.9058 20.4159 73.9058 22.1889C73.9058 23.8429 73.4627 25.4886 72.5779 27.1229C71.6936 28.7571 70.4108 30.1168 68.7299 31.2002C67.0503 32.2835 64.8635 33.1204 62.1709 33.7114C62.6609 34.3999 63.8155 35.9335 65.6354 38.3122L73.0368 48.4399C75.5841 52.2759 77.0657 53.4331 79.2264 53.4331C83.0655 53.4331 83.209 52.5497 83.209 49.2271C83.209 46.6898 83.0369 23.0182 83.0369 18.9899C83.0369 14.961 83.0655 14.5948 81.483 14.5948V13.0516H111.7L110.895 17.655H109.272C109.272 15.8016 107.479 15.8513 104.995 15.8513C103.334 15.8513 89.5217 15.8564 88.6756 15.8564C88.6756 18.0498 88.7162 20.0987 88.6756 22.0125V32.0447C89.191 32.0447 95.486 32.0447 97.4278 32.0447C102.753 32.0447 103.16 32.0447 103.16 30.4601C103.888 30.4601 104.702 30.4601 104.702 30.4601V36.3888C104.702 36.3888 104.401 36.3888 103.15 36.3888C103.15 34.796 102.756 34.7884 97.6296 34.7884C96.3201 34.7884 89.1459 34.7884 88.6756 34.7884C88.6756 38.7096 88.6756 52.1727 88.6756 52.2001C91.5854 52.2001 97.2031 52.2001 100.701 52.2001C103.182 52.2001 104.873 52.2001 106.005 52.2001ZM147.436 40.4643C148.114 38.0747 148.452 35.6023 148.452 33.0439C148.452 29.3863 147.8 26.2446 146.496 23.6187C145.19 20.9929 143.225 18.9822 140.597 17.5862C137.968 16.1895 133.926 15.8207 122.13 15.8207C122.077 16.7856 122.13 34.8126 122.13 34.8126L122.18 51.9753C122.18 51.9753 126.847 51.9753 129.24 51.9753C136.817 51.9753 139.297 50.6193 140.641 49.8302C141.985 49.0431 143.283 47.8833 144.539 46.3497C145.795 44.8148 146.759 42.8532 147.436 40.4643ZM144.263 14.8444C147.182 16.0742 149.658 18.1333 151.695 21.026C153.73 23.9174 154.75 27.4464 154.75 31.6161C154.75 34.6069 154.269 37.4091 153.31 40.0242C152.35 42.6411 151.047 44.9269 149.404 46.8834C147.758 48.8418 145.996 50.3888 144.116 51.5294C142.236 52.6707 140.264 53.5312 138.196 54.1107C136.131 54.6928 133.297 54.982 129.694 54.982C128.499 54.982 115.038 54.982 115.038 54.982V53.5496C116.631 53.5496 116.664 53.0452 116.664 49.2309V19.0001C116.664 15.3119 116.603 14.4782 115.038 14.4782V13.0605C118.075 13.0605 131.085 13 132.69 13C137.489 13 141.346 13.6159 144.263 14.8444ZM223.015 52.2064C225.42 52.2064 226.934 52.223 227.498 49.4787H229.498L228.71 54.9807C228.71 54.9807 223.356 54.9871 222.572 54.9871C221.755 54.9871 219.481 54.9871 202.655 54.9711C202.401 54.9711 201.132 54.9845 196.244 54.9845C196.244 54.9845 197.354 54.9871 196.244 54.9871C195.673 54.9871 193.985 54.9871 192.239 54.9871C192.239 54.9864 192.239 54.9864 192.239 54.9845L187.84 54.9871C187.84 54.9871 185.748 52.9478 182.919 50.2283L179.887 47.3037L166.512 34.7113L165.694 33.8916L185.387 13.0662H190.119V14.5998C188.252 14.5998 189.527 14.61 188.861 14.61C186.697 14.61 171.494 31.7912 171.494 31.7912L189.166 48.3584C192.013 51.0314 193.633 52.4848 194.025 52.721C194.227 52.8414 194.534 53.0892 194.931 53.2592C195.347 53.3796 195.775 53.4388 196.235 53.4388C200.075 53.4388 200.098 52.5561 200.098 49.2328C200.098 46.6955 200.046 23.0232 200.046 18.9937C200.046 14.9667 200.075 14.6005 198.492 14.6005V13.0573H228.71L227.904 17.6607H226.281C226.281 15.8074 224.489 15.8571 222.005 15.8571C220.344 15.8571 206.532 15.8615 205.685 15.8615C205.685 18.0549 205.725 20.1044 205.685 22.0176V32.0491C206.201 32.0491 212.495 32.0491 214.437 32.0491C219.763 32.0491 220.17 32.0491 220.17 30.4652C220.897 30.4652 221.928 30.4652 221.928 30.4652V36.3946C221.928 36.3946 221.411 36.3946 220.159 36.3946C220.159 34.8011 219.767 34.7941 214.64 34.7941C213.33 34.7941 206.156 34.7941 205.685 34.7941C205.685 38.7154 205.685 52.1791 205.685 52.2064C208.595 52.2064 214.213 52.2064 217.711 52.2064C220.192 52.2064 221.883 52.2064 223.015 52.2064ZM264.876 13.0605H270.673V14.5782C269.257 14.5782 269.24 14.7489 269.24 18.6339C269.24 21.2311 269.24 54.9807 269.24 54.9807H266.239L236.022 19.2306C236.022 19.2306 235.996 46.7044 235.996 49.3513C235.996 52.8796 236.072 53.4388 237.507 53.4388V54.982H231.488V53.435C233.146 53.435 233.09 52.7994 233.09 49.3105C233.09 36.978 233.06 36.2799 233.14 17.8779C233.14 15.0641 233.155 14.5782 231.488 14.5782C231.488 14.0063 231.488 13.0605 231.488 13.0605H238.559C238.559 13.0605 241.413 16.8493 242.187 17.89L248.197 25.3975L256.962 36.1137C259.768 39.5299 262.022 42.2182 263.726 44.1805C264.808 45.4765 265.558 46.4974 266.294 47.2432C266.294 47.2432 266.332 21.21 266.332 18.6198C266.332 14.8686 266.312 14.589 264.876 14.589V13.0605ZM164.803 49.0329C164.803 52.721 164.864 53.5471 166.428 53.5471V54.9724C165.697 54.9724 163.085 54.9756 161.379 54.9813V54.982C159.18 54.982 157.526 54.982 157.526 54.982V53.5496C159.119 53.5496 159.151 53.0452 159.151 49.2309V19.0001C159.151 15.3119 159.09 14.4782 157.526 14.4782V13.0605C158.254 13.0605 159.56 13.0573 161.143 13.0516V13.051C163.343 13.051 166.428 13.051 166.428 13.051V14.4827C164.836 14.4827 164.803 14.9877 164.803 18.802V49.0329Z" fill="black">
 </path>
</svg>