<svg xmlns="http://www.w3.org/2000/svg" viewBox="0 0 408.32 244.77"><defs><style>.a{fill:#003471;}</style></defs><title>Estee Lauder Companies logo - Brandlogos.net</title><path class="a" d="M440.38,504a23,23,0,0,0,5.46-.44c-.44,5.46-.44,11.14-.87,24.24v16.59c0,10.26.87,16.59,1.75,19.22,3.49,8.08,10.7,15.72,23.36,15.28,11.14-.44,18.78-3.93,23.36-13.1,3.06-6.33,3.49-10.7,3.93-26.86V528.7c-.44-9-.87-14.85-1.31-25.11A24.06,24.06,0,0,0,500,504a12.09,12.09,0,0,0,3.93-.44c-.44,3.49-.87,22.93-.87,22.93v12.23c0,16.16-.87,19.65-2.62,25.11a21.47,21.47,0,0,1-6.77,10.7c-5.46,6.33-14.41,9.39-25.11,9.39-9.83,0-19.22-2.62-24.67-7.64-5.9-5.9-8.08-11.14-8.08-23.36V525.65c0-8.08-.87-17.47-1.31-22.05A18,18,0,0,0,440.38,504Z" transform="translate(-307.84 -389.61)"/><path class="a" d="M394.53,501s3.06,8.08,5.9,14.41c4.59,9,11.57,25.55,14.41,32.32,2.62,6.33,9.83,21.62,9.83,21.62L431,582.86c-2.18,0-3.93-.44-6.33-.44a30.91,30.91,0,0,0-6.33.44l-4.59-11.57a45.59,45.59,0,0,0-3.71-9,64.19,64.19,0,0,0-5-11.14H375.09c-.44,1.31-2.62,6.77-4.15,10.7a149.37,149.37,0,0,0-7.64,21.62,12.77,12.77,0,0,0-4.15-.87,14.14,14.14,0,0,0-4.15.44,99.64,99.64,0,0,1,5-11.14c3.49-8.08,8.52-18.78,12.66-27.73,3.06-7.21,18.78-41.92,18.78-42.8h3.06Zm-6.77,21.4c-1.75,3.71-10.7,23.8-10.7,23.8h26.42s-4.59-10.48-7.21-17c-3.93-9-5.9-12.66-5.9-12A23.53,23.53,0,0,1,387.76,522.37Z" transform="translate(-307.84 -389.61)"/><path class="a" d="M526.41,504.47h5.9l9-.44,7.64-.44h2.18c15.28,0,22.05,1.75,29.7,9a37.08,37.08,0,0,1,11.57,27.95,42.47,42.47,0,0,1-15.72,33.19c-8.08,6.77-17,9-37.34,8.52H523.57a61.69,61.69,0,0,0-6.33.44c.44-1.75.87-18.78.87-22.93V540.06c0-4.59,0-16.59-.44-23.36,0-3.93-.44-12.66-.44-12.66a43.74,43.74,0,0,0,9.17.44Zm15.28,73.8a82.82,82.82,0,0,0,12.66-.44A26.13,26.13,0,0,0,571,569.32c6.77-6.33,9.83-16.16,9.83-27.51-.44-11.57-3.06-22.49-11.14-28.39-6.33-4.37-9.83-5.46-22.49-5.9a129.54,129.54,0,0,0-18.34,1.31l-.87.44c0,2.18-.44,13.54-.44,22.05v34.06c.44,5.46.44,8.52.87,12.23A68.12,68.12,0,0,0,541.7,578.27Z" transform="translate(-307.84 -389.61)"/><path class="a" d="M604.58,503.59c10.7.44,15.28.44,20.31.44h19.65c0,.87-.44,2.18-.44,3.06s0,3.06.44,3.06c-2.62-.44-5.46-.44-9.39-.87-10.7-.44-13.54-.44-17-.44h-4.37v14a26.69,26.69,0,0,0-.44,7.21c0,3.93.44,8.08.44,8.08H633c3.06-.22,5.9-.44,9-.44-.44,0-.44,1.31-.44,3.06,0,1.31.44,3.06,0,3.06-4.15-.44-13.1-.87-20.09-.87h-7.86v16.59c0,4.37.44,7.64.44,8.08a67.59,67.59,0,0,0,.44,9.39h0a9.62,9.62,0,0,0,3.49.44c9.17-.22,18.34-1.09,27.29-2.18a17.13,17.13,0,0,0-.44,3.06v3.49H613.53a58.52,58.52,0,0,0-10.7.44c.44,0,1.31-9.39,1.31-15.72v-9.83l.44-14.41s-.87-34.5-1.31-39.09h1.31Z" transform="translate(-307.84 -389.61)"/><path class="a" d="M324,577.62h5.9a45.13,45.13,0,0,0,9.39-.44,119.84,119.84,0,0,0,12-.87v6.33h-2.62c-3.06,0-6.33-.22-9.39-.44H317.67c-6.33,0-9.39.44-9.83.44.44-3.93,1.31-24.24,1.31-39.09s-1.31-40-1.31-40c1.75,0,4.15.44,5.9.44s5.9-.44,5.9-.44a303.73,303.73,0,0,0-1.31,34.5s0,28.82.44,37.34l.44,1.75C319,577.62,321.16,577.62,324,577.62Z" transform="translate(-307.84 -389.61)"/><path class="a" d="M668.78,544.43v14l.44,11.14.44,12.23v.87a53.54,53.54,0,0,0-5.9-.44,23,23,0,0,0-5.46.44l.44-12.23c.44-9,.44-17,.44-31,0-9,0-13.54-.44-23.8,0-3.93-.44-11.57-.44-11.57a55.65,55.65,0,0,0,8.52.44c2.18,0,5.9-.44,9-.44,5.46-.44,9-.44,9.83-.44,18.78,0,24.24,9,24.24,17.9,0,10.7-9.39,18.78-25.11,22.05V544l8.52,10.26,7.64,9.39,8.52,10.7c3.49,4.59,4.59,6.33,6.77,8.52H703.5L690,564.3c-3.49-5-15.72-19.65-16.16-19.65Zm6.33-3.93c9,0,12.23-1.31,16.16-3.71a15.72,15.72,0,0,0,8.08-14.41c-.44-8.52-5.46-14.85-18.78-14.85a54.21,54.21,0,0,0-11.79,1.31v31a20.16,20.16,0,0,0,6.33.66Z" transform="translate(-307.84 -389.61)"/><path class="a" d="M384.7,405.33c-10,.44-15.72,5.9-15.72,14.41a14.76,14.76,0,0,0,9,13.54c2.62.87,6.77,3.06,10.7,4.59C401.73,442,407,448.13,407,457.52c0,14.85-12.66,25.55-28.39,25.55a29.13,29.13,0,0,1-19.65-6.77s1.31-6.33,1.75-9c0,0,8.08,12.66,19.65,12a17.2,17.2,0,0,0,17.9-16.81v-.66c0-8.08-5-13.1-16.59-17s-16.59-8.52-18.78-12.23a19.48,19.48,0,0,1-2.62-9.83c0-12.66,10.26-21.62,25.11-21.62,12,0,17.9,5.9,17.9,5.9a43.33,43.33,0,0,0-3.06,9C400.42,416,395.84,405.33,384.7,405.33Z" transform="translate(-307.84 -389.61)"/><path class="a" d="M446.06,408.83l-.44,13.1-.44,15.72q-.33,7.86,0,15.72c-.22,9.61.22,19.22.87,28.82,0,0-3.49-.44-5.9-.44a46,46,0,0,0-5.46.44c.44-6.33.87-13.1.87-28.39V421.93s-.44-9.83-.44-13.1h0l-12.45.44a82.32,82.32,0,0,0-12.66.87,21.51,21.51,0,0,1,.44-3.71,12.89,12.89,0,0,0-.44-3.06c1.09.44,28.82.44,28.82.44h3.71c9.83,0,27.73-.44,27.73-.44v3.28a21.51,21.51,0,0,0,.44,3.71c-5.46-.87-8.52-.87-14-1.31h-10.7Z" transform="translate(-307.84 -389.61)"/><path class="a" d="M309.59,403.59c10.7.44,14.85.44,20.09.44,3.06,0,16.16,0,18.34-.44h1.31c0,.87-.44,2.18-.44,3.06v3.06a61.48,61.48,0,0,1-9-.44c-10.48-.44-13.76-.44-16.81-.44h-4.59v1.31l-.44,12.66v14.85a.47.47,0,0,0,.44.44h10.7c1.31,0,3.49,0,8.52-.44h8.52v5.9c-4.59,0-13.1-.44-20.74-.87a39.93,39.93,0,0,0-7.21.44h-.22v7.64l.44,9v8.08c0,1.75.44,5.9.44,9l.44.44h3.71c9.39,0,22.93-1.31,27.29-1.75a17.13,17.13,0,0,0-.44,3.06V482h-9.83l-7.64-.44L318.1,482H307.84s.87-9,.87-15.28l.44-9.83V442.45s-.44-34.5-.87-39.09h1.31Z" transform="translate(-307.84 -389.61)"/><polygon class="a" points="172.94 5.02 214.64 5.02 214.64 0 172.94 0 172.94 5.02"/><path class="a" d="M482.52,403.59c10.7.44,15.28.44,20.31.44,3.06,0,16.59,0,18.34-.44h1.75a8,8,0,0,0-.44,3.06v3.06a67.59,67.59,0,0,1-9.39-.44c-10.26-.44-13.54-.44-17-.44h-4.37v29.26h11.14c1.31,0,3.06,0,8.52-.44h8.3a11,11,0,0,1-.44,2.62,12.89,12.89,0,0,0,.44,3.06c-4.59,0-13.1-.44-20.74-.87a44.88,44.88,0,0,0-7.64.44h0v7.86l.44,9v8.08c0,1.75.44,5.9.44,9v.44h3.93c9,0,22.93-1.31,26.86-1.75a17.13,17.13,0,0,0-.44,3.06,9.05,9.05,0,0,0,.44,3.49h-9.83l-7.64-.44L491,482H480.78s.87-9,.87-15.28v-9.83l.44-14.41s-.44-34.5-1.31-39.09Z" transform="translate(-307.84 -389.61)"/><path class="a" d="M537.33,403.59c10.7.44,15.28.44,20.09.44,3.06,0,16.59,0,18.34-.44h1.75a8,8,0,0,0-.44,3.06v3.06a67.59,67.59,0,0,1-9.39-.44c-10.26-.44-13.54-.44-17-.44h-4.37v29.26h11.14c1.31,0,3.06,0,8.52-.44h8.52a11,11,0,0,1-.44,2.62,12.89,12.89,0,0,0,.44,3.06c-4.59,0-13.1-.44-20.74-.87a44.88,44.88,0,0,0-7.64.44h0v7.86l.44,9v8.08c0,1.75.44,5.9.44,9v.44h3.93c9,0,22.93-1.31,26.86-1.75a17.13,17.13,0,0,0-.44,3.06,9.05,9.05,0,0,0,.44,3.49H567.9l-7.64-.44-14.41.44H535.58s.87-9,.87-15.28v-9.83l.44-14.41s-.44-34.5-1.31-39.09Z" transform="translate(-307.84 -389.61)"/><path class="a" d="M335.79,628.49l-.87,3.06a17.23,17.23,0,0,1-10.26,2.62c-10.26,0-16.59-6.33-16.59-16.59A15.66,15.66,0,0,1,326.18,601a21.29,21.29,0,0,1,9.83,1.75,10.28,10.28,0,0,0-.87,3.49h-.44a11.85,11.85,0,0,0-9.17-3.49,12.21,12.21,0,0,0-9.83,4.37,18.43,18.43,0,0,0,.44,21,10.78,10.78,0,0,0,9,3.93,14.72,14.72,0,0,0,10.26-3.93Z" transform="translate(-307.84 -389.61)"/><path class="a" d="M392.78,617.57c0,10.26-6.77,16.59-17.47,16.59-11.14,0-17.9-6.33-17.9-16.59S364.17,601,375.31,601C386,601,392.78,607.31,392.78,617.57Zm-27.95-10.26a17.23,17.23,0,0,0-2.62,10.26,16.57,16.57,0,0,0,2.62,10,12,12,0,0,0,10.26,5.46,11.52,11.52,0,0,0,9.83-5.46,15.56,15.56,0,0,0,2.62-9.83,18.48,18.48,0,0,0-2.62-10.26,11.63,11.63,0,0,0-9.83-5,12.52,12.52,0,0,0-10.26,4.8Z" transform="translate(-307.84 -389.61)"/><path class="a" d="M421.82,601l1.31,2.62c.87,1.31,1.31,2.62,2.18,3.93l.87,2.18c3.06,5.46,2.18,4.59,4.37,8.08a59.09,59.09,0,0,0,4.59,8.08h0c1.09-2,2.4-3.93,3.71-5.9a56.57,56.57,0,0,1,3.06-6.33l.87-2.18,1.31-1.75,1.31-2.18c.87-2,2-3.93,3.06-5.9l.44-.87h.87c.44.87.44.44.44,2.62.22,2.18.44,4.59.87,6.77v1.75l.44,1.75v3.49a34.32,34.32,0,0,1,.87,5v1.75l.44,3.71c.44,2.62.44,3.93.87,5.9a5.68,5.68,0,0,0-4.37,0,35.27,35.27,0,0,0-.44-6.77c-.44-7.21-.44-7.21-1.75-17.47a15.71,15.71,0,0,0-2.62,4.59l-1.75,3.49a44,44,0,0,1-3.06,5.46c-3.06,6.33-3.93,7.64-5,9.83h-.44c-.44-.87-.44-.87-1.75-3.93-.44-.87.87,1.31-3.71-7.21a26.84,26.84,0,0,0-3.06-5.46l-.87-1.75-.87-1.75-.87-1.75-.44-.44h0v-.22a80.39,80.39,0,0,0-1.75,12.66c-.44,6.33-.44,8.08-.87,11.14a2.62,2.62,0,0,0-3.06,0c.44-1.75.44-3.06.87-5.46,1.31-8.08.87-5.9.87-7.21a7.43,7.43,0,0,0,.44-3.06l.44-1.75c.87-5.46.44-2.62,1.31-8.08a71.3,71.3,0,0,1,.87-7.21Z" transform="translate(-307.84 -389.61)"/><path class="a" d="M484.27,620v11.14a5.54,5.54,0,0,1,.44,2.62,7.76,7.76,0,0,0-2.18-.44,11,11,0,0,0-2.62.44,26.83,26.83,0,0,0,.44-5.9c0-3.06.44-8.52.44-10.7,0-4.37-.44-7.64-.44-10.7a39,39,0,0,0-.44-5,12.09,12.09,0,0,0,3.93.44,21.51,21.51,0,0,0,3.71-.44h2.62c7.21,0,10.7,2.62,10.7,8.08a10.16,10.16,0,0,1-3.93,7.64,19.51,19.51,0,0,1-9.39,1.75h-3.06V620Zm0-2.84h2.18c6.77,0,9.83-2.62,9.83-7.64,0-3.93-2.62-6.33-8.08-6.33a10.82,10.82,0,0,0-3.71.44,17.13,17.13,0,0,0-.44,3.06l.22,10.48Z" transform="translate(-307.84 -389.61)"/><path class="a" d="M533.18,601c.44,1.31,0,0,1.31,3.71a50,50,0,0,0,2.18,5c4.59,10.26,3.06,7.21,4.59,10.7l.87,2.62c2.62,5,1.75,3.49,2.18,5,1.31,3.06,1.75,3.06,2.62,5.9a3.94,3.94,0,0,0-2.18-.44,5.54,5.54,0,0,0-2.62.44,21.79,21.79,0,0,0-2.18-6.33,32.24,32.24,0,0,0-2.62-6.33H525.76c-2.18,5.46-2.18,5-5,12.66a1.6,1.6,0,0,0-1.31-.44,4.11,4.11,0,0,0-1.75.44c.87-2.18,1.75-3.93,3.49-8.08,1.31-2.62,2.18-5.46,3.71-8.08,1.75-3.93,3.06-6.77,3.49-8.08a14.66,14.66,0,0,0,2.18-5,7.38,7.38,0,0,0,1.31-2.62h0l.44-.44v-.44Zm-6.77,18.12h10.26c-.44-.66-.87-1.53-1.31-2.18-2.18-5.9-1.31-3.93-2.18-5.46a21.44,21.44,0,0,0-1.75-3.93l-5,11.57Z" transform="translate(-307.84 -389.61)"/><path class="a" d="M570.08,601l.44.44a33.35,33.35,0,0,1,3.93,3.93,32.9,32.9,0,0,0,4.59,5l1.31,1.75,1.75,1.31,1.31,1.75a40.26,40.26,0,0,1,5,5.46l5,5v-.44c.44-.87,0,.44.44-3.93v-5.9a95,95,0,0,0-.44-11.14v-2.84a4.11,4.11,0,0,0,1.75.44,1.6,1.6,0,0,0,1.31-.44v3.93a55.65,55.65,0,0,0-.44,8.52,87.68,87.68,0,0,0-.44,10.7v6.77a11,11,0,0,0,.44,2.62h-.87a49.88,49.88,0,0,0-6.33-7.21c-2.18-2.18-4.59-5.46-6.77-7.21-.87-1.31.44.44-4.59-5l-3.06-3.06c-3.06-3.71-2.18-2.62-2.62-2.62l-.44-.44h0v12.23a74,74,0,0,0,.44,9.83v3.06c-.44-.44-.87-.44-1.75-.44a1.6,1.6,0,0,0-1.31.44,26.83,26.83,0,0,1,.44-5.9v-10.7l.44-1.75V601h.44Z" transform="translate(-307.84 -389.61)"/><path class="a" d="M626.2,601.85a3.94,3.94,0,0,0,2.18-.44,23,23,0,0,1-.44,5.46v21.18c0,2.18.44,3.49.44,5.9a7.76,7.76,0,0,0-2.18-.44A3.94,3.94,0,0,0,624,634v-5.9a46,46,0,0,1,.44-5.46v-7.21a55.65,55.65,0,0,0-.44-8.52v-5.46a3.59,3.59,0,0,0,2.18.44Z" transform="translate(-307.84 -389.61)"/><path class="a" d="M662.88,633.3h-5a4.8,4.8,0,0,0-3.06.44c0-2.18.44-4.59.44-9v-17.9a15.43,15.43,0,0,0-.44-5.46c1.31,0,1.75.44,3.49.44h10.26c1.75,0,1.75-.44,2.62-.44V604h-3.49c-.87,0-2.18-.44-4.15-.44h-4.37v7.64c-.44,2.62-.44,1.75,0,1.75-.44.87-.44.87-.44,1.31s0,.87.44.87a2.35,2.35,0,0,0,1.75.44,12.89,12.89,0,0,0,3.06-.44h6.33v2.62a33.48,33.48,0,0,0-8.08-.44h-3.49a1.66,1.66,0,0,1,.44.87l-.44,3.71a29.59,29.59,0,0,0,.44,4.37v4.59a4.11,4.11,0,0,0,1.75.44,29.84,29.84,0,0,0,4.15-.44,23.58,23.58,0,0,0,6.77-.44v3.06h-.44v-.44l-8.52.22Z" transform="translate(-307.84 -389.61)"/><path class="a" d="M707.86,606.87a6.2,6.2,0,0,0-5.9-3.93,5.51,5.51,0,0,0-5.9,4.8v.66a5.14,5.14,0,0,0,1.75,4.59,25.13,25.13,0,0,0,5.46,2.62,16.77,16.77,0,0,1,5.46,3.06,7.11,7.11,0,0,1,2.18,5c0,6.33-5,10.7-11.79,10.7a12,12,0,0,1-7.64-2.62,25.39,25.39,0,0,0,.87-3.93h.44a8.76,8.76,0,0,0,7.21,4.59,6.35,6.35,0,0,0,6.77-5.9v-.44a8.59,8.59,0,0,0-1.31-4.59,25.13,25.13,0,0,0-5.46-2.62c-5.9-2.18-7.64-4.37-7.64-9A8.74,8.74,0,0,1,695,603.6a12.19,12.19,0,0,1,7.21-2.18,10.5,10.5,0,0,1,7.21,2.18,5.51,5.51,0,0,0-1.31,3.71Z" transform="translate(-307.84 -389.61)"/></svg>