<svg xmlns="http://www.w3.org/2000/svg" fill="none" viewBox="0 0 196 32" height="32" width="196">
<path fill="black" d="M194.384 0.614663L185.192 15.883L195.084 31.3854H185.751L179.027 20.3415L172.304 31.3854H162.97L172.862 15.883L163.671 0.614663H172.243L179.027 11.4927L185.812 0.614663H194.384ZM81.2938 31.3854L79.7398 26.9366H68.6188L66.9328 31.3854H58.1477L70.9852 0.614663H77.4344L90.1602 31.3854H81.2836H81.2938ZM74.2758 12.0293L74.1437 11.9903L70.8531 20.7025H77.5664L74.2758 12.0293ZM93.2984 31.3854V0.614663H104.125C107.548 0.575638 110.097 1.03418 111.783 1.77564C115.246 3.3171 117.409 6.84881 117.409 11.0049C117.409 15.161 114.119 21.7366 104.948 21.7366H101.139V31.3854H93.3086H93.2984ZM104.633 14.8391C107.923 14.8391 109.569 13.7561 109.569 11.1415C109.569 8.52686 107.964 7.52198 104.328 7.52198H101.129V14.8391H104.633ZM121.066 31.3854V0.614663H129.252V24.4781H138.727V31.3854H121.066ZM142.343 31.3854V0.614663H160.137V7.52198H150.184V12.3025H159.832V19.2H150.184V24.4781H160.137V31.3854H142.343ZM17.157 0.0292969C7.97578 0.0292969 0.53125 7.18052 0.53125 16C0.53125 24.8195 7.97578 31.9708 17.157 31.9708C26.3383 31.9708 33.7828 24.8195 33.7828 16C33.7828 7.18052 26.3383 0.0292969 17.157 0.0292969ZM17.157 24.3805C12.343 24.3805 8.43281 20.6244 8.43281 16C8.43281 11.3756 12.343 7.61954 17.157 7.61954C21.9711 7.61954 25.8812 11.3756 25.8812 16C25.8812 20.6244 21.9812 24.3805 17.157 24.3805ZM55.0094 31.3854V24.4781H45.5336V0.614663H37.3477V31.3854H55.0094Z"></path>
</svg>
