<svg xmlns="http://www.w3.org/2000/svg" viewBox="0 0 292.22 106.42"><defs><style>.a{fill:#72c343;}.a,.b,.c,.d,.e,.f,.g,.i,.j,.k,.l,.m,.n{fill-rule:evenodd;}.b{fill:#cce223;}.c,.h{fill:#113c2a;}.d{fill:#bd3;}.e{fill:#8dd143;}.f{fill:#4eb635;}.g{fill:#a3d53b;}.i{fill:#8ccd2c;}.j{fill:#87cb58;}.k{fill:#a3d324;}.l{fill:#9bd454;}.m{fill:#abdb62;}.n{fill:#c2e482;}</style></defs><title>Garnier logo - Brandlogos.net</title><path class="a" d="M387.95,551.9c0-.77.1-.2.17-.85a3.42,3.42,0,0,1,.4-1.91c.23-.45.2-.3.53-.38,0-.74-.23-1.18-.17-2,1.31-.6,2.69-.25,3.6-.48a1,1,0,0,1-.47-.12c0-1.11-.23-.91-.75-1.36l0-1.52c.05-.26.23-.13.53-.43l0,0,.25-.43,0-.07,1.18,0a8.09,8.09,0,0,0,.17,1.09.54.54,0,0,0,.32.32,8.55,8.55,0,0,0,1.37.05c.67.08.67.45.67,1-1.08.53-.62-.17-1.42,1.41-.73,1.43-1.2.73-1.38,1.44-.23.92.17,0-.92,1.1-.7.72-.73.91-1,1.19l-.63.86a9.28,9.28,0,0,1-1,.93c-.51.45-.75.5-1.54.26ZM406.06,527c-.15,0,0,0-.22.1l-1.5,1.07c.25.21.12-.1.16.4L404.2,531c-.21.06,0,.1-.14,0s0-.05,0-.06a3,3,0,0,1-.6,1.83c-.34.51,0,.4-.48.77s-.21.4-.7.43a29.26,29.26,0,0,1,0-4.58c-1,.32-1.75.84-3.71,1.39-.62.17-1.28.35-2,.5-.53.11-1.68.23-2.06.37l0,.61-.56.3c-.48.38-.39.28-1.13.29-.07.87,0,1.32,0,2.06s-.1,1.33-.12,2.1c-.35.19-.26,0-.43.1-.43,1.72.32,1-.34,1.7-.25.26-.07.21-.23.61l0,.07a1,1,0,0,1-.07.13l-.26.5c-.12.4.06.8-.37,1.43l-.23.25-.05,0c-.4.26-.46.06-.92,0l0-2.54a.71.71,0,0,1-.54-.68c0-.57.53-.41.36-1.11-.14-.54-.33-.15-.26-1.93,0-1,.23-.69.43-1.07s-.14.34.06-.15c.07-.17,0,0,.07-.21l.29-.29-.68-.84c-.12-.14-.21-.26-.35-.41s-.21-.05-.32-.49l.5-.15c-2-.1-3.55-.13-5.5-.41a22.23,22.23,0,0,1-4.71-1.17l-.11.25a3.19,3.19,0,0,0,0,1.36,1.9,1.9,0,0,1,0,.23c0,.23.09.29-.51.39a4.06,4.06,0,0,1-1.54-.14c-.45-.18-.78-.21-.89-.73l.07-2.22a.15.15,0,0,0,0-.07s0,0,0-.1l.3,0c-.32-.28-1.64-.95-2.11-1.24a18.21,18.21,0,0,1-8-11.49c-.12-.52-.36-2.46-.47-2.74a49,49,0,0,0,1.86,12.28l.41,1.38c.12.23,0,0,.1.13a8.9,8.9,0,0,1,1.63,0h.07l.07,0c.22.08.4.33.57.48.48.42.4.94.39,1.79,0,1.4.39.72.1,1.66s.05.71-.37.81c.19.08.16.32.15.35a.72.72,0,0,1-.82-.06l1.14,2.33,2.16-.13a.11.11,0,0,1,0-.06c.51,0,.63-.07.95.24s0,2.35-.17,2.92c0,.17,0,.33-.09.48-.15.46-.35.4-.87.29.29,1.13,4.93,7.18,6.06,8.3l1.42,1.52a29,29,0,0,0,3,2.79,11.33,11.33,0,0,0,1.39,0l1.15-.34c-.2-.53-.27-.42-.38-.65a2.1,2.1,0,0,1-.07-1s0,0,0,0,0,0,.1,0a.76.76,0,0,0,.18-.07c.39-.26-.09.11.05-.26h.48c.26,1.78,0,1.2,0,1.81s.07-.07.18.58a1.88,1.88,0,0,1-.28,1.55l0,.05,0,.05c-.21.29-.17.37-.13.53s.23.26.52.37l.43-1,2-.11.07-.51c.08-.25.42-.23.74-.62.56-.71.35-.2.7-.73s.46-.36,1-1.29c.67-1.16,1-.45,1.48-1.36s.25-.14,1.44-1.49.27-1.28,1.29-1.6l.7-.32c.7-.48.07-.15.81-1.07a.87.87,0,0,0,.13-.15l.58-.86.05-.05.1-.09.05,0,0,0c.21-.22.07-.26.32-.45.47-.36.81.28.94-1.16,0-.13,0-.22,0-.36.1-.52.11-.28.64-.5.37-.15,0,0,.22-.14l.32-.19v1.81c.7.45.49-.12.95.88.19.4-.16-.11.2.24s.48,1,.81,1.37l.54.58c.19.2.17-.11.09.16a2.62,2.62,0,0,1-1.15.09c-1,0,.21.26-1,.32.21.33.15.21,0,.56s-.05.23-.05.74a2.91,2.91,0,0,1-1.41.4c0,.53-.23.4-.32,1.08-.06.42-.1.78-.18,1.23a2.8,2.8,0,0,1-.14.53c-.15.46.13.31-.37.45s-.67-.14-.75.62c-1.69.05-3.23,1.08-4.37,1.11-.63,0-1.27,0-1.9,0-.25.31-.24.35-.52.5l-.69.26-.06,0c-.67.4-.84.48-.76,1.44a7.67,7.67,0,0,1,1,.32l.13.06.42.19c0,.58.07.79-.41,1.14l-.16.1c0,.5.15.53,0,.66.45.72,5.58,3.17,6.55,3.61a51.58,51.58,0,0,0,7.43,2.73,56.3,56.3,0,0,0,13.08,2c.91,0,1.58.16,2.46.09.7-.06,1.72,0,2.46-.1,1.66-.18,2.68-.19,4.57-.45a53.23,53.23,0,0,0,17.34-5.45l3.24-1.79c.56-.34,1-.63,1.58-1l2.26-1.55a2.63,2.63,0,0,0,.75-.61c-.37.05-.13.07-.36,0a1,1,0,0,1,0-.83c.12-.29,0-.05.09-.12a3.41,3.41,0,0,0-1.83-.3c-.73.76-.5.69-1.49,1a10.23,10.23,0,0,0-1,.58,2.41,2.41,0,0,1-1.9-.31c-.72-.53,0-.58-1.27-1.09a4.51,4.51,0,0,1-1-.57l-.32-.2-.05,0a.53.53,0,0,0-.47-.08c-.45,0-.15,0-.54.17l-.77-.15c-.27,0-.45.29-.75.43-.48-.24-1-.43-1.08-1l.56-.36c.59-.29.59-2.07.55-2.18s.2.3-.08-.1c-.06-.09,0,0-.1-.15a1.47,1.47,0,0,0-.73-.86c-.87-.46-.72-.46-1-.18a1,1,0,0,1,.75.19l.19.16c-.32,0-.37,0-.62.07l-.37.29c-.56.44-.64,0-1,.81a4.15,4.15,0,0,0-.24,1.66c-1,.25-.51.4-1.82.39l-.95.08c-.78.39-1.7.18-2.51.43l-1.05.18a5.48,5.48,0,0,1-1,0,5.43,5.43,0,0,1-.4-1.31l-.07-.22c-.29-1.06-1.53-.32-1.26-2.17,0-.32.14-.86.49-1h.58c.83.46.42,1.13,1.78,1.14a1.21,1.21,0,0,0,.15-1.25,1.55,1.55,0,0,0-.28-.57c-.18-.29-.05-.12-.33-.24a1.53,1.53,0,0,0-.42-1.2l0-.05-.2-.39c.48-.19-.17-.15.53-.24s0,.06.46.09.07-.42.82-.06c.17-.35,0-.16.27-.54.18-.23.18-.15.28-.48a3.59,3.59,0,0,0,1.69-.31,4.37,4.37,0,0,0-.92.06c.1-.11,0,0,.17-.14a8.85,8.85,0,0,1,1.44-.47.94.94,0,0,0,.56-.57l1.26,0,.2-.39c.2-.28.4-.9.65-1.21l3.51-.1c0-.09-.17.05-.1-.16.13,0,.36,0,.48,0,.27,0,.13,0,.3.09.41.19.45,0,.8.23.2.11,0,.21,1,.14a5.2,5.2,0,0,0,0-.82c-.05-.53-.12-.45-.26-.59-.13-.31.2-.12-.4-.21-.36-.05-.42,0-.6-.13l0,0c-.37-.39-.17-.71.2-1l1.08-1c.34-.58.72-.48,1.14-.94.14-.15.17-.23.29-.37l1.06-.73a5.69,5.69,0,0,0,1.38-1,2.67,2.67,0,0,1,1-.38c.24-.48,0-.52.7-.7.5-.12.56-.21.73-.65s.23-.48.78-.67a10.08,10.08,0,0,0,.93-.4c.64-.29,4.19-.08,5.38-.23h-5.79c-.47.18-.92,0-1.23.28s-.29.75-.47,1.14c-.45.16-1,.17-1.44.36l-2.27,1.81c-.26.18-.76.24-1,.47l-.84.78-.05,0-.06,0-1.73,1.31-.05,0-.56.68,0,.06c-.32.46-.36,0-.4.73-.48,0-.71.29-1.09.42l-.7.35c-.18.09-.57.15-.64.36s-.12-.07,0,.08.05,0,.07,0a3,3,0,0,0-1.21.26,2.77,2.77,0,0,0-.78.82,8.25,8.25,0,0,0-3.35.95l-.19.1a1.74,1.74,0,0,1-1.21.34c-.08.21.08-.3.07.31a1.87,1.87,0,0,0-1.11.23l-.32.17a14.3,14.3,0,0,0-1.92,1l-.6.59a9,9,0,0,0-2.4.4,1.92,1.92,0,0,1-.45,0c-.86,0-.59.25-1.32.27-.54,0-1.08,0-1.61,0-.2.4-.09.65-.58.77-.84.19-1,.44-1.51.5-1.22.11-.79-.25-1.78.18a4.13,4.13,0,0,1-.07,1.06c-.13.42-.13-.06-.1.42s.26-.18.06.41a7.53,7.53,0,0,1-2.4.09,1.41,1.41,0,0,0-.51.05c-2.32.67-.91.3-1.91,1.69l-.12.17c.35.37.21-.26.27.36-.09.4-.21.32-.2.86,0,.71.12.23.34.78a1.25,1.25,0,0,0,.46.78l.9.42.22.07.21.07a2.64,2.64,0,0,0,3-.25,2.9,2.9,0,0,1,1-.11,2,2,0,0,1,1,.12l.13.06c.87.38.45.32.81.51s.19.05.45.1l1.14.4.17.11,1,.32.79-1a5.77,5.77,0,0,1,2.36.33c.32.15.34.36.63.5,1.55.75,1.14.92,1.93.59a1.34,1.34,0,0,1,.72-.09l.23.63c.47.56,1.35.23,2,.22.45,0,2.15.12,2.44-.2l0-.12c.14-.18-.17.08.07-.07.45-.28,1.34-.1,1.82-.29l.15-.07c.19.58.58,0,.58,1.32a1.12,1.12,0,0,1,.89.45,1.68,1.68,0,0,0,.82.67l.39.18c.31.09.32,0,.6.17l.35.32.53.23c-.16.35-.05.37-.52.47a14.78,14.78,0,0,1-4.06.21c-.56-.12-.12-.34-.85,0a3.22,3.22,0,0,1-.75.29c0,.1.14,0,.1.18-1.85,0-3.54.11-5.32.1a21.12,21.12,0,0,0-2.72,0,8.82,8.82,0,0,1-2.59.15,6.18,6.18,0,0,0-2-.45,6.37,6.37,0,0,1-.66,0l-.43-.15c-.78-.27-3.39-.05-4-.29a5.39,5.39,0,0,0-2.43-.32,34.05,34.05,0,0,1-4,0,1.9,1.9,0,0,1-.46-.2L411,559c-1.11-.74-.54-.26-2-.4a3.37,3.37,0,0,1-.61-.15l-1.77-.22c-.89-.09-.56-.41-1.7-.39-.58,0-.86-.06-1.33-.09-.9-.05-3.27.15-3.94-.15a2.24,2.24,0,0,0-1.24-.1,12.62,12.62,0,0,1-2.47-.19,2.22,2.22,0,0,0-.15-.7c-.28,0-.72.08-.91-.12l-.26-.22c.53,0,.1,0,.29-.1l.1-.09c.33-.24,1.14-.4.75-1.09l-.16-.22a2.13,2.13,0,0,0,.89-.36l.27-.19s0-.85,1.8-.87c.48,0,.54.08.75-.18-.23-.29-1.22-.23-1.69-.28l-1.83-.29c.21-.32.28-.26.76-.32a2.93,2.93,0,0,0,1.19-.32,2.64,2.64,0,0,1,1.49-.26l.3.22a1.81,1.81,0,0,0,.17.75,6.67,6.67,0,0,0,1.87-.12l-.17,0-.21-.09-.07,0c.86-.44,1.93-.24,2.1-.75-.73-.32-2.18,0-2.92-.31l-.25-.14-.06,0,.14-.81c.82-.05.57-.15,1-.56l.05,0,.65-.59L402,549l1.14-.76c.47-.26.22-.27.23-.29.37,0,.48-.11.87-.13l-.12-.25,2.63-.95c.36-.17.17.06.31-.25s-.13-.38-.18-.85c.32-.2.45-.18.95-.2.06-.2.09.11,0-.08s-.1.07-.06-.07c2.19,0,2.18-.28,3.42-.29.3,0,.92.07,1.12-.15,0,0,0-.07,0-.06a4.44,4.44,0,0,1,.3-1c.72-1,1.2,0,2.38-.76l.46-.29c.39-.28.46-.14.67-.66l.18-.58,0-.07c.09-.26.38-.28.64-.32l1.41-.57,0-.05a3.75,3.75,0,0,1,.5-.65c.52-.4,1.21.18,1.73-.26l0,0,.08-.11a.47.47,0,0,1,0-.07,2.33,2.33,0,0,0-.26,0c-.23-.07-.17-.06-.26-.13l-.42-.4c.51-.17,0-.52,2.21-.48.88,0,1.77,0,2.66,0,.16-.34.18-.7.76-.82s.56.1,1.22-.38l.41-.18c1.15-.3,0-.48,2.26-.49a2.3,2.3,0,0,0,1-.18c.51-.2.32-.13.44-.49,1,0,1.76-.2,2.9-.12.38,0,.46-.13,1.31-.18l.37-.08A8.08,8.08,0,0,1,437,535l.55,0,.07,0a1.34,1.34,0,0,0,1.58-.36,1.75,1.75,0,0,0,.52-.79.29.29,0,0,0,0-.07l0-.07a1,1,0,0,1,.05-.13,4,4,0,0,0,.07-.81,5.75,5.75,0,0,0,1.47-.35,33,33,0,0,1,4-.17c.26-.31.12-.37.6-.5.84-.23.52,0,1.23-.46l.19-.1a1,1,0,0,0,.18-.1l1-.64h1.37v-.9a5,5,0,0,0-1-2c-.13.24-.6.15-.89.17-.19.4.19.24-.31.42s-.29,0-.56.38l-1,0-.81.14-1.17,1.38a14.65,14.65,0,0,0-3.42.2l-1.3.59-1.55.16-.67,1.37c-.62.3-.75.08-1.31.25-.37.12,0,.11-.5.26l-.54.21a8,8,0,0,1-2.66.38,1.76,1.76,0,0,0,.82.1,20.35,20.35,0,0,1-4,.1l-.51.72c-.33.34-.42.15-.85.38-1,.53-1.08.15-2.15.32-.42.07-.47.32-.87.37a8.67,8.67,0,0,1-1.23,0,16.61,16.61,0,0,0-2.18.28l-.12.24a13.36,13.36,0,0,1-2.51.64c-.31.05-.27,0-.4-.09-.4-.18-.79-.14-1-.59a2,2,0,0,1,0-1.4l.16-.21c.23-.26.56-.36.78-.61l-.46-.05c-.23.06-.59.5-.55-.71a7,7,0,0,1,.85-.14,1.08,1.08,0,0,0,.7-.32l1-1.19c.19-.29-.09.11.32-.27.23-.22.1-.2.33-.32l.07,0,2.69-.9c1.6-.35,1.27-1.79,1.89-2.13l.06,0,.12,0c.4-.12.51,0,.84-.25l.1-.09c.36-.3.87-.38,1.18-.71l.39-.37.06,0,.66-.46c.7-.3.9-.7,1.66-1l.34-.16a.92.92,0,0,1,.32-.15c.5-.2.74-.56,1.18-.82l1.25-1.31.06,0,.51-.25a.79.79,0,0,0,.18-.12l1-1.11.23-.22.21-.28a.8.8,0,0,0-.81.23c-.43.43-.12.45-1,1.11-.24.18-.59.25-.79.44a5.47,5.47,0,0,1-.88.55l-.89,1c-.2.35-1.41.66-1.91,1l-2.65,1.9c-.29.2-.33.36-.74.47a1.75,1.75,0,0,0-1,.49c-.23.29-.4.26-.66.56s0,.21-.48.48c-.17.1-.4.27-.58.37l-.89.45-.07,0L420,530.65l-.07,0-.48.28a2.51,2.51,0,0,0-1.05.85c-.11.19,0,.13-.16.32-.24.35-.57.36-1,.39l-.1.31c-.45,0-.67.13-1.14.16a.87.87,0,0,1-.59.92l-.32.16c-.53.24-.92.1-1.27.61a3.84,3.84,0,0,0-.8.08.91.91,0,0,0-.22.07l-.31.26a6.29,6.29,0,0,0-.59,1,2.66,2.66,0,0,0-1.72.48l-.11.07-.58.18a4.71,4.71,0,0,1-1.28.44c-.11.39-.05-.36.07.13s-.22-.32,0,.2c-1.22.05-.89.41-1.1.87h-1.59a6.93,6.93,0,0,0,0-1.5c.53-.31.38,0,.54-.67.07-.28,0-.26.19-.45.55-.62.27-.48.68-.84a1.1,1.1,0,0,0,.15-.15,1.23,1.23,0,0,0,.34-.88c.62-.07.63-.33.65-1,.45-.07.63-.31,1.11-.39s.2,0,.59-.19c1-.54,0-.11.75-1.24a.16.16,0,0,0,0-.06c.23-.34.29-.58.83-.64l1.62-3.21h-.43l0-.06a2.75,2.75,0,0,1-.08-2.45l0-.08,0-.07s0,0,0-.08.4-.21.58-.28c.45-.18-.13-.15.54-.19,0-.48.07-.39.18-.58.23-.43-.07-.25.26-.87l.69-1.17c.15-.25,0,.09.14-.43s.29-.65.54-1,.09-.58.48-1,.62-.5,1.2-1.08c.29-.29.23-.14.45-.48l0-.06.08-.12a.2.2,0,0,1,0-.06c.23-.35,0-.21.26-.28s-.1-.29.15.05a9.56,9.56,0,0,0,1.25-2.3l1.14-2.28a39.59,39.59,0,0,0,2.24-4.66c-.07-.23.07-.09-.17-.13-.43-.07-.45.42-.52.55-.19.35-.06-.11-.54.79-.19.36-.25.31-.43.51-.53.59.17.42-.89,1.4a14.36,14.36,0,0,0-1.07,2l-.57,1c-.33.46-.38.37-.84.63a2.05,2.05,0,0,1-.15.95c-.41.6,0-.4-.34.32l-.15.33-.08.12-.18.38a4.86,4.86,0,0,1-1,1.53l-1,1.5a9.36,9.36,0,0,1-.7,1.41,6.83,6.83,0,0,1-1,1.53l-.44.52c-.48.35-.24-.15-.51.77a5.11,5.11,0,0,0-.22.72.33.33,0,0,1-.16,0l-.41.12-.07,0-.21.15,0,0a2.05,2.05,0,0,0-.51,1.3l-.19-.18c-.11-.15,0-.06,0-.06-.15.69.11,0-.43.51l-.12.14c-.18.28,0,0-.14.4l-.27.71,0,.07-.2.28c-.22.3-.2.42-.38.66l-.09.11-.05.05c-.82.79,0,.42-1,.78-.26.09-.23.13-.43.46s-.16.51-.17,1c-.44.24-.46.46-.64.95s-.46.52-1.25.49l0-1.09c.06,0,.18.05.25-.14.32-.78-.15-2.57.26-3.35.12-.23.46-.59.35-.84Zm0,0" transform="translate(-365.89 -458.79)"/><path class="b" d="M442,482.46l-.29.18c-.5,1,0,1.48-.85,2.28a.84.84,0,0,0,.43.33c-.42.12,0,.16-.46.37s-.32,0-.56.34.05.08-.26.32l0,0-.23.33c-.31.67.07.46-.43.89s-1.11.17-1.42,1c-.07.19,0,.25-.41.53-.69.51-.39.46-.86.85s-.23,0-.4.48l-.43,1.38c-.11.28,0,0-.1.18l-.22.35c-.25.34.34-.42-.13.15l-.23.39c.1.05,0,0,.24.08.8.19,2.68-.18,3,.15l.09.1a26,26,0,0,1,4.63.18c.36.14.1.13.64.13l-.17.14c-.2.18-.08-.09,0,.05,1,0,1,.45,1.29.67a1,1,0,0,1,.62.68s0-.05.05,0,.07-.15.32-.05c-.5.77-1.56.21-2.95.51a9.14,9.14,0,0,1-3.09.22c0,.37,3.51,7.36,3.75,7.53.23-.07,0,.13.18-.11s0,.11.11-.21c.28-1-.13-.52.7-.81.24-.09.18-.15.44-.22a4.85,4.85,0,0,1,.67,0c1,.05.64.79,1.82.43l.33-.13.07,0c.24-.13.05-.13.37-.24.09.25,0,.13.26.18.1,0,.45,0,.57,0,.78,0,.37.15.75.29.37-.56,0-.7.32-1.3l.05-.1,0-.06,0-.07,0-.06c.23-.59-.1-1.15.51-1.49.22-.12,1.08,0,1.34-.44s-.16-.08.42-.47.7-.62.83-.64l.67-.9c.12-.42,0,.05,0-.25s.2-.23.26-.81c.78,0,2.35-.38,2.81-.38.05.09-.06.08.16.18.75.34.86-.34.85,1-1,.62-.2.09-.59.55l-.45.4c-.43.34-.29,0-.95.86l-.08.11a3.71,3.71,0,0,0-.92,1.36l0,.07a.15.15,0,0,1,0,.06L455,500l0,.05-.19.15a19.47,19.47,0,0,1-.12,2c-.2,1.25-.56,2.48,1.3,2.26.7-.09.21-.36,1.67-.39l-.49,0c-.27-.09-.05,0-.23-.12a6.63,6.63,0,0,0,.94,0l.35-.13a1,1,0,0,1,.39-.05,4,4,0,0,1,.72-1.56h1.33c.13-.23,0-.06.1-.29l.08-.22a.5.5,0,0,1,0-.07V493l9.67,0a49,49,0,0,0-2.35-5.23c-.26-.42-.41-.81-.67-1.23a56.47,56.47,0,0,0-5.47-8c-.18-.23-.29-.3-.45-.5a53.54,53.54,0,0,0-4.19-4.46c-.21-.2-.3-.23-.52-.42s-.29-.32-.48-.48l-3.13-2.57a51.42,51.42,0,0,0-12.15-7,6.63,6.63,0,0,0-1.49-.53l0,.64.58.13c-.21.12-.1,0-.25.11-.44.22-.32-.17-.33.57-.43-.14-.76.4-1,.73l-.26.48-.1.12c-1,0-1.37-.2-1.55.87a24.38,24.38,0,0,0,0,2.54,1.1,1.1,0,0,1-.07.38l-.08.2,0,.15a1.39,1.39,0,0,1-.24.56c-.21.2-.79.1-1.12.17l-.26.09s-.05,0-.08,0c-.37.31-.22,1.3-.23,1.8,0,0,.09.1,0-.05l-.2-.09s-.05,0-.07,0a2.56,2.56,0,0,0-.12,1.49c-.21,0,0,0-.12,0l-.35.26a2.76,2.76,0,0,0-.08.28c0-.34-.12-.36-.23-.34a.38.38,0,0,0,0,.07,7.65,7.65,0,0,0-.28,2.12c0,.8,0,1.58,0,2.38l.39,1a6.85,6.85,0,0,1,.4,1.6c.74-.63.61-1.22.89-1.61l.54-.88c.07.06.33.21.48.1a1.89,1.89,0,0,0,.35,1.07c.11.19.06,0,.14.25l.36-.11c.28-.08.37-.06.53-.26.21.37.56.46,1.1.48a.82.82,0,0,1,.32-.43c.26-.25.09,0,.32-.37.63-1-.09-1.69.72-2.31l.35-.17c.5,0-.31.17.14,0l.15-.7c.13-.22.18-.66.37-.87l0-.05.48-.63.42.32.05,0c.8.73.26.13,1.11.68a.6.6,0,0,0,.2.1c.63.27.56.19,1,.7a.94.94,0,0,1,.58-.18l.1,0,.05,0,.29-.07c.4-.32.32-.48,1-.73l.92-.5c.27-.19.09,0,.21-.18s.25-.5.49-.65l.06,0,.07,0a.83.83,0,0,1,.34,0c0-.66.08-.26.23-.72,1.31,0,1-.1,1,1.5a1.26,1.26,0,0,1-.72,1.28c-.25.15-.05,0-.21.13s0,0-.09.18l-.06.18a2.58,2.58,0,0,1-.43.81.49.49,0,0,0-.11.26c-.35,0-.25,0-.45-.17,0,.64.18.43.18,1l-.39.09c-.42.14-.08,0-.3.17l-.8.15a2.32,2.32,0,0,0-.12.34c-.37.77-.64.76-1.41,1-.26.08-.31.24-.53.4-1,.73-.44.68-1,1.22-.2.2-.23.56-.44.7s.22.17-.37.11Zm0,0" transform="translate(-365.89 -458.79)"/><path class="c" d="M565.43,511.71a20.91,20.91,0,0,0,.55,5.15,19.07,19.07,0,0,0,.58,2c.24.67.53,1.23.78,1.88a21.22,21.22,0,0,0,2.54,3.92c.21.26.43.41.65.68l2.78,2.44a20.83,20.83,0,0,0,3.28,1.85c.36.15.54.26.92.4s.62.21,1,.35a22.79,22.79,0,0,0,4.13,1.09c7,1.17,16.29.55,22.14-3.85l1.56-1.29c.22-.19.31-.21.53-.42l1.71-2a13.81,13.81,0,0,0,1.5-2.31c-2.16,0-4.32,0-6.46,0-1.09,0-.74.16-2.39,1.6-2.7,2.35-7.26,3.82-11.57,3.82h-1.42c-6.27,0-12.28-2.67-15-8.11a17,17,0,0,1,0-13.81,12.65,12.65,0,0,1,3.41-4.28c6.23-5.09,17.84-5,24-.48a17.11,17.11,0,0,1,1.9,1.71,7.53,7.53,0,0,1,.82,1c2.57,3.72,2.24,5.71,2.62,6.5H578.82a5.62,5.62,0,0,0,.14,1.2l.53,3.75h32.86l.1-2.85a19.35,19.35,0,0,0-4.54-12.37l-1.33-1.33a15.56,15.56,0,0,0-2.13-1.77c-.56-.38-1-.65-1.65-1a17,17,0,0,0-1.72-.84,16.57,16.57,0,0,0-1.92-.74c-6.49-2.15-16-2.16-22.23.68l-.92.41-2.12,1.21A18,18,0,0,0,567,504a19.39,19.39,0,0,0-1.6,7.7Zm0,0" transform="translate(-365.89 -458.79)"/><path class="c" d="M386.18,492.17a37,37,0,0,0-3.9.58c-1.35.26-2.46.75-3.64,1a36.73,36.73,0,0,0-4.7,2.43,13.19,13.19,0,0,0-2,1.62c-.32.32-.59.56-.91.9a5.94,5.94,0,0,0-.48.47c-.18.21-.17.32-.38.38-.59,1.14-1.47,1.66-2.73,4.68A29.37,29.37,0,0,0,366,510a17,17,0,0,0,0,3.94c.11.28.35,2.22.47,2.74a18.21,18.21,0,0,0,8,11.49c.47.29,1.79,1,2.11,1.24.63.12,1.78.78,2.6,1a22.23,22.23,0,0,0,4.71,1.17c1.95.28,3.53.31,5.5.41a48.3,48.3,0,0,0,5.19-.33c.38-.14,1.53-.26,2.06-.37.7-.15,1.35-.32,2-.5,2-.55,2.71-1.08,3.71-1.39l2-1.14,1.5-1.07c.24-.15.07-.06.22-.1l.25-.29a16.56,16.56,0,0,0,2.78-2.92,18.24,18.24,0,0,0,2.22-3.85,20.58,20.58,0,0,0,1.44-10.42h-7.5l-3.8,0H379.3l.68,4.87,6.35,0h12.94l7.21,0c0,.35,0,.27-.15.49a11,11,0,0,1-1,3.63,9.93,9.93,0,0,1-1.79,2.83,13.22,13.22,0,0,1-4.48,3.53c-.32.43-3.25,1.33-4.08,1.53l-1.55.31c-1.43.16-2.54.25-4,.32l-2-.09a7.7,7.7,0,0,1-2.6-.4c-1.44.07-6.19-1.84-6.69-2.66-.31-.06-.22-.05-.58-.33l-1-.81a9.47,9.47,0,0,1-2-2.45,8,8,0,0,1-1.44-2.68,15.06,15.06,0,0,1-.79-3.28A17.81,17.81,0,0,1,373,507a13,13,0,0,1,3-5.14c.21-.2.31-.34.51-.53.86-.79,3.42-2.65,4.33-2.67a13.33,13.33,0,0,1,3.35-1.16,23,23,0,0,1,4.06-.5,22.49,22.49,0,0,1,7.5.79,15.42,15.42,0,0,1,6.41,3.35c1,1,1,1.28,1.9,1.25h6l.41-.08-.68-1.23a11.76,11.76,0,0,1-1.14-1.52.49.49,0,0,1-.2-.18c-.13-.15,0,0-.08-.16-.27-.15-.23-.12-.38-.38s-.09,0-.29-.23-.13-.15-.22-.26c-.25-.26-.29-.21-.46-.53l-4.74-3.2-2.31-.92a2.24,2.24,0,0,1-.77-.34,21.07,21.07,0,0,1-2.65-.62,15.14,15.14,0,0,1-2.76-.51,2.14,2.14,0,0,1-1.09-.11l-2.41-.07h-.52Zm0,0" transform="translate(-365.89 -458.79)"/><path class="c" d="M505.79,531h6.27V499a3.87,3.87,0,0,1,.79.92c.28.38.49.65.78,1l11.05,14.59c.14.19.24.29.38.47l10.7,14.1c.28.36.58.92.89.92h9V493h-6.36v32l-12.2-16c-2.05-2.73-4.05-5.32-6.1-8l-5.7-7.51-.21-.26c-.13-.13,0-.18-.29-.18h-9Zm0,0" transform="translate(-365.89 -458.79)"/><path class="c" d="M642.16,509.52H624.4V497.94h17.95c3.59,0,7.12,1.65,7.12,5.61a5.11,5.11,0,0,1-2.22,4.61,9.42,9.42,0,0,1-5.09,1.37ZM618,493.28v37.43c0,.22.07.29.29.29h6.08V514.46h15.77c4.28,0,6.22,2.51,7.78,6.08,1,2.18,1.86,5.37,2.67,7.79.15.43.26.79.41,1.3l.43,1.37h6.65l-1.69-5.33c-1.55-4.66-2.54-9.2-7-12.52a6.44,6.44,0,0,1-1-.77,10.34,10.34,0,0,0,5-3.17c.32-.41.56-.7.86-1.14a7.52,7.52,0,0,0,.39-.66,6.67,6.67,0,0,0,.38-.67,9.54,9.54,0,0,0-1.28-9.76,11.91,11.91,0,0,0-9.32-4H618.32c-.22,0-.29.07-.29.29Zm0,0" transform="translate(-365.89 -458.79)"/><path class="c" d="M474,509.55h-6.92V497.88l5.12.07c1.86-.14,9.81,0,12.34,0,3.49,0,7.18,1.23,7.59,4.85.46,4.19-2.44,6.27-5.8,6.63-3.81.4-8.39-.16-12.33.13Zm-13.19-8,0,19.08V531l6.23,0,0-16.55,6.92,0c3.64.25,8.28-.37,11.09.32a6.37,6.37,0,0,1,1.63.65c2.89,1.67,4.25,5.53,5.21,8.57l1.93,6a5.3,5.3,0,0,1,.27,1h6.64a6.6,6.6,0,0,0-.39-1.32c-.15-.43-.26-.89-.43-1.38-.31-.92-.54-1.74-.86-2.66l-.85-2.67a21.1,21.1,0,0,0-2.7-6.13,16.94,16.94,0,0,0-2.45-2.87c-.8-.8-1.81-1.31-2-1.59a7.93,7.93,0,0,0,2.41-1A11.1,11.1,0,0,0,497,508a9.48,9.48,0,0,0-.15-10.52,10.87,10.87,0,0,0-.75-1,11.19,11.19,0,0,0-5.48-3.06c-4-1-15.36-.14-20.14-.5l-9.67,0Zm0,0" transform="translate(-365.89 -458.79)"/><path class="d" d="M391.17,467.06a5.61,5.61,0,0,0,.25,1.69c.22.34.13.94.29,1.3.09.17,0,0,.22.23l.16.12.1.09.48.48c.22.63,0,.94.86,1,.26-.51.53-.1.55-1.13.76-.07.2,0,.59-.35.16-.15.42-.17.64-.29v-2.28c1-.89.32-.49,1.63-.7.37-.06.2-.08.44-.29.26.3.2.11.5.31l.24.29-.18.34a2.12,2.12,0,0,0-.15,1.17c.05.32.23.31.39.5l.3.56a16.8,16.8,0,0,0,2.18.2,1.55,1.55,0,0,0,.67,1.33c.46-.15,0,0,.37-.16.33.52,0,0,.37.37l.23.34c.1.28.06.07,0,.4l1.23,0a1.23,1.23,0,0,0,.32-.87c.41-.16.21.13.46-.26s-.16-1-.23-1.63l-.24-.08a2,2,0,0,1-.57-.78c.18-.22.26-.19.5-.42s0-.26.61-.25c-.1-.24-.16-.19,0-.45l1,.74s0,.07,0,.05,0,0,.05.05c.35-.22.13-.17.24-.26l.12,0h0l0-1.72.23-.18c.09-.05.2-.09.29-.13.14.66.09,1.18.18,1.9.17,1.35-.3,2.18-.15,4,.1,1.26,0,1,1,1,.09.3,0,.35.23.53l.76-.46.05,0,.05-.05a3.14,3.14,0,0,0,.95-2.52l-.3-.17-.06,0-.1-.07c-.35-.31-.16-.86-.24-1.43a3.87,3.87,0,0,1,0-2l.64-.23a5.92,5.92,0,0,1,.18,1.21,4.87,4.87,0,0,0,.11.66l.11.28a.78.78,0,0,1,.07.2c.37,1.33.56,1.15,1.22,1.55,0,.21,0,.4,0,.59,0,.78.12.64.47.84s.09.05.27.2c.41.33.15,0,.39.16a2,2,0,0,0,.4,1.24s0,.05,0,.07h.79c.18-.4.3-1,.51-1.39-.16.51,0,.32.35.35,0-.48,0-1,0-1.47a1.12,1.12,0,0,1,.11-.52c.1-.23.09,0,.21-.46a22.46,22.46,0,0,0,.11-2.66c.15-1.08-.21-2.88.3-3.66.29-.43,0-.83.62-1,.41-.15.49-.14.7,0l.05,0,.15.08c0,.61,0,.81-.43,1.12l0,5.91.69.61a2,2,0,0,1,.26.11,18.34,18.34,0,0,0-.08,3.47,1,1,0,0,0,.25.74c.14.21,0,.08.19.23.45.4-.12-.32.15.12s-.08.91.41,1.17c.26.14.47.07.84.11s.35.09.56.29a.68.68,0,0,1-.37.46l-.38.18c-.2.11-.08,0-.18.12l-.05,0-.05,0a3.76,3.76,0,0,0-.61,1.09l-.6,1.2,0,.07a.3.3,0,0,0,0,.07l-.35.51c-.17.23-.29.95-.59,1l0,.86-.29.15c-.71.46-.76.73-1.06,1.52-.18.47-.42.61-.58,1.13s-.27,1.58-.68,1.75,0,0-.12,0l0-.07c-.07.31-.13.29-.36.44l-.06,0-.05,0-.1.07c-.48.48-.16,1.29-.68,1.8,0,0,0,0-.13.12-.29.38-.42,1.06-.68,1.41-.14.18-.13.07-.23.31a13.27,13.27,0,0,0-.27,2.81c.43.19,0-.23.19.19l1.24,0c.16.21.45.82.19,1l.09,0,1.14-.06.15-.48c.25-.75-.07-1.53.23-2.26a2.88,2.88,0,0,1,.85-1.23l.19.63c0-.24.24-.32.46-.56l.05-.05.12-.1v-.35c.63,0,1,0,1.18-.23l0-.05.23-.26.06,0,1.44-.92c.37-.33.23-.45.48-.75s.29.18.23,0l0,0,.46-.35,0,.05.09.09c.22.19.73.17.59.5l.18-.53c.32.19.15.1.31.43l.06.13c.17.39.11.1.07.56.92.29,1.21.06,1.1.15l.2-.7c.18-.12.07-.67.15-.88.18-.47.48-.63.61-1.09a7.9,7.9,0,0,0,.48-3.59,1.63,1.63,0,0,1,1.19-.4,3.54,3.54,0,0,1,1.08.34c0,.85.1,1.71.13,2.43l.09,0s0,0,.07,0l.14.71s0,0,0,0c0,1,.13,2,.13,2.85a11,11,0,0,0,0,1.39,9.09,9.09,0,0,1,.27,1.09,1.3,1.3,0,0,1,.48,0c.53.16.21.14.25.15v-9l.06-.06.06-.06.41-.23a16,16,0,0,1,2.68.1c0-.4-.12-.4-.36-.6.06-.29,0-.26.18-.32-.32-.07-.18,0-.33-.26a2.74,2.74,0,0,1-.43-1.13c0-.28.29-.47.43-.67l0-.05a10.5,10.5,0,0,0,0-3.48c-.15-.41-.26-.13-.28-.92,0-1.3.54-1.69-.4-2.73a1.34,1.34,0,0,1-.21-1.66l.21-.37a2.24,2.24,0,0,0-.15-1.35,13.06,13.06,0,0,1,0-3.26c0-.35,0-.75.07-1.08a2.79,2.79,0,0,0,.18-.91c.17,0,.4,0,.26.14,0-.39,0-1,.05-1.33s0-.11.08-.31c.29-.55.07.23.4-.81.4-1.22-.27-1.31.1-1.72l-2.55-.4a42.32,42.32,0,0,0-7-.55,7,7,0,0,0-1.49-.07c-.68.09-3.35.1-4.33.23-1.52.19-2.23.17-4.07.48-.9.15-1.81.29-2.65.49A54.83,54.83,0,0,0,393,465.88a20.58,20.58,0,0,0-1.87,1.17Zm0,0" transform="translate(-365.89 -458.79)"/><path class="c" d="M431.48,502.88c0-.28,2.46-5.48,2.7-5.77.24.25,1.56,3.11,1.86,3.71a29.63,29.63,0,0,1,1.72,3.74.62.62,0,0,1,.15.17c.34.45,2.25,4.64,2.29,4.8h-12a32.26,32.26,0,0,1,1.58-3.42,33.27,33.27,0,0,1,1.65-3.24Zm-3.09-6.19-5.3,10.58c-.12.32-.05.24-.26.42a39.59,39.59,0,0,1-2.24,4.66l-1.14,2.28a9.56,9.56,0,0,1-1.25,2.3c-.06.47-2.16,4.44-2.55,5.21-.86,1.69-1.66,3.53-2.59,5.16l-1.62,3.21-.19.45,6.71,0c.53-1.34,1.38-2.89,2-4.24a38.32,38.32,0,0,1,2.09-4.21,32.35,32.35,0,0,1,1.4-3.13c.76-1.63,1.63-3.28,2.35-5l16.86.07.47,1,1.28,2.73,2.19,4.51a15.67,15.67,0,0,1,1.31,2.73l1,2.14a5,5,0,0,1,1,2s.05,0,.06.06l.35.63c.12.25.26.53.36.75h6.66a25.1,25.1,0,0,0-1.44-3.07,32.28,32.28,0,0,1-1.58-3.17c-.36-.41-7-13.75-7-14-.19-.16-.12-.09-.26-.34l-2.38-4.82-1.21-2.43c-.23-.17-3.7-7.16-3.75-7.53a4.07,4.07,0,0,1-.69-1.23,8.45,8.45,0,0,1-.61-1.27l-.09-.1-3.72,0H430.3Zm0,0" transform="translate(-365.89 -458.79)"/><path class="e" d="M461.45,538.8c.46.14,0,.1.32.13s.07,0,.22-.07-.14-.2.56-.15c.95.07.2.26,1.07.27a5.49,5.49,0,0,1,1.49.05c.43.26,0,.89-.34.89l-1.58,0c-.26.09-.18.13-.39.29s-.71.17-1.25.16c-2.49-.05-1.51.15-2.3.56a5,5,0,0,1-2.07.19c-.9,0-.48.05-.86.29a34,34,0,0,1-4.46.12c-.38,0-.78.1-.94.1-.8,0-.87-.16-1.91-.21-.88,0-.19-.42-2.75-.49-.1-.2.08-.07-.18-.45l.46-.19-.57-.18c.29-.44.69-.43,1.08-.56a8.2,8.2,0,0,1,2.73-.4c.35.12.07,0,.21.27.94,0,.85.35,2,.31a26,26,0,0,1,2.85-.08l.74-.13.2-.09a6.16,6.16,0,0,1,1.4-.11c.49.05-.45.07.23.09.33,0,.31-.17,1-.24,1.29-.15,2.45.3,3.12-.4Zm-1.71-9.2c-.25-.06-.19-.07-.22-.08l-.45-.21c-.34-.15-.4-.12-.62-.35-.44-.43-.34-.31-.33-.53,0-.48,0,0,.4-.47.23-.29,0-.37.58-.49a3.1,3.1,0,0,1,1.63.17l0,2a6.12,6.12,0,0,1-1,0Zm-5.42-4.86a32.28,32.28,0,0,0,1.58,3.17,25.1,25.1,0,0,1,1.44,3.07c-1.19.15-4.74-.07-5.38.23a8.4,8.4,0,0,1-.93.39c-.55.2-.56.09-.78.67-.16.43-.23.52-.73.65-.7.18-.46.22-.7.7a2.67,2.67,0,0,0-1,.38,5.9,5.9,0,0,1-1.38,1l-1.06.73c-.12.14-.15.22-.29.37-.42.45-.81.36-1.14.94l-1.08,1c-.37.27-.58.59-.2,1l0,0c.18.15.24.08.6.13.6.08.26-.1.4.2s.21.07.26.6a5.2,5.2,0,0,1,0,.82c-1,.07-.77,0-1-.15-.35-.2-.39,0-.8-.23-.17-.07,0-.05-.3-.09-.12,0-.35,0-.48,0-.07.22.12.08.1.17l-3.51.1c-.25.3-.45.93-.65,1.21l-.2.39-1.26,0a.94.94,0,0,1-.56.57,8.18,8.18,0,0,0-1.44.47c-.15.1-.07,0-.17.14.38,0,.54-.13.92-.06a3.69,3.69,0,0,1-1.69.31c-.1.34-.1.25-.28.48s-.1.18-.27.54c-.76-.36-.36.08-.82.05s.12-.15-.46-.08,0,.05-.53.24l.2.39,0,.05a1.53,1.53,0,0,1,.42,1.2c.28.12.15,0,.33.23a1.68,1.68,0,0,1,.28.57,1.22,1.22,0,0,1-.15,1.26c-1.36,0-1-.68-1.78-1.14h-.58c-.35.12-.45.66-.49,1-.27,1.85,1,1.11,1.26,2.16l.07.23a5.43,5.43,0,0,0,.4,1.31,6.26,6.26,0,0,0,1,0l1.05-.18c.81-.26,1.73-.05,2.51-.43l.95-.09c1.31,0,.8-.13,1.82-.38a4.15,4.15,0,0,1,.24-1.66c.35-.77.43-.37,1-.81l.37-.29c.25-.11.29-.07.62-.07l-.19-.17a1,1,0,0,0-.75-.18c.23-.29.09-.28,1,.18a1.47,1.47,0,0,1,.73.86c.09.17,0,.07.1.15.29.4,0-.15.08.1s0,1.88-.55,2.18l-.56.36c.12.57.6.75,1.08,1,.29-.13.48-.38.75-.43l.77.15c.39-.19.09-.16.54-.17a.53.53,0,0,1,.47.08l.05,0,.32.2a4.51,4.51,0,0,0,1,.57c1.25.51.55.56,1.27,1.08a2.39,2.39,0,0,0,1.9.32,9.22,9.22,0,0,1,1-.58c1-.29.76-.21,1.49-1a3.41,3.41,0,0,1,1.83.3c-.09.07,0-.17-.09.12a1,1,0,0,0,0,.83c.23.07,0,.05.36,0a25.32,25.32,0,0,0,2.67-2.05c.23-.18.36-.36.59-.56a6.07,6.07,0,0,0,.66-.57,7.55,7.55,0,0,1,.67-.57c.23-.2.4-.4.62-.62a52.48,52.48,0,0,0,6.69-7.85,50.74,50.74,0,0,0,2.78-4.44c.18-.3.29-.5.44-.8s.28-.48.44-.79a17.25,17.25,0,0,0,.76-1.61c.26-.6.58-1.15.79-1.77-.59.3-.81,0-1.43-.06l-4.46,0-1-.33c-.22-.55-.64-.4-1.5-.41-.21-.42-.23-.14-.29-.6.45-.23,0-.05.32-.09l1.14,0h1.52A13.19,13.19,0,0,0,467,531l-6.23,0V520.61l-.12,2.33c-.28.09-.13.07-.4.17a10.21,10.21,0,0,1-3.6.41l-.21.32c-.56.63-1.31,1.27-2.16.89Zm0,0" transform="translate(-365.89 -458.79)"/><path class="f" d="M407.65,552.23c.64-.11-.11-.18,1.1-.29l.56-.14c.76-.36,1.77-.05,2.57-.18.37-.06.15-.06.43-.17a9.35,9.35,0,0,1-.09,1.81,12.14,12.14,0,0,1-1.58.12c-.62.06-.2,0-.43.15-.48.28-.32.09-.65.4l-.15.14-.06,0c-.48.32-.17,0-.21.22a2.9,2.9,0,0,0-1.33.29c0,.15-.22.1.24.17-1.13,0-2.25,0-3.38,0a2.57,2.57,0,0,1-1.38-.32c-.6-.32-.4-.37-.35-1,.51,0,.18.06.76-.37s3.17-.61,4.11-.62c.07-.23.07,0-.05-.17-.21-.37,0,.16-.1-.1ZM451.55,531h-.87l-.36-.74-.35-.63s0,0-.06-.06v.9h-1.37l-1,.64a1,1,0,0,1-.18.1l-.19.1c-.71.42-.4.23-1.23.46-.48.14-.34.2-.6.5a33,33,0,0,0-4,.17,5.48,5.48,0,0,1-1.47.34,4,4,0,0,1-.07.81,1,1,0,0,0-.05.13l0,.07a.3.3,0,0,1,0,.07,1.69,1.69,0,0,1-.52.78,1.33,1.33,0,0,1-1.58.37l-.07,0-.55,0a8.63,8.63,0,0,0-1.63.29l-.37.09c-.84.06-.93.2-1.31.18-1.14-.08-1.88.11-2.9.12-.12.36.08.29-.44.49a2.19,2.19,0,0,1-1,.18c-2.29,0-1.11.2-2.26.5l-.41.17c-.66.48-.52.25-1.22.39s-.6.48-.76.81c-.89,0-1.78,0-2.66,0-2.2,0-1.7.3-2.21.48l.42.4c.09.07,0,.07.26.13a2.33,2.33,0,0,1,.26,0l0,.06-.08.12,0,0c-.52.44-1.21-.15-1.73.26a3.75,3.75,0,0,0-.5.65l0,.05-1.41.56c-.26.05-.55.07-.64.33l0,.07-.18.59c-.2.51-.28.38-.67.66l-.46.29c-1.18.75-1.66-.21-2.38.75a4.57,4.57,0,0,0-.3,1s0,0,0,.06c-.2.21-.82.14-1.12.15-1.23,0-1.23.25-3.42.29,0,.14-.05-.1.06.07s.1-.12,0,.08c-.49,0-.63,0-.95.2,0,.47.35.46.18.85s.05.07-.31.25l-2.63.95.12.25c-.39,0-.51.1-.87.13,0,0,.24,0-.23.29L402,549a.69.69,0,0,1-.08.11l-.65.6-.05,0c-.46.41-.21.51-1,.56l-.14.81.06,0,.25.14c.74.35,2.19,0,2.92.31-.17.51-1.23.32-2.1.75l.07,0,.21.09.17,0a6.67,6.67,0,0,1-1.87.12,1.81,1.81,0,0,1-.17-.75l-.3-.22a2.64,2.64,0,0,0-1.49.25,2.82,2.82,0,0,1-1.19.32c-.48.06-.56,0-.76.32l1.83.29c.47,0,1.47,0,1.69.28-.2.26-.27.18-.75.18-1.77,0-1.8.87-1.8.87l-.27.19a2.13,2.13,0,0,1-.89.36l.16.21c.39.7-.42.85-.75,1.1l-.1.08c-.19.12.24.07-.29.1l.26.23c.19.19.63.11.91.12a2.22,2.22,0,0,1,.15.7,12.62,12.62,0,0,0,2.47.19,2.31,2.31,0,0,1,1.24.1c.67.31,3,.1,3.94.16.47,0,.75.09,1.33.09,1.14,0,.81.3,1.7.39l1.77.22a3.37,3.37,0,0,0,.61.15c1.42.14.86-.35,2,.4l.25.14a2.24,2.24,0,0,0,.46.2,35.8,35.8,0,0,0,4,0,5.39,5.39,0,0,1,2.43.32c.59.23,3.2,0,4,.29l.43.15c.19,0,.46,0,.66,0a6.41,6.41,0,0,1,2,.44,8.45,8.45,0,0,0,2.59-.15,20.78,20.78,0,0,1,2.72,0c1.78,0,3.47-.07,5.32-.1,0-.15-.13-.07-.1-.17a3.23,3.23,0,0,0,.75-.3c.73-.34.29-.12.85,0a15,15,0,0,0,4.06-.21c.47-.1.36-.12.52-.47-.1-.05-.47-.19-.53-.23l-.35-.32c-.28-.17-.29-.08-.6-.17l-.39-.18a1.69,1.69,0,0,1-.82-.68,1.14,1.14,0,0,0-.89-.44c0-1.28-.39-.74-.58-1.32l-.15.07c-.48.2-1.36,0-1.82.3-.23.15.07-.12-.07.07l0,.12c-.29.32-2,.19-2.44.19-.67,0-1.55.35-2-.21l-.23-.63a1.34,1.34,0,0,0-.72.09c-.78.32-.37.15-1.93-.59-.29-.15-.32-.35-.63-.5a5.64,5.64,0,0,0-2.36-.32l-.79,1-1-.32-.17-.11-1.14-.4c-.26-.05-.24,0-.45-.1s.05-.14-.81-.51l-.13-.06a2,2,0,0,0-1-.12,2.9,2.9,0,0,0-1,.11,2.64,2.64,0,0,1-3,.25l-.21-.07-.22-.07-.9-.42a1.29,1.29,0,0,1-.46-.78c-.22-.55-.32-.08-.34-.78,0-.54.11-.46.2-.86-.07-.62.07,0-.27-.35l.12-.17c1-1.39-.41-1,1.91-1.69a1.41,1.41,0,0,1,.51-.05,7.53,7.53,0,0,0,2.4-.09c.2-.59,0,.15-.06-.42s0,0,.1-.41a4.19,4.19,0,0,0,.07-1.06c1-.42.56-.07,1.78-.18.56-.05.67-.3,1.51-.5.49-.11.38-.36.58-.76.53,0,1.08,0,1.61,0,.72,0,.46-.26,1.32-.27a1.92,1.92,0,0,0,.45,0,8.73,8.73,0,0,1,2.4-.4l.6-.59a14.22,14.22,0,0,1,1.92-1l.32-.18a1.88,1.88,0,0,1,1.11-.22c0-.61-.14-.1-.07-.32a1.74,1.74,0,0,0,1.21-.34l.19-.1a8.14,8.14,0,0,1,3.35-.95,2.89,2.89,0,0,1,.78-.83,3.27,3.27,0,0,1,1.21-.26s.1.18-.07,0-.15.25,0-.09.46-.27.64-.35l.7-.35c.38-.12.61-.38,1.09-.43,0-.72.09-.27.4-.72,0,0,0,0,0-.06l.56-.68.05,0,1.73-1.32.06,0,.05,0,.84-.78c.2-.23.7-.29,1-.47l2.27-1.82c.41-.18,1-.19,1.44-.35.18-.4.18-.87.47-1.14s.76-.1,1.23-.28Zm0,0" transform="translate(-365.89 -458.79)"/><path class="g" d="M391.17,467.06c-1.43.59-5,3.53-6.51,4.7-.2.16-.26.23-.46.4a3.37,3.37,0,0,0-.51.44c-.65.67-.78.53-1,1,.74.35.54.33.85.67l.42.36c.48.26.55-.12.87.35l.49.56c.23.12.13,0,.37.12l.45.22.07,0,.3.15c.32.64,0,.72.4,1.31l0,.06.31.44c.92,0,.83.07,1.17.84l0,.07.33.55c.67,0,.08,0,.57.26s.39.07.84.11c.8.05,0,.14.68.25.53.1.73-.09.92.35a12.88,12.88,0,0,1,.16,2.37c.23.1.06-.06.2.23.12-.4.15-.12.2-.54,0-.23,0-.49,0-.74a2.41,2.41,0,0,1,.32-1.2c.2-.46.33-.62.53-1l.35-.79a1,1,0,0,0,.05-.33l.95.18a7.18,7.18,0,0,1,0,1.12l-.3.66a3.07,3.07,0,0,0-.34,2.39c.35,3.26-.15,2.54-.22,4.47-.56.17.45-.26-.16-.1,0,.34-.09,1-.13,1.41-.12,1-.34.67-.44,1.08a2.07,2.07,0,0,0,.23,1.36l.07.24a7,7,0,0,1-.09,1h-.5a2.14,2.14,0,0,0,1.09.11l.4,0,.07-.58a3,3,0,0,0-.15-.55l-.15-.25,0-.05a.68.68,0,0,1-.17-.58c0-.4-.07-2.37.17-2.56s.29-.35.32-.78c.09-1.14,1-1.26.16-4.07a2.65,2.65,0,0,1,.23-2.16l0-.05c.06-.08.18-.21.21-.25l.4-.56a.18.18,0,0,1,0-.06l.5-.82c.4-.81.32-.4.92-.78a2.5,2.5,0,0,0,.66-.67l.79-.81,0,0c.3-.17-.07,0,.15-.07l.26-.1c.34-.05.37.45,1-.15.35-.32.23-.19.68-.17.1-.54.32-.19.29-1.3s0-.65.24-1.4c1.14.18.85.35,1.31.52a9.65,9.65,0,0,0,1.52.27c0,.15.1.06-.06.17s0,0,0,0c1,.07.51.78.58,1.78,0,.56.19.26.25.94,0,.39,0,.84,0,1.24a2.28,2.28,0,0,0,.3.8l.15.4.2.45a11.39,11.39,0,0,1,.23,1.47,11.7,11.7,0,0,1,.68,2.39c.06.7.66,1.15,1.08,1.63l0,.05.49.45c.14.21,0-.15.08.19.23.8,0,.18.67,1.16a1.64,1.64,0,0,0,.63.62,3.46,3.46,0,0,0-.42-2.52,6.86,6.86,0,0,1-.42-2.51,3,3,0,0,1,1.41-.14.15.15,0,0,1,.05.06s.08.1.1.11-.06,0,.16.13.11-.15.28.32c.08.24,0,.48.25.67.75.59,1.12-.53,1.44-.46v.06c0-.78.18-1.14.18-2a1.46,1.46,0,0,0,.59-.36l0-.05L414,481c0-.83-.32-2.52.65-2.78-.1-.21-.31-.23.13-.44l.35-.13a3.25,3.25,0,0,1,1.19-.24c.48-.05.3-.25.55-.35a6.85,6.85,0,0,1-.28,2.72l-.31.55,0,.07,0,.06-.39.75c-.34.48-.41,0-.47,1.35-1.09.91-.53.81-1.11,1.82l-1,1.91c-.31.7-.63.68-1,1.7l-1.47,3a6.6,6.6,0,0,0-.48,1c-.48,1.17-.2,1.64-1.17,3.41a3.46,3.46,0,0,0-.26,1.23,9.79,9.79,0,0,1-.23,1.32,3.45,3.45,0,0,0-.29,1.27c.05.15,0,0,.08.16a.49.49,0,0,0,.2.18,2.3,2.3,0,0,1,.15-1c.18-.41.17.12.2-.92l.37-2a3.65,3.65,0,0,1,1.25-.17,7.63,7.63,0,0,1,.59,3.43c-.06.61-.21.39-.28.4s0-.15-.15,0,0,.53-.77.55c.37.08.13,0,.26.15-.15.31-.09.62-.26.89s.07.18-.22.15l.68,1.23-.41.07c0,.34,0,.75,0,1.08a8,8,0,0,1-.83,2.09c-.31.32.29-.13-.12.09,0,1-.29.56-.59,1l-.06.12c0,.05,0,.13-.05.2l-.07.58c1,.36.76,1,.76,2l-.29,0h.9s.07-.07.07-.05l.21-.14c.1-.08.13-.05.18-.26a8.78,8.78,0,0,0,0-.91l.29-.23a1.25,1.25,0,0,1,.34-.24,2.36,2.36,0,0,0,.64-.35c0-.47-.08-1.14.19-1.46s.08-.05.23-.17l.05,0,.05,0,0,0c.4-.45.17-1.64.34-2l.15-.23c.18-.35.07-.53.14-1s.11-.2.09-.45a5,5,0,0,1-.17-1c.08-.83,0-1.55.08-2.46a5.35,5.35,0,0,0,1.64-.43c.5-.34.06-.39.35-.64.13-.11,0,0,.26-.09.43-.21.32-.36.32-.36l.07-1.59c-1-.26-.12-1.71.09-1.85a1.56,1.56,0,0,1,1-.32c.61,0,.12,0,.57-.1a2.8,2.8,0,0,1,.71-.07c0-.26.13-.3.19-.5-.67-.51-.18-.64-1.29-1.09-.55-.22-.07-.21-.84-.28l-.12.1-.05.05c-.22.25-.42.32-.46.56l-.19-.63a2.88,2.88,0,0,0-.85,1.23c-.29.73,0,1.52-.23,2.26l-.15.48-1.14.06-.09,0c.26-.2,0-.82-.19-1l-1.24,0c-.19-.42.23,0-.19-.19a13.32,13.32,0,0,1,.27-2.81c.1-.23.09-.12.23-.31.26-.34.4-1,.68-1.41.1-.14.09-.08.13-.12.52-.51.2-1.32.68-1.8l.1-.07.05,0,.06,0c.23-.15.29-.13.36-.44l0,.07c.1,0-.43.25.12,0s.56-1.36.68-1.75.4-.66.58-1.13c.29-.79.35-1.06,1.06-1.52l.29-.15,0-.86c.3,0,.43-.73.59-1l.35-.51a.3.3,0,0,1,0-.07l0-.07.6-1.2a3.76,3.76,0,0,1,.61-1.09l.05,0,.05,0c.11-.09,0,0,.18-.12l.38-.18a.68.68,0,0,0,.37-.46c-.21-.19-.19-.25-.56-.29s-.58,0-.84-.11c-.49-.26-.21-.85-.41-1.17s.29.28-.15-.12c-.18-.15-.05,0-.19-.23a1,1,0,0,1-.25-.74,18.34,18.34,0,0,1,.08-3.47,2,2,0,0,0-.26-.11l-.69-.61,0-5.91c.38-.32.44-.51.43-1.12l-.15-.08-.05,0c-.21-.12-.29-.13-.7,0-.59.22-.34.62-.62,1-.51.78-.15,2.58-.3,3.66a22.46,22.46,0,0,1-.11,2.66c-.13.45-.12.23-.21.46a1.12,1.12,0,0,0-.11.52c0,.47,0,1,0,1.47-.34,0-.51.16-.35-.35-.21.36-.33,1-.51,1.39h-.79s0-.09,0-.07a2,2,0,0,1-.4-1.24c-.24-.18,0,.17-.39-.16-.18-.15-.08-.09-.27-.2s-.44-.06-.47-.84c0-.2,0-.38,0-.59-.66-.4-.86-.23-1.22-1.55a.78.78,0,0,0-.07-.2l-.11-.28a4.87,4.87,0,0,1-.11-.66,5.92,5.92,0,0,0-.18-1.21l-.64.23a3.87,3.87,0,0,0,0,2c.08.57-.11,1.12.24,1.43l.1.07.06,0,.3.17a3.14,3.14,0,0,1-.95,2.52l-.05.05-.05,0-.76.46c-.19-.17-.15-.23-.23-.53-1,0-.91.23-1-1-.15-1.85.32-2.67.15-4-.1-.72,0-1.24-.18-1.9-.09,0-.2.08-.29.13l-.23.18,0,1.72h0l-.12,0c-.11.09.11,0-.24.26,0,0,0-.07-.05-.05s0,0,0-.05l-1-.74c-.16.26-.1.21,0,.45-.62,0-.3,0-.61.25s-.32.2-.5.42a2,2,0,0,0,.57.78l.24.08c.07.62.52,1.14.23,1.63s0,.1-.46.26a1.23,1.23,0,0,1-.32.87l-1.23,0c.06-.32.1-.12,0-.4l-.23-.34c-.34-.38,0,.15-.37-.37-.41.12.09,0-.37.16a1.55,1.55,0,0,1-.67-1.33,16.8,16.8,0,0,1-2.18-.2l-.3-.56c-.16-.19-.34-.18-.39-.5a2.12,2.12,0,0,1,.15-1.17l.18-.34-.24-.29c-.29-.2-.24,0-.5-.31-.23.2-.07.23-.44.29-1.32.21-.6-.19-1.63.7v2.28c-.22.12-.48.14-.64.29-.4.36.17.28-.59.35,0,1-.29.62-.55,1.13-.86,0-.64-.35-.86-1l-.48-.48-.1-.09-.16-.12c-.26-.21-.13-.07-.22-.23-.17-.36-.07-1-.29-1.3a5.61,5.61,0,0,1-.25-1.69Zm0,0" transform="translate(-365.89 -458.79)"/><path class="e" d="M435.51,520.35l-.21.28-.23.22-1,1.11a.79.79,0,0,1-.18.12l-.51.25-.06,0-1.25,1.31c-.44.26-.68.62-1.18.82a.92.92,0,0,0-.32.15l-.34.16c-.76.31-1,.7-1.66,1l-.66.46-.06,0-.39.37c-.32.34-.82.41-1.18.71l-.1.09c-.32.22-.44.13-.84.25l-.12,0-.06,0c-.62.34-.29,1.78-1.89,2.13l-2.69.9-.07,0c-.23.12-.1.1-.33.32-.41.38-.13,0-.32.27l-1,1.19a1.08,1.08,0,0,1-.7.32,7,7,0,0,0-.85.14c0,1.21.32.77.55.71l.46.05c-.22.25-.54.35-.78.61l-.16.21a2,2,0,0,0,0,1.4c.17.45.57.4,1,.59.13.07.1.14.4.09a13.36,13.36,0,0,0,2.51-.64l.12-.24a16.61,16.61,0,0,1,2.18-.28,10,10,0,0,0,1.23,0c.4-.06.45-.31.87-.37,1.08-.17,1.17.21,2.15-.32.43-.24.52,0,.85-.38l.51-.72a20.35,20.35,0,0,0,4-.1,1.76,1.76,0,0,1-.82-.1,8,8,0,0,0,2.66-.38l.54-.22c.48-.15.13-.14.5-.26.56-.17.69.05,1.31-.25l.67-1.37,1.55-.16,1.3-.59a14.65,14.65,0,0,1,3.42-.2l1.17-1.38.81-.14,1,0c.26-.42,0-.2.56-.38s.12,0,.31-.42c.29,0,.76.07.89-.17l-1-2.14c-.21.35-.15.22-.59.14a4.55,4.55,0,0,1-.66-.14c-.35-.1-.57-.12-.59-.37s.13-.16.16-.08l-1.11-.4c-.14-.61-.21-.33-.3-1,.23-.17.25-.1.27-.48.42.11.24-.29.38.19.15-.23.07-.22.05-.25l-.24-.42c.45,0,.21.06.29-.09.55,0,.62-.11,1,.19l-2.19-4.51c-.23.23.13.09-.37.17a1.6,1.6,0,0,1-1.44-.4c-.4-.43-.42-.18-.86-.37-.18-.74-.14-.87.31-1.35l0,0,.18-.2a1.33,1.33,0,0,1,.85-.53l-.47-1c-.7,0-.73.17-1.21.58l-.05,0-.53.61a3.65,3.65,0,0,1-.79.92L438.47,518c-.87.3-.71.63-.9,1.92a5.67,5.67,0,0,1-2.06.42Zm0,0" transform="translate(-365.89 -458.79)"/><path class="d" d="M443.49,503.16l1.21,2.43a1.09,1.09,0,0,1,.86.34l.26.23.2-.38,2.74,0,1-.49a6.4,6.4,0,0,0,.29-1.9l.12-.1c.48-.39.26-.34.52-.71a1.06,1.06,0,0,1,.19-.2c.6-.59,0-.41.73-1.53l.53-.84s0-.05,0-.07a5.23,5.23,0,0,0,.67-.09,2,2,0,0,1,.63,0s.06,0,.08,0c.45.25.36,1.22.34,1.57l-.18.13a1.19,1.19,0,0,0-.51.91,1.2,1.2,0,0,1-.1.37,5.81,5.81,0,0,0-.1,1,4.3,4.3,0,0,1-1.12,2l-.17.31c-.31.5-.16.64-.23,1.38a2.29,2.29,0,0,0-1.53.6c-.06,1.2,0,.9-.43,1-.73.17-.18,0-.94.38a1.83,1.83,0,0,0-.42.23l-.67.63c-.2.26-.13,0-.21.41,0,.24,6.62,13.58,7,14,.85.38,1.6-.26,2.16-.89l.21-.32a10.21,10.21,0,0,0,3.6-.41c.26-.1.12-.08.4-.17l.12-2.33,0-19.08a.5.5,0,0,0,0,.07l-.08.22c-.08.23,0,.06-.1.29h-1.33a4,4,0,0,0-.72,1.57,1,1,0,0,0-.39.05l-.35.13a6.63,6.63,0,0,1-.94,0c.18.15,0,0,.23.12l.49,0c-1.47,0-1,.3-1.67.39-1.87.22-1.5-1-1.3-2.26a19.61,19.61,0,0,0,.12-2l.19-.15,0-.05.07-.12a.15.15,0,0,0,0-.06l0-.07a3.81,3.81,0,0,1,.92-1.37l.08-.1c.66-.84.51-.52.95-.87l.45-.39c.39-.46-.37.07.59-.55,0-1.33-.1-.66-.85-1-.22-.1-.11-.09-.16-.18-.46,0-2,.34-2.81.38-.06.58-.18.44-.26.81s.1-.18,0,.25l-.67.9c-.13,0-.31.28-.83.64s-.23.15-.42.47-1.12.32-1.34.44c-.61.34-.27.9-.51,1.49l0,.06,0,.07,0,.06-.05.1c-.34.6.05.75-.32,1.3-.38-.14,0-.27-.75-.29-.13,0-.48,0-.57,0-.28-.05-.18.06-.26-.18-.32.12-.13.11-.37.24l-.07,0-.33.13c-1.17.36-.85-.38-1.82-.43a4.85,4.85,0,0,0-.67,0c-.26.06-.2.13-.44.21-.84.3-.43-.17-.7.82-.09.32.13,0-.11.21s.05,0-.18.11Zm0,0" transform="translate(-365.89 -458.79)"/><rect class="h" x="187.57" y="34.21" width="6.36" height="38"/><path class="i" d="M400,488.11a3.5,3.5,0,0,1,0-2.37c1.3,0,1.49-.14,1.76.27a1.25,1.25,0,0,1,.13.26c.5,1.31.1.71,0,.73a12.4,12.4,0,0,1-.12,3.08c-.51-.05-.14,0-.36-.15a4.66,4.66,0,0,1-.89-1.51c-.18-.39,0-.1-.52-.31Zm-6.24,4.11a15.14,15.14,0,0,0,2.76.51,21.07,21.07,0,0,0,2.65.62c.14-.24.07-.43.07-.73-.51-.37-.19-.2-.78-.34l-.26-.08c-.21-.21-.07-1.43,0-2.28,0-.56,0-.25-.11-.45s-.09.22-.16-.45c0-.33,0-.89,0-1.25a.56.56,0,0,1-.23-.23c-2.29-.08-1.75.28-1.64-.72h-.19c0-.63.06-1.5,0-2,0-.1,0-.78-.07-.95s-.23-.65,0-.75.11-.11,1.3-.11l.55,0,.08,0,.07,0,.51.26-.19,1.39.26,1c.15.35-.17-.34.07.12l.17.32c.2.38.23.46.5.55l0-.62a1.65,1.65,0,0,1,.39,1.17c.24,2.28.42,1.45.78,2l1.08,2.54c.18.4,0,0,.26.38a7.44,7.44,0,0,1,.56,2.26l4.74,3.2a3.78,3.78,0,0,0,.07-1.48c0-1.47.24-.62.29-1.42a3.25,3.25,0,0,1,.08-1.08c.24-.76.49-1.22.3-1.68l.1,0,0,0,.13-.21c-.37-.2-.34-.46-.7-.6l-.05,0-.12,0h-.06c0-.51-.33-2.45.06-2.88a1.34,1.34,0,0,1,.19,1c.35.18.32,0,.59.27s.13.41.37.57c.42.29,1.14,0,1.45-.15a14,14,0,0,0,.4-1.9c.15-.07.07.34.5-.64l.35-.68c.14-.35.13-.25.57-.59s-.2-.15.42-.22a3,3,0,0,1,0,1.41c-.15.43-.48.48-.69.92a1.76,1.76,0,0,0-.2.83c0,.65-.08.41-.32.75s-.09.26-.45.61l-.1.09c-.2.22-.13.26-.23.6l-.41,1.77c-.17.7-.15.28-.39.67s-.05.5-.2.86-.07-.16-.29.84l-.18.58a1.47,1.47,0,0,0,0,.26,8.28,8.28,0,0,1-.35,1.75c-.1.48-.21.47-.21,1,.15.26.11.23.38.38a3.45,3.45,0,0,1,.29-1.27,9.79,9.79,0,0,0,.23-1.32,3.46,3.46,0,0,1,.26-1.23c1-1.77.69-2.24,1.17-3.41a6.6,6.6,0,0,1,.48-1l1.47-3c.37-1,.69-1,1-1.7l1-1.91c.59-1,0-.91,1.11-1.82.06-1.31.13-.87.47-1.35l.39-.75,0-.06,0-.07.31-.55a6.85,6.85,0,0,0,.28-2.72c-.25.1-.07.29-.55.35a3.4,3.4,0,0,0-1.19.23l-.35.14c-.44.21-.23.23-.13.44-1,.26-.65,1.95-.65,2.78l-1.33.28,0,.05a1.46,1.46,0,0,1-.59.36c0,.86-.15,1.22-.18,2v-.06c-.32-.07-.69,1-1.44.46-.24-.18-.17-.43-.25-.67-.17-.48.08,0-.28-.33s0,0-.16-.12-.09-.07-.1-.11a.15.15,0,0,0-.05-.06,3,3,0,0,0-1.41.14,6.89,6.89,0,0,0,.42,2.51A3.46,3.46,0,0,1,409,488a1.64,1.64,0,0,1-.63-.62c-.66-1-.44-.35-.67-1.16-.1-.35.06,0-.08-.19l-.49-.45,0-.05c-.43-.48-1-.93-1.08-1.63a11.7,11.7,0,0,0-.68-2.39,11.39,11.39,0,0,0-.23-1.47l-.2-.45-.15-.4a2.28,2.28,0,0,1-.3-.8c0-.4,0-.85,0-1.24-.06-.68-.21-.38-.25-.94-.07-1,.4-1.71-.58-1.78,0,0-.13.13,0,0s.1,0,.06-.17a10.6,10.6,0,0,1-1.52-.27c-.46-.17-.18-.35-1.31-.52-.2.75-.29.2-.24,1.4s-.18.75-.29,1.3c-.45,0-.33-.15-.68.17-.65.59-.68.1-1,.15l-.26.1c-.22.09.15-.1-.15.07l0,0-.79.81a2.43,2.43,0,0,1-.66.68c-.6.38-.51,0-.92.78l-.5.83a.18.18,0,0,0,0,.06l-.4.56s-.15.17-.21.25l0,.05a2.65,2.65,0,0,0-.23,2.16c.87,2.8-.07,2.93-.16,4.07,0,.43,0,.53-.32.78s-.17,2.16-.17,2.56a.68.68,0,0,0,.17.58l0,.05.15.25a2.86,2.86,0,0,1,.15.55l-.07.58Zm0,0" transform="translate(-365.89 -458.79)"/><path class="j" d="M374.61,520.33v-.2c.22,0,2.26-.59,3.23.28l0,0c.26.25.2.29.23.57.12,1.16.34-.37.29,2.81l-.22.1c.5.82,5.26,2.73,6.69,2.66,0-.17,0-.26,0-.39-.17-.64-.33.19-.3-2.13a1.71,1.71,0,0,1,.14-.87,12.17,12.17,0,0,0,0-2.79s-.09-.26-.11-.28l-.32-.23c-.11-2.18.14-2.27.12-3.81,0-.16,0-.49,0-.64-.09-.41-.26-.21-.13-.42-.38.19-.88.29-1,.45l-.13.29c-.71.07-.28.21-1.17-.09-.17-.05,0-.08-.43-.08.06-.21.22-.35.15-.58a1.22,1.22,0,0,0-.27-.35c-2.08,0-1.14.07-1.41-.22l-.68-4.87h3.52c.25-.25-.3-.18.29-.21V508.2c-.76-.07-.1-.37-.93-.59,0-.34.09-1.17-.11-1.32s-1.08.08-1.17-.28l0-.1s0-.05,0-.1a.59.59,0,0,1,0-.19l0-1.32c1.46.34,1.52-.46,1.8,0v-2a1.07,1.07,0,0,1-.9-.55l-.09-.3a.1.1,0,0,0,0,0c0-.06-.13-.17-.2-.29l0-.07c-.26-.5-.1-.47-.35-.84s.15-1.44-.22-1.58c-.9,0-3.46,1.88-4.33,2.66-.2.19-.3.34-.51.53a13.06,13.06,0,0,0-3,5.15,17.78,17.78,0,0,0-.58,7.39,15,15,0,0,0,.79,3.29,8,8,0,0,0,1.44,2.68Zm0,0" transform="translate(-365.89 -458.79)"/><path class="k" d="M415.73,491.13c.78.07.29.06.84.28,1.11.45.62.59,1.29,1.09,0-.36.32-.37.1-.74a2,2,0,0,1-.36-.73c.34,0,.24,0,.33.45.1-.14,0,0,.09-.22l.15-1,.8,0c.26-.09,0,0,.19-.11l.29-.28c.14-.14.2-.23.33-.34.53.4.63.28.81.64l.32.46a2.13,2.13,0,0,0,1.41.59s0-.09,0-.07l.06-.14a1.26,1.26,0,0,1,.81-.61c.22-.09.29-.15.39.39s-.11.27.07.43c.34.29.8-.35.85.13a10.62,10.62,0,0,1,.12-2.19c.26-.07.27.07.28.1l0,.06c0-.25.15-2.46.2-2.56a.3.3,0,0,1,.3.1l.12.27c.23.72,0,1.19.3,1.77.1.2,0-.11.14.38.21.86.25,2.7.46,3.82a.05.05,0,0,1,0,0l.34-.43,0-.07a1,1,0,0,0,.41.84l.14.08.07.08c.18.17.07.15.39.23a11.63,11.63,0,0,0,.59-1.88,13.66,13.66,0,0,0,.18-2.28c0-.16,0-.43,0-.58.07-.71,0-.08.13-.39.18-.51-.07-2.08.44-3.22a2.32,2.32,0,0,1,.72.05c.33.1.2.07.34.24.52.65.22,2.23,1.08,2.51a2.37,2.37,0,0,0,1.28.06c.15-.35.07-.7.2-1a7,7,0,0,0,.26-1c.18-.56,1.14.54,2.17-.1l.18-.1c.86-.54.55-.8,1-1.2a1.16,1.16,0,0,1,.52-.23c-.13-.33-.27.07.05-.61l.27-.49a2.28,2.28,0,0,1,2.59-.21,4.33,4.33,0,0,1,.4.35l-.08,0c-.2,0-.34.05-.43.23l-.54,1.17c-.2.37-.2.87-.52,1.19l-.53.33c-.56.46-.59,1.72-1.09,2a4.22,4.22,0,0,0-1.39,1.3c-.39.5-.23.28-.36,1a3.3,3.3,0,0,1-.58,1.37l-.15.12c-.15.14-.11,0-.23.25.16.37-.22.1.33.3l3.72,0c-.34-.33-2.21,0-3-.15-.21,0-.14,0-.24-.08l.23-.39c.47-.56-.12.19.13-.15l.22-.35c.1-.17,0,.1.1-.18l.43-1.38c.17-.48.06-.2.4-.48s.17-.34.86-.85c.39-.29.34-.34.41-.53.32-.79.79-.4,1.42-1s.13-.22.43-.89l.23-.33,0,0c.32-.24-.05.15.26-.32s.23-.19.56-.34,0-.26.46-.37a.84.84,0,0,1-.43-.33c.89-.8.35-1.24.85-2.28l.29-.18c.07-.64,0-.23.24-.6a10.47,10.47,0,0,0,.37-1.16l.24-.44.62,0c.29-.47,0-.31.59-.57a1.42,1.42,0,0,1,.78-.24c0-.56.28-.57.6-.92l.33-.35c.22-.16.32-.12.5-.34l.31-.53c.18-.28.62-.35.78-.65l.16-.9c.37-.2.22,0,.54-.31s.7-1.14.29-1.6c-.37,0-.23-.07-.42.34-.27.56-.21.29-.59.64l-.09.1,0,.05c-.32.38-.5.21-.89.53s-.19.21-.33.33l-.43.34a2.93,2.93,0,0,1-.9.53c-.42.21.11.22-.56.21l-1.2-.23c-1.07-.28.12-.41-.86-.5-.71-.07-.23-.37-.89-.44a.3.3,0,0,0,0,.07l-.37.58c-.95.6-.53,1.28-.59,2.42l-.43,0a5.81,5.81,0,0,1-.12.67c-.1.71,0,1.43,0,2.15-1.1,0-.77.29-1.17-.56a.15.15,0,0,0,0,.07l-.22.22-.23,0h-1l0,1.29c-.37.14-.42.5-.59.87l-.27.75c-1.07.15-.36.73-1.41.59s-.68-.73-.76-1.55c0-.42-.12-.33-.17-.68s0-.49,0-.74a5.1,5.1,0,0,0-.15-.7c-.06-.23,0-.09-.1-.28-.23-.4-.27.07-.41-.5l-.26-3.65c0-1,0-2.09,0-3.13.07,0-.15-.05.15.3a10.16,10.16,0,0,1,.27-1.65,8.34,8.34,0,0,0,0-.95l.09-.65c0-.23-.52-.38-.73-.48.22-.14.45-.14.64-.29l-.42-.2c-.24-.12,0,0-.26-.16.42-.06.18,0,.46-.4s-.07-.37.23-.9,1-.47,1.63-.48l0-.65a3.44,3.44,0,0,1-1.16-.13c.05,0,0,0,0-.1s-.21-.15,0-.06c.29-.29-.4.18.17-.09l.68-.4c1.1-1,0-1.25.62-1.95.2-.22.26-.06.34-.57,0-.23,0-.62,0-.87,1.83-.35,1,.37,1.83-.15l.06,0,.06,0,.12-.07.07,0,.07,0s.06,0,.07-.05.05,0,.07,0c-.07-.18,0-.32-.15-.23l.06-.05.23-.1-7.41-2.18c-.37.42.29.5-.1,1.72-.34,1-.11.26-.4.81-.1.2-.05,0-.08.31s0,.95-.05,1.33c.14-.12-.09-.1-.26-.14a2.79,2.79,0,0,1-.18.91c-.07.33,0,.73-.07,1.08a13.06,13.06,0,0,0,0,3.26,2.24,2.24,0,0,1,.15,1.35l-.21.37a1.34,1.34,0,0,0,.21,1.66c.95,1,.37,1.44.4,2.73,0,.79.13.51.28.92a10.5,10.5,0,0,1,0,3.48l0,.05c-.14.2-.4.4-.43.67a2.71,2.71,0,0,0,.43,1.13c.15.22,0,.2.33.26-.2.06-.12,0-.18.32.24.21.38.21.36.6a16,16,0,0,0-2.68-.1l-.41.23-.06.06-.06.06v9s.28,0-.25-.15a1.3,1.3,0,0,0-.48,0,8.6,8.6,0,0,0-.27-1.08,11.13,11.13,0,0,1,0-1.4c0-.87-.1-1.85-.13-2.85,0,0,0-.06,0,0l-.14-.71s-.06,0-.07,0l-.09,0c0-.72-.1-1.58-.13-2.43a3.54,3.54,0,0,0-1.08-.34,1.63,1.63,0,0,0-1.19.4,7.9,7.9,0,0,1-.48,3.59c-.13.46-.43.62-.61,1.09-.08.21,0,.75-.15.88l-.2.7a3.26,3.26,0,0,1-1.1-.15c0-.46.1-.17-.07-.56l-.06-.13c-.16-.33,0-.24-.31-.43l-.18.53c.15-.33-.37-.31-.59-.49l-.09-.1,0-.05-.46.35,0,0c.05.23,0-.23-.23,0s-.12.42-.48.75l-1.44.92-.06,0-.23.26,0,.05c-.19.2-.55.23-1.18.23Zm0,0" transform="translate(-365.89 -458.79)"/><path class="f" d="M422.08,522.56a38.32,38.32,0,0,0-2.09,4.21c-.64,1.35-1.5,2.9-2,4.24l-6.71,0,.19-.45c-.54.06-.61.29-.83.64a.16.16,0,0,1,0,.06c-.8,1.13.21.7-.75,1.24-.39.22,0,.1-.59.19s-.66.32-1.11.39c0,.64,0,.9-.65,1a1.23,1.23,0,0,1-.34.88,1.1,1.1,0,0,1-.15.15c-.41.35-.13.21-.68.84-.17.2-.12.18-.19.45-.16.7,0,.36-.54.67a6.93,6.93,0,0,1,0,1.5h1.59c.2-.45-.13-.81,1.1-.87-.21-.52.15.39,0-.2s-.17.26-.07-.13a4.46,4.46,0,0,0,1.28-.43l.58-.18.11-.07a2.66,2.66,0,0,1,1.72-.48,6.29,6.29,0,0,1,.59-1l.31-.26a.91.91,0,0,1,.22-.07,3.84,3.84,0,0,1,.8-.08c.34-.5.73-.37,1.27-.61l.32-.16A.87.87,0,0,0,416,533c.48,0,.7-.13,1.14-.16l.1-.31c.46,0,.79,0,1-.39.12-.18.05-.12.16-.32a2.51,2.51,0,0,1,1.05-.85l.48-.29.07,0,2.23-1.18.07,0,.89-.45c.18-.1.41-.27.58-.37.43-.27.2-.18.48-.48s.43-.27.66-.56a1.75,1.75,0,0,1,1-.49c.41-.11.45-.27.74-.47l2.65-1.91c.5-.35,1.71-.66,1.91-1l.89-1a5.47,5.47,0,0,0,.88-.55c.2-.19.55-.26.79-.44.86-.65.55-.67,1-1.11a.8.8,0,0,1,.81-.23c0-.33-.16-.07.26-.26l.95-.18c-.36-.07-.18.08-.23-.32,0,0,0-.34,0-.35.06-.23,0-.06.09-.19l.12-.17,0-.05a.4.4,0,0,1,0-.06l.09-.1c.12-.15,0,0,.14-.14.32-.33.23-.61.23-1.25l-1.6-.69c-.92-.37-.6-.32-.92-.59a3.56,3.56,0,0,0-.5-.27,1.78,1.78,0,0,0-1.22.13v.05l.09.22c-.53,0-.21,0-.46.21l0,.05c-.65.6-1.31-.12-2.46.48l-.07,0-.05,0c-.53.32-.46.06-1.06.37-.06.19-.07-.07.06.13.29.46-.07-.29.1.12l-.59.27c-.22.17-.18.18-.23.29-1.06.05-.49.45-1.14,1l-.11.08-.05,0-.73.44c-.4.4-.21.05-1.11.2-.61.1-.26.21-.27.26-.5,0-.76.19-1.25.21.15.13-.14.07.35.16-.65,0-.2-.07-.37.21l-.15.42a.65.65,0,0,0-.06.13l0,.07c-.32,1,.07.33-.63,1-.53.51-.07.07-.64.37Zm0,0" transform="translate(-365.89 -458.79)"/><path class="i" d="M417.86,492.51c-.06.2-.15.24-.19.5a2.8,2.8,0,0,0-.71.07c-.45.13,0,.11-.57.1a1.56,1.56,0,0,0-1,.32c-.21.14-1,1.59-.09,1.85l-.07,1.59s.11.15-.32.36c-.26.13-.13,0-.26.09-.29.25.15.3-.35.63a5.15,5.15,0,0,1-1.64.44c-.1.9,0,1.63-.08,2.46a5.06,5.06,0,0,0,.17,1c0,.25,0,.11-.09.45s0,.61-.14,1l-.15.22c-.17.41.06,1.6-.34,2.05l0,0-.05,0-.05,0c-.15.12,0-.09-.23.17s-.19,1-.19,1.46c.22-.16,0,.07.19-.4l0-.07c.28-.61.18-.21.43-.45s0-.13.26-.45l1-1.14c.29-.38.06-.1.2-.56.2-.69.16-.18.24-.2.07-.32.14-.29.19-.59s0-.51,0-.73a1.6,1.6,0,0,1,.24-.52c.21-.29.26-.18.49-.37.4-.35-.07-.3,1-.52.84-.17.64-.33.94-.65s.18,0,.4-.38a1.43,1.43,0,0,1,.46-.68c.4-.38.56-.12.82-.62,0,0,.05-.13.06-.14l.1-.27.53-1c.35-.3.32.21.48-.38.72-.12.06-.18.06-.19.73-.31.64.2,1.86-.36.4-.18.41-.09.69-.45a1.68,1.68,0,0,0,.3-.62c.72,0,.48-.07.75-.2l.07,0,.07,0c.49-.14.53.1.84-.32a4.59,4.59,0,0,0,.12-1.55c.43-.26.42-.2.49-.83l.65-3.45c0,1,.13,1.8.2,2.67a23,23,0,0,0,.07,3c0,.09.27.06.42.36s-.06.31.45.81l.22.26c.09.17-.28-.07.05.11.12.07.14,0,.34.05-.14.38-.29-.11-.18.26a3.66,3.66,0,0,0,1.33-.08L430.3,493h4.33c-.55-.2-.17.07-.33-.3.12-.23.08-.11.23-.25l.15-.12a3.26,3.26,0,0,0,.58-1.37c.13-.72,0-.5.36-1a4.22,4.22,0,0,1,1.39-1.3c.5-.3.53-1.55,1.09-2l.53-.33c.32-.32.32-.82.52-1.19l.54-1.17c.1-.18.23-.2.43-.23l.08,0a4.33,4.33,0,0,0-.4-.35,2.28,2.28,0,0,0-2.59.21l-.27.5c-.32.68-.18.27-.05.6a1.16,1.16,0,0,0-.52.23c-.44.4-.13.67-1,1.2l-.18.1c-1,.65-2-.46-2.17.1a7,7,0,0,1-.26,1c-.13.34-.06.69-.2,1a2.43,2.43,0,0,1-1.28-.05c-.86-.29-.56-1.87-1.08-2.52-.14-.17,0-.14-.34-.24a2.33,2.33,0,0,0-.72,0c-.51,1.14-.26,2.7-.44,3.22-.11.31-.07-.32-.13.39,0,.15,0,.42,0,.58a13.86,13.86,0,0,1-.18,2.29,11.79,11.79,0,0,1-.59,1.87c-.32-.08-.2-.06-.39-.23l-.07-.08-.14-.08a1,1,0,0,1-.41-.84l0,.07-.34.43a.05.05,0,0,0,0,0c-.21-1.12-.25-3-.46-3.82-.12-.48,0-.18-.14-.37-.32-.59-.07-1.05-.3-1.77l-.12-.27a.3.3,0,0,0-.3-.1c-.05.11-.2,2.32-.2,2.56l0-.06s0-.17-.28-.1a10.62,10.62,0,0,0-.12,2.19c-.05-.48-.51.16-.85-.13-.18-.15,0,0-.07-.43s-.17-.47-.39-.39a1.26,1.26,0,0,0-.81.61l-.06.14s0,.05,0,.07a2.13,2.13,0,0,1-1.41-.59l-.32-.46c-.18-.36-.29-.23-.81-.64-.13.11-.19.2-.33.34l-.29.29c-.19.13.07,0-.19.1l-.8,0-.15,1c0,.23,0,.08-.09.22-.09-.41,0-.43-.33-.45a2,2,0,0,0,.36.73c.21.37-.07.38-.1.74Zm0,0" transform="translate(-365.89 -458.79)"/><path class="j" d="M373.32,485.26a2.78,2.78,0,0,1,.43.09c.75.25.4.36,1.47.36l.19.45a1.4,1.4,0,0,1,.75.1l.1.08c.34.36-.2-.35.08.11.13.21,0,0,.08.2l.36.6c.21.28.27.15.46.48s.09.45.32.73-.07,0,.2.07l.13.48s0-.08,0-.06,0-.05,0-.06c.21-.29,0-.1.06-.09a8.17,8.17,0,0,1,.28,3c0,.43.1.6.11,1,0,0,.06,0,.07,0s.42.09.3.58a.32.32,0,0,1,0,.08l-.07.15,0,.08c1.18-.25,2.29-.74,3.64-1a37,37,0,0,1,3.9-.58l.26-.23c.44-.35-.07.21.23-.21a.94.94,0,0,1,.1-.18l.29-.31c.2-.14.12-.07.33-.15-.15-.4-.38-.51-.19-1.07l.06-.14c.31-.69.39-.46.76-.71s0-.28.59-.36c0-1-.21-2.34.57-3l.1-.08c.1-.11,0,0,.11-.23l.1-.29a7.77,7.77,0,0,0,.1-1.59c.09-.48-.07-.16.18-.36.06-.06-.26-.23,1.11-.19v1.22s-.07,0-.08.06l-.1,0a19.72,19.72,0,0,1,0,2.09l-.35,1.86c-.18.53,0,1.31-.13,1.95-.1.45,0,0-.15.35-.09.15-.13.21-.21.37a1.73,1.73,0,0,0-.25.89l.21.2h.52c-.11-.12,0-.15-.21-.2.15-.5.06-.41.31-.68,1.28-1.39.47-.76.62-2.93,0-.7.22-1.14.29-1.89a16.72,16.72,0,0,1,.35-1.83c.06-.37,0-.75.08-1.08s.2-.45.26-.78a12.88,12.88,0,0,0-.16-2.37c-.18-.45-.39-.26-.92-.35-.68-.11.12-.2-.68-.25-.45,0-.49.1-.84-.11s.09-.25-.57-.26a.87.87,0,0,0,.58.82v1.18c-.56.19,0-.08-.26,0-.2.43.07.35-.42.41-.84.05-.87-.23-1-.4a3,3,0,0,0-1.71-.83c-.59-.12-1-.71-1.54-1a1.45,1.45,0,0,0-1.17,0c0,.18,0,.48,0,.64,0,.48-.05.15.21.49l0,0,.29.23.18.1.4.26c.12.09.06,0,.17.13a2.65,2.65,0,0,1,.34,1.22c.4.19.56-.17.56.9l-.32.12c.29.07.14,0,.32.16-.37.32-.31.16-1.08.18s-.1.18-.92.18v.81c.42.23.12.28.95.29l-.37.21c.1.05.09,0,.17.07a.56.56,0,0,1,.21.12c0,.46-.07.68.08.93-.47.42-.92.47-1.17.76a2.12,2.12,0,0,0-.35,1.35,2.21,2.21,0,0,1,.15,1.88c-.13-.23-.09-.38-.1-.72l-.36.76h-.75l-.66-1.17a.25.25,0,0,1,0-.07l-.07-.12a2.74,2.74,0,0,1-.23-.7l-.23-.45c-.56-.79-.1.15-.57-1a6,6,0,0,1-.33-2.93l.26-.4a2.09,2.09,0,0,0,0-.73c-.43-.12-.13,0-.5-.28l-.14-2.54.62-.76a2,2,0,0,0-.1-1.2c-.16-.48.18-.15-.42-.3,0-.5-.15-.39-.07-.91a7.78,7.78,0,0,0-.81.88c-.18.2-.2.27-.38.48s-.25.29-.43.51c-.78,1-4.25,5.56-4.43,6.46Zm0,0" transform="translate(-365.89 -458.79)"/><path class="f" d="M411.82,509.55h.93A20.58,20.58,0,0,1,411.31,520a18.24,18.24,0,0,1-2.22,3.85,16.56,16.56,0,0,1-2.78,2.92l-.25.29c.11.25-.23.61-.35.83-.41.78.06,2.57-.26,3.36-.07.19-.19.12-.25.14l0,1.09c.78,0,1,.09,1.25-.49s.2-.7.64-.95c0-.48,0-.65.17-1s.18-.37.43-.46c1-.38.23,0,1-.78l.05-.05.09-.11c.18-.24.15-.36.38-.67l.2-.27,0-.07.27-.71c.1-.4,0-.13.14-.4l.12-.14c.54-.52.28.18.43-.51,0,0-.13-.09,0,.06l.19.18a2,2,0,0,1,.51-1.3l0,0,.21-.15.07,0,.41-.12a.33.33,0,0,0,.16,0,5.11,5.11,0,0,1,.22-.72c.27-.93,0-.43.51-.77l.44-.52a6.72,6.72,0,0,0,1-1.54,8.81,8.81,0,0,0,.7-1.4l1-1.5a4.86,4.86,0,0,0,1-1.53l.18-.38.08-.12.15-.33c.36-.71-.07.29.34-.32a2.05,2.05,0,0,0,.15-.95c.46-.26.51-.17.84-.63l.57-1a14.36,14.36,0,0,1,1.07-2c1.06-1,.35-.81.89-1.4.18-.2.24-.15.43-.52.48-.9.35-.43.54-.78.07-.13.1-.62.52-.55.24,0,.1-.1.17.13.2-.18.14-.1.26-.42a9.64,9.64,0,0,1,0-2.13c0-.67.29-.55.06-1l0-.07c-.2-.37-.32-.34-.51-.44l.73,0c-.09-.69,0,0-.23-.53-.4-1-.57-.07-.7-.94-.09-.62,0-.65-.81-.6l-.55.15-.42.25a17.67,17.67,0,0,1-.07,2.7l-.16.21c-.34.48-.05.59-.23,1.11s-.16.09-.29.56l-.06.33a4.74,4.74,0,0,0-.05.68,4.86,4.86,0,0,0-1,.23c-.23.05-.36,0-.57.09s-.12.07-.4.15a1.54,1.54,0,0,1-.81-.72,2,2,0,0,0-.34-.89h-1a7.58,7.58,0,0,1-.33.83c-.56,1-1.16.87-2.34.89,0,.08-.09.29-.1.29-.11.22.1,0-.23.21-1.31.7-.07.18-.92,1Zm0,0" transform="translate(-365.89 -458.79)"/><path class="l" d="M387,509.55h8.14c.2-.15.43-.12.76-.13,0-.22,0-.45,0-.67a2.9,2.9,0,0,1,0-.35c0-.23,0-.06.08-.2l-.12-.09c-.26-.2-.11,0-.08-.08a3.9,3.9,0,0,0,2.38-.41,2.14,2.14,0,0,0-.06-.89l0-.07c-.18-.39-.24-.19-.29-.66h-.07c-.71,0-.49-2.44-.4-2.87-.6-.43-.26-.1-.28-1.61,0-.71-.15-.55-.2-1h-.07c-.18,0,.07.16-.12-.06a.67.67,0,0,1-.08-.15l-.07-.12c-.24-.43-.15-.46-.46-.69-.62-.45-.68-.36-.69-1.36.48-.35.4,0,.34-.35a22.3,22.3,0,0,0-7.5-.79l-.14.19,0,.07c-.07.22,0,.4-.08.78a5.76,5.76,0,0,0-.59,1.69,15.59,15.59,0,0,1-.23,1.6c-.23.62-.44.38-.4,1.38s.12,2.23.12,3.42v3.11l0,.08Zm0,0" transform="translate(-365.89 -458.79)"/><path class="a" d="M411.5,507.38a2.36,2.36,0,0,1-.64.35,1.43,1.43,0,0,0-.34.23l-.29.23a8.78,8.78,0,0,1,0,.91c-.05.21-.08.18-.18.26l-.21.14s-.05,0-.07.05h2.09c.85-.81-.39-.28.92-1,.32-.17.12,0,.23-.21,0,0,.06-.21.1-.29,1.18,0,1.78.12,2.34-.89a7.58,7.58,0,0,0,.33-.83h1a2,2,0,0,1,.34.89,1.56,1.56,0,0,0,.81.71c.28-.08.09-.08.4-.15s.35,0,.57-.09a5.42,5.42,0,0,1,1-.23,4.83,4.83,0,0,1,.05-.68l.06-.33c.13-.46.15-.14.29-.56s-.1-.63.23-1.11l.16-.21a17.67,17.67,0,0,0,.07-2.7c.17-.09.26-.15.42-.25l.55-.15c.84,0,.72,0,.81.6.13.87.31,0,.7.94.22.53.14-.15.23.53l-.73,0c.19.1.31.07.51.44l0,.07c.23.49,0,.38-.06,1a9.64,9.64,0,0,0,0,2.13l5.3-10.58a3.66,3.66,0,0,1-1.33.08c-.11-.37,0,.12.18-.26-.2,0-.23,0-.34-.05-.33-.18,0,.07-.05-.11l-.22-.26c-.5-.5-.25-.4-.45-.81s-.39-.26-.42-.35a23.17,23.17,0,0,1-.07-3c-.07-.87-.16-1.67-.2-2.67l-.65,3.45c-.07.63-.06.56-.49.83a4.56,4.56,0,0,1-.12,1.54c-.32.42-.35.18-.84.32l-.07,0-.07,0c-.28.14,0,.2-.75.2a1.68,1.68,0,0,1-.3.62c-.28.37-.29.27-.69.46-1.22.56-1.14,0-1.86.35,0,0,.66.07-.06.19-.17.59-.14.07-.48.38l-.53,1c-.05.12-.07.19-.1.26s0,.12-.06.14c-.26.49-.42.23-.82.62a1.43,1.43,0,0,0-.46.68c-.22.37-.15.12-.4.38s-.1.48-.94.65c-1.08.22-.62.17-1,.52-.23.19-.28.08-.49.37a1.6,1.6,0,0,0-.24.52c0,.23,0,.5,0,.73s-.12.27-.19.59c-.08,0,0-.49-.24.2-.14.46.1.18-.2.56l-1,1.14c-.21.32.1.12-.26.45s-.15-.16-.43.45l0,.07c-.2.47,0,.23-.19.4Zm0,0" transform="translate(-365.89 -458.79)"/><path class="d" d="M467,531a13.19,13.19,0,0,1-2.94.09h-1.52l-1.14,0c-.28,0,.12-.14-.32.09.07.46.08.18.29.6.86,0,1.28-.14,1.5.41l1,.33,4.46,0c.62,0,.84.36,1.43.06a41.82,41.82,0,0,0,1.53-4c.47-1.42.86-2.76,1.26-4.35a52.42,52.42,0,0,0,1.38-9.84l-6.92,0Zm0,0" transform="translate(-365.89 -458.79)"/><path class="m" d="M379.38,476.94c-.08.52.05.41.07.91.61.15.26-.18.42.3a2,2,0,0,1,.1,1.2l-.62.76.14,2.54c.37.25.07.16.5.28a2.09,2.09,0,0,1,0,.73l-.26.4a6,6,0,0,0,.33,2.92c.47,1.21,0,.26.57,1.06l.23.45a2.74,2.74,0,0,0,.23.7l.07.12a.14.14,0,0,0,0,.06l.66,1.17h.75l.36-.76c0,.34,0,.49.1.72a2.21,2.21,0,0,0-.15-1.88,2.12,2.12,0,0,1,.35-1.35c.24-.29.7-.35,1.17-.76-.15-.25-.07-.47-.08-.93a.56.56,0,0,0-.21-.12c-.07,0-.07,0-.17-.07l.37-.21c-.82,0-.53-.06-.95-.29v-.81c.82,0,.12-.16.92-.18s.72.14,1.08-.18c-.18-.17,0-.1-.32-.16l.32-.12c0-1.06-.17-.7-.56-.9a2.65,2.65,0,0,0-.34-1.22c-.11-.12-.05,0-.17-.13s-.27-.19-.4-.27l-.18-.1-.29-.23,0,0c-.26-.34-.16,0-.21-.49,0-.15,0-.46,0-.64a1.45,1.45,0,0,1,1.17,0c.54.32,1,.91,1.54,1a3,3,0,0,1,1.71.83c.17.17.21.45,1,.4.49-.07.22,0,.42-.41.29-.06-.3.21.26,0v-1.17a.88.88,0,0,1-.58-.83l-.33-.55,0-.07c-.34-.77-.26-.8-1.17-.84l-.31-.44,0-.06c-.39-.59-.08-.67-.4-1.31l-.3-.15-.07,0-.45-.22c-.23-.08-.13,0-.37-.12l-.49-.56c-.32-.47-.38-.09-.87-.35l-.42-.36c-.31-.34-.11-.32-.85-.67-.15,0-.11,0-.4.26s-.26.27-.43.43c-.81.82-1.82,1.77-2.51,2.64Zm0,0" transform="translate(-365.89 -458.79)"/><path class="m" d="M368.67,495.66c-.05.29-.05.12.05.32s1.14.8,1.28,1.27-.18.24-.48.39c0,.81-.29.7-.09,1.14,0,0,.05.06.07.21a6.48,6.48,0,0,1,0,.67c.59-.21-.41.28.12-.09.2-.14.12-.12.24.11l.31-.12c.21-.06.2-.16.38-.38a5.94,5.94,0,0,1,.48-.47c.32-.34.59-.58.91-.9a13.19,13.19,0,0,1,2-1.62,36.73,36.73,0,0,1,4.7-2.43l0-.08.07-.15a.32.32,0,0,0,0-.08c.12-.49-.24-.4-.3-.58s0,0-.07,0c0-.44-.1-.61-.11-1a8.17,8.17,0,0,0-.28-3c-.1,0,.15-.2-.06.09,0,0,0,.07,0,.06s0,0,0,.06l-.13-.48c-.28-.1.08.3-.2-.07s-.11-.36-.32-.73-.25-.21-.46-.48l-.36-.6c-.1-.23,0,0-.08-.2-.29-.46.26.25-.08-.11l-.1-.08a1.4,1.4,0,0,0-.75-.1l-.19-.45c-1.07,0-.73-.11-1.47-.36a2.78,2.78,0,0,0-.43-.09s0,0,0,0,0,0,0,0,0,0-.12.14a1.46,1.46,0,0,0-.17.3,6.79,6.79,0,0,1-.35.62A53.58,53.58,0,0,0,369,494.2c-.16.4-.48,1.07-.35,1.46Zm0,0" transform="translate(-365.89 -458.79)"/><path class="b" d="M474,509.55a48.47,48.47,0,0,0-.62-6l-.86-4.18a10.27,10.27,0,0,1-.32-1.37l-5.12-.07v11.65Zm0,0" transform="translate(-365.89 -458.79)"/><path class="d" d="M442,482.46c.59.06.14,0,.37-.11s.23-.49.44-.7c.53-.54,0-.49,1-1.22.23-.16.28-.32.53-.4.76-.24,1-.23,1.41-1a2.32,2.32,0,0,1,.12-.34l.8-.15c.22-.14-.12,0,.3-.17l.39-.09c0-.6-.18-.4-.18-1,.2.16.1.15.45.17a.49.49,0,0,1,.11-.26,2.58,2.58,0,0,0,.43-.81l.06-.18c.08-.22-.08,0,.09-.18s0,0,.21-.13a1.26,1.26,0,0,0,.72-1.28c0-1.6.29-1.5-1-1.5-.15.45-.18.06-.23.72a.83.83,0,0,0-.34,0l-.07,0-.06,0c-.24.15-.33.44-.49.65s.07,0-.21.18l-.92.5c-.66.25-.57.42-1,.73l-.29.07-.05,0-.1,0a.94.94,0,0,0-.58.18c-.41-.51-.34-.43-1-.7a.6.6,0,0,1-.2-.1c-.86-.55-.32.05-1.11-.68l-.05,0-.42-.32-.48.63,0,.05c-.18.21-.24.65-.37.87l-.15.7c-.45.18.36,0-.14,0l-.35.17c-.81.62-.09,1.34-.72,2.31-.23.35-.05.12-.32.37a.82.82,0,0,0-.32.43c-.53,0-.89-.1-1.1-.48-.16.2-.25.18-.53.26l-.36.11c-.08-.26,0-.06-.14-.25a1.89,1.89,0,0,1-.35-1.07c-.15.1-.42,0-.48-.1l-.54.88c-.28.39-.15,1-.89,1.61a6.85,6.85,0,0,0-.4-1.6l-.39-1c0-.8-.05-1.58,0-2.38a7.65,7.65,0,0,1,.28-2.12.38.38,0,0,1,0-.07c.12,0,.23,0,.23.34a2.76,2.76,0,0,1,.08-.28l.35-.26c.11,0-.1.06.12,0a2.56,2.56,0,0,1,.12-1.49s.07,0,.07,0l.2.09c.08.16,0,0,0,.05,0-.51-.15-1.5.23-1.8,0,0,.07-.07.08,0l.26-.09c.33-.07.91,0,1.12-.17a1.39,1.39,0,0,0,.24-.56l0-.15.08-.2a1.1,1.1,0,0,0,.07-.38,24.38,24.38,0,0,1,0-2.54c.18-1.07.52-.86,1.55-.87l.1-.12.26-.48c.23-.32.56-.86,1-.73,0-.74-.11-.35.33-.57.15-.07,0,0,.25-.11l-.58-.13,0-.64-.28-.17a2.08,2.08,0,0,0-1.21-.31l-.23.1-.06.05c.1-.09.08,0,.15.23,0,0-.06,0-.07,0s-.05,0-.07.05l-.07,0-.07,0-.12.07-.06,0-.06,0c-.81.51,0-.21-1.83.15,0,.24,0,.64,0,.87-.07.51-.14.35-.34.57-.63.7.48,1-.62,1.95l-.68.4c-.57.26.13-.2-.17.09-.23-.1,0,0,0,.06s0,.11,0,.1a3.44,3.44,0,0,0,1.16.13l0,.65c-.59,0-1.28-.12-1.63.48s0,.56-.23.9,0,.34-.46.4c.22.2,0,0,.26.16l.42.2c-.19.15-.42.15-.64.29.21.1.75.25.73.48l-.09.65a8.34,8.34,0,0,1,0,.95,10.16,10.16,0,0,0-.27,1.65c-.31-.35-.08-.32-.15-.3,0,1-.07,2.09,0,3.13l.26,3.65c.14.58.18.11.41.5.12.19,0,.05.1.28a5.1,5.1,0,0,1,.15.7c0,.25,0,.5,0,.74s.13.26.17.68c.08.81-.22,1.42.76,1.55s.35-.44,1.41-.59l.27-.75c.18-.37.22-.73.59-.87l0-1.29h1l.23,0,.22-.22a.15.15,0,0,1,0-.07c.4.86.07.56,1.17.56,0-.72-.09-1.44,0-2.15a5.81,5.81,0,0,0,.12-.67l.43,0c.06-1.14-.35-1.82.59-2.42l.37-.58a.3.3,0,0,1,0-.07c.66.07.18.37.89.44,1,.09-.2.22.86.5l1.2.23c.67,0,.14,0,.56-.21a2.93,2.93,0,0,0,.9-.53l.43-.34c.14-.12.07-.12.33-.33s.58-.15.89-.53l0-.05.09-.1c.39-.34.32-.07.59-.64.2-.41.06-.3.42-.34.41.46.09,1.22-.29,1.6s-.18.1-.54.31l-.16.9c-.17.3-.61.37-.78.65l-.31.53c-.18.22-.28.18-.5.34l-.33.35c-.32.35-.57.35-.6.92a1.42,1.42,0,0,0-.78.24c-.56.26-.3.1-.59.57l-.62,0-.24.44a10.47,10.47,0,0,1-.37,1.16c-.22.37-.18,0-.24.6Zm0,0" transform="translate(-365.89 -458.79)"/><path class="a" d="M380.82,498.64c.37.13,0,1.26.22,1.58s.1.35.35.84l0,.07c.07.12.18.23.2.29a.1.1,0,0,1,0,0l.09.3a1.07,1.07,0,0,0,.9.55v2c-.28-.45-.34.36-1.8,0l0,1.32a.64.64,0,0,0,0,.2l0,.09,0,.1c.09.36.91,0,1.17.28s.1,1,.11,1.32c.83.22.17.52.93.59v1.14c-.59,0,0,0-.29.22H387l-.16-.26,0-.07v-3.11c0-1.19-.08-2.38-.12-3.42s.18-.76.4-1.38a15.59,15.59,0,0,0,.23-1.6A5.76,5.76,0,0,1,388,498c.1-.38,0-.56.08-.78l0-.07.14-.19a23,23,0,0,0-4.06.5,13.33,13.33,0,0,0-3.35,1.16Zm0,0" transform="translate(-365.89 -458.79)"/><path class="j" d="M387.47,527l2,.1v-1.49c-.21-.1,0,.06-.25-.1a24.86,24.86,0,0,0-.07-2.81c-.14-.56-.26-.36-.26-1.18,0-.45,0-.88,0-1.33l.75-.3a1.24,1.24,0,0,1-.32-1.06,2.21,2.21,0,0,1,.1-.67,1.11,1.11,0,0,1,.18-.2.81.81,0,0,1,.23-.15c-.05-.18,0-.08-.07-.12l-.11-.06c0-.82.06-.91-.38-1.33.35-.76-.06-.62-.07-1.18,0-.26,0-.26.28-.41.56-.31,3.45-.13,4.17-.1a7.33,7.33,0,0,1,0,1.84c-.13.53-.21.17.15,1.46.2.75.45.26.48,1.43a3.3,3.3,0,0,1-.06.9c-.15.43-.05.18-.41.43a12.88,12.88,0,0,1,0,1.69c-.07.45,0,1.06-.09,1.54-.12.86-.08-.33-.18.48,0,.38.07,1.57,0,2.41l1.55-.31c-.13-.42-.08-.32,0-.83a4.39,4.39,0,0,0,.05-1c.22-.07-.1-.1.1,0s-.26,0,.17.13c.07-.78.28-.46.28-1.78l.21-.19s.15-.27.16-.3a3.39,3.39,0,0,1,.45-1c.25-.34.22-.37.32-1.06-.55-.06,0,0-.35-.12l-1.2-.47v-1.61c.23-.12.29,0,.74-.28-.26-.18-.19-.06-.56.06.21-.63.51.1,1.22-1a1.5,1.5,0,0,0,.13-1.13l-.7-1.35,0-.06,0-.05h-9.6l.12,1.16c0,1,.08,2.07.1,3a2.76,2.76,0,0,0,.37,1.61s.07.29.07.31a5,5,0,0,1,0,.75,5.52,5.52,0,0,0,.27,1.37c.23,1.14-.16,1.82.2,3,.17.59-.1.73,0,1.28Zm0,0" transform="translate(-365.89 -458.79)"/><path class="m" d="M389.43,527.07c1.46-.07,2.57-.15,4-.32.09-.84,0-2,0-2.41.1-.81.06.38.18-.48.07-.48,0-1.09.09-1.54a12.88,12.88,0,0,0,0-1.69c.36-.25.26,0,.41-.43a3.3,3.3,0,0,0,.06-.9c0-1.17-.28-.68-.48-1.43-.35-1.29-.28-.93-.15-1.46a7.33,7.33,0,0,0,0-1.84c-.73,0-3.61-.21-4.17.1-.28.15-.29.15-.28.41,0,.56.42.42.07,1.18.44.42.39.51.38,1.33l.11.06s0-.06.07.12a.81.81,0,0,0-.23.15,1.11,1.11,0,0,0-.18.2,2.21,2.21,0,0,0-.1.67,1.24,1.24,0,0,0,.32,1.06l-.75.3c0,.45,0,.88,0,1.33,0,.82.13.62.26,1.18a24.86,24.86,0,0,1,.07,2.81c.24.15,0,0,.25.1Zm0,0" transform="translate(-365.89 -458.79)"/><path class="g" d="M437.77,504.56l-.26.2c-.07.07-.1.12-.18.18a4.16,4.16,0,0,1-1-.18c.28-.17.34,0,.63-.18a3.22,3.22,0,0,1-.36-.15c-.67-.5-.37-.13-.58-.52l-.57,0c-.09-.17,0-.07-.08-.36h-3.06c-.23-.43.15-.2-.32-.43s-.31.09-.48-.19a92.08,92.08,0,0,0-3.23,6.66h12c0-.15-2-4.35-2.29-4.8a.62.62,0,0,0-.15-.17Zm0,0" transform="translate(-365.89 -458.79)"/><path class="a" d="M422.08,522.56l0,.15c.57-.29.1.14.64-.37.7-.67.32,0,.63-1l0-.07a.65.65,0,0,1,.06-.13l.15-.42c.17-.28-.29-.17.37-.21-.48-.1-.19,0-.35-.16.48,0,.75-.2,1.25-.21,0,0-.34-.15.27-.26.9-.15.71.2,1.11-.2l.73-.44.05,0,.11-.08c.65-.53.08-.93,1.14-1,0-.11,0-.12.23-.29l.59-.27c-.17-.41.2.35-.1-.12-.12-.2-.12.06-.06-.13.6-.31.53,0,1.06-.37l.05,0,.07,0c1.15-.61,1.8.12,2.46-.48l0-.05c.25-.22-.07-.18.46-.21l-.09-.22v-.05a1.78,1.78,0,0,1,1.22-.13,3.56,3.56,0,0,1,.5.27c.32.27,0,.23.92.59l1.6.69c0,.64.08.92-.23,1.25-.1.1,0,0-.14.14l-.09.1a.4.4,0,0,0,0,.06l0,.05-.12.17c-.08.13,0,0-.09.19,0,0,0,.35,0,.35,0,.4-.13.24.23.32l-.95.18c-.42.19-.23-.07-.26.26a5.67,5.67,0,0,0,2.06-.42c.19-1.29,0-1.62.9-1.92l1.63-1.33a3.65,3.65,0,0,0,.79-.92l.53-.61.05,0c.48-.41.51-.54,1.21-.58l-16.86-.07c-.72,1.68-1.59,3.34-2.35,5a32.35,32.35,0,0,0-1.4,3.13Zm0,0" transform="translate(-365.89 -458.79)"/><path class="a" d="M395.18,509.56h6.27a1.14,1.14,0,0,0-.26-.84l-.22-.28c-.17-.34-.09-.24-.05-.57.56,0,.6-.16,2.08-.2-.09-.32,0-.2-.12-.53l-.27-.58c-.08-.2,0-.11-.09-.21a.81.81,0,0,0-.34-.26c-.61-.37.12-.16-.65-.57s-.93,0-.84-1.4c0-.44,0-1,0-1.4a2.3,2.3,0,0,1,1.43-.05c.18.08.05,0,.24.22.62.65.6-.07.52.24.17.18.11.31.12.65h1.12a4,4,0,0,0-.1-1.4c-.88,0-.88-.23-1.9-1.25a15.42,15.42,0,0,0-6.41-3.35c.06.38.13,0-.34.35,0,1,.07.91.69,1.36.32.23.22.26.46.7l.07.12a1,1,0,0,0,.08.15c.19.21-.06,0,.12.05h.07c0,.49.19.33.2,1,0,1.5-.32,1.18.28,1.61-.09.42-.31,2.85.4,2.87h.07c0,.46.1.26.29.65l0,.07a2.14,2.14,0,0,1,.06.89,3.9,3.9,0,0,1-2.38.41c0,.12-.18-.12.08.08l.12.09c-.09.14,0,0-.08.2a2.66,2.66,0,0,0,0,.35c0,.22,0,.45,0,.68-.32,0-.56,0-.76.13Zm0,0" transform="translate(-365.89 -458.79)"/><path class="l" d="M397.58,544.87c.11-.07.07,0,.17-.14l.56-1c.19-.28.36-.41.51-.63s.27-.48.43-.7c1.56,0,1.37-.15,2.12.43a4.65,4.65,0,0,0,.47.32,1.68,1.68,0,0,1-.12,1l-.1.18c-.29.47-.64.52-1.16.65-.83.2-.14,0-.66.29-.12.83.15,1.2-.32,1.95l0,.06c-.26.4-.32.26-.62.59s.1,0-.29.28a2,2,0,0,1-.36.21,4.14,4.14,0,0,0,.05.79l-1.32,1.56a4.26,4.26,0,0,1-1.82.75s0,0,0,0v-.07c0-.09.15-.08-.15.06l-.21.07c-1.5.4-1.39-.58-1.86-1.23s.13.38-.1-.14a.88.88,0,0,1,.55-.41c1-.36.48-.45,1-.89l.06,0,.37-.39c.31-.51.14-.55.85-1.07l.18-.12c.7-.43.5-.78.73-1.52s1.1.37,2.53-.13c-.7-.7-.56-.07-1.38-.66ZM386.94,554l.42.4c.48.36,3.17,2.39,3.62,2.36.18-.12,0-.15,0-.66l.16-.1c.48-.35.4-.56.41-1.14l-.42-.19-.13-.06a7.67,7.67,0,0,0-1-.32c-.08-1,.09-1,.76-1.44l.06,0,.69-.26c.28-.15.27-.19.52-.5.63,0,1.27,0,1.9,0,1.14,0,2.68-1,4.37-1.1.09-.76.15-.45.75-.62s.23,0,.37-.45a2.8,2.8,0,0,0,.14-.53c.07-.46.12-.81.18-1.24.09-.68.29-.55.32-1.08a2.91,2.91,0,0,0,1.41-.4c0-.51-.09-.35.05-.74s.19-.23,0-.56c1.17-.05,0-.28,1-.32a2.62,2.62,0,0,0,1.15-.09c.08-.27.1,0-.09-.17l-.54-.57c-.33-.37-.33-.91-.81-1.38s0,.17-.2-.24c-.46-1-.25-.43-.95-.88v-1.81l-.32.2c-.18.12.15,0-.22.14-.53.22-.54,0-.64.5,0,.14,0,.23,0,.36-.13,1.44-.47.8-.94,1.16-.25.19-.12.23-.32.45l0,0-.05,0-.1.09-.05.05-.58.86a.87.87,0,0,1-.13.15c-.74.92-.11.59-.81,1.07l-.7.32c-1,.32,0,.14-1.29,1.6s-1,.57-1.44,1.48-.81.2-1.48,1.36c-.53.93-.67.78-1,1.29s-.13,0-.7.73c-.32.38-.66.37-.74.62l-.07.51-2,.1Zm0,0" transform="translate(-365.89 -458.79)"/><path class="e" d="M395,526.45c.83-.21,3.76-1.11,4.08-1.53,0-.28-.17-.74-.25-1.29a1.62,1.62,0,0,1,.37-.23c0-.84.19-1.36.21-2.14.88,0,1.13-.7.43-1.18l-.2-.22s0-.06,0-.09c-.05-.62-.07.43,0-.16a1,1,0,0,1,.12-.29,1.66,1.66,0,0,1,.31-.3,3.47,3.47,0,0,1-.36-1.91c.12-.68.07,0,.16-.5a3.22,3.22,0,0,0-.18-1.82,1.43,1.43,0,0,0-.19-.17c-.06-.06-.05.12-.13-.12,0,0-.05,0-.07-.07h-3.34l0,.05,0,.06.7,1.35a1.5,1.5,0,0,1-.13,1.13c-.7,1.11-1,.38-1.22,1,.37-.12.3-.24.56-.06-.45.26-.51.15-.74.28v1.61l1.2.47c.32.11-.2.06.35.12-.09.69-.07.73-.32,1.06a3.44,3.44,0,0,0-.45,1s-.14.28-.16.31l-.21.19c0,1.32-.21,1-.28,1.78-.43-.18.18.09-.17-.13s.12-.1-.1,0a4.39,4.39,0,0,1-.05,1c-.1.51-.15.41,0,.83Zm0,0" transform="translate(-365.89 -458.79)"/><path class="a" d="M399.06,524.92a13.31,13.31,0,0,0,4.48-3.53c-.18-.15-.16.12-.09-.41l.53-2.42c.1-.29.14-.21.17-.57a7.93,7.93,0,0,1,0-1c.18-1,.72-1.53.73-2.4l1.49,0-.07.43c.17-.22.12-.14.15-.49h-7.21s.06,0,.07.07c.07.24.07.06.13.12a1.43,1.43,0,0,1,.19.17,3.22,3.22,0,0,1,.18,1.82c-.1.46,0-.18-.16.5A3.47,3.47,0,0,0,400,519a1.66,1.66,0,0,0-.31.3,1,1,0,0,0-.12.29c-.07.59,0-.46,0,.16,0,0,0,.07,0,.09l.2.22c.7.48.45,1.15-.43,1.18,0,.78-.21,1.3-.21,2.14a1.62,1.62,0,0,0-.37.23c.08.55.26,1,.25,1.29Zm0,0" transform="translate(-365.89 -458.79)"/><path class="k" d="M444.7,505.59l2.38,4.82c.15.26.07.18.26.34.08-.4,0-.15.21-.41l.67-.63a1.83,1.83,0,0,1,.42-.23c.76-.34.21-.21.94-.38.43-.1.37.21.43-1a2.29,2.29,0,0,1,1.53-.6c.07-.74-.08-.88.23-1.38l.17-.31a4.3,4.3,0,0,0,1.12-2,5.81,5.81,0,0,1,.1-1,1.2,1.2,0,0,0,.1-.37,1.19,1.19,0,0,1,.51-.91l.18-.13c0-.36.12-1.33-.34-1.57,0,0-.07-.06-.08,0a2,2,0,0,0-.63,0,5.23,5.23,0,0,1-.67.09s0,0,0,.07l-.53.84c-.77,1.12-.12.94-.73,1.53a1.06,1.06,0,0,0-.19.2c-.26.37,0,.32-.52.71l-.12.1a6.4,6.4,0,0,1-.29,1.9l-1,.49-2.74,0-.2.38-.26-.23a1.09,1.09,0,0,0-.86-.34Zm0,0" transform="translate(-365.89 -458.79)"/><path class="a" d="M384.87,526.58a7.89,7.89,0,0,0,2.6.4c-.09-.55.18-.69,0-1.28-.36-1.2,0-1.88-.2-3a5.52,5.52,0,0,1-.27-1.37,5,5,0,0,0,0-.75s-.06-.27-.07-.31a2.76,2.76,0,0,1-.37-1.61c0-1-.06-2-.1-3l-.12-1.16-6.35,0c.27.29-.67.2,1.41.22a1.22,1.22,0,0,1,.27.35c.07.23-.1.37-.15.58.4,0,.26,0,.43.08.89.29.45.15,1.17.09l.13-.29c.11-.15.61-.26,1-.45-.13.21,0,0,.13.42,0,.15,0,.48,0,.64,0,1.53-.23,1.62-.12,3.81l.32.23s.11.28.11.28a12.17,12.17,0,0,1,0,2.79,1.71,1.71,0,0,0-.14.87c0,2.32.13,1.5.3,2.13,0,.12,0,.22,0,.39Zm0,0" transform="translate(-365.89 -458.79)"/><path class="f" d="M401.45,509.56l3.8,0a5.63,5.63,0,0,1,0-1.35c1.11-.74.43-.82,1.08-2.78l.58-1.4a3.69,3.69,0,0,0,.29-1.64H404a4,4,0,0,1,.1,1.4H403c0-.34.05-.47-.12-.65.08-.32.1.41-.52-.25-.19-.2-.07-.13-.24-.21a2.3,2.3,0,0,0-1.43.05c0,.45,0,1,0,1.39-.09,1.39,0,.93.84,1.41s0,.21.65.57a.81.81,0,0,1,.34.26c.07.1,0,0,.09.21l.27.58c.15.32,0,.2.12.53-1.48,0-1.52.19-2.08.2,0,.33-.12.23.05.57l.22.28a1.14,1.14,0,0,1,.26.84Zm0,0" transform="translate(-365.89 -458.79)"/><path class="a" d="M461.45,538.8c-.68.7-1.83.25-3.12.4-.65.07-.63.25-1,.24-.67,0,.26,0-.23-.09a6.16,6.16,0,0,0-1.4.11l-.2.09-.74.13a26,26,0,0,0-2.85.08c-1.13,0-1-.29-2-.31-.14-.29.15-.15-.21-.27a8.2,8.2,0,0,0-2.73.4c-.4.13-.79.12-1.08.56l.57.18-.46.19c.26.38.09.24.18.45,2.56.07,1.87.45,2.75.49,1,.05,1.11.21,1.91.21.16,0,.56-.1.94-.1a34,34,0,0,0,4.46-.12c.38-.24,0-.31.86-.29a5,5,0,0,0,2.07-.19c.79-.4-.19-.61,2.3-.56.54,0,.91.11,1.25-.16s.12-.2.39-.29l1.58,0c.31,0,.76-.63.34-.89a5.49,5.49,0,0,0-1.49-.05c-.87,0-.12-.2-1.07-.27-.7,0-.26,0-.56.15s.21.11-.22.07.15,0-.32-.13Zm0,0" transform="translate(-365.89 -458.79)"/><path class="f" d="M387.95,551.9c.79.23,1,.18,1.54-.26a9.28,9.28,0,0,0,1-.93l.63-.86c.29-.29.32-.47,1-1.19,1.09-1.12.7-.18.92-1.1.18-.71.66,0,1.38-1.44.8-1.59.34-.89,1.42-1.41,0-.53,0-.9-.67-1a8.55,8.55,0,0,1-1.37-.05.54.54,0,0,1-.32-.32,8.09,8.09,0,0,1-.17-1.09l-1.18,0,0,.07-.25.43,0,0c-.3.29-.48.17-.53.43l0,1.52c.52.45.76.25.75,1.36a1,1,0,0,0,.47.12c-.91.23-2.29-.12-3.6.48-.06.84.2,1.28.17,2-.32.08-.3-.07-.53.38a3.42,3.42,0,0,0-.4,1.91c-.07.65-.21.08-.17.85Zm0,0" transform="translate(-365.89 -458.79)"/><path class="l" d="M389.39,532l-.5.15c.1.44.07.23.32.49s.23.27.35.41l.68.84-.29.29c-.1.18,0,0-.07.21-.2.49.18-.31-.06.15s-.4.07-.43,1.07c-.07,1.78.12,1.38.26,1.93.18.7-.38.53-.36,1.11a.71.71,0,0,0,.54.68l0,2.54c.45.06.52.26.92,0l.05,0,.23-.25c.43-.63.25-1,.37-1.43l.26-.5a1,1,0,0,0,.07-.13l0-.07c.16-.4,0-.34.23-.61.67-.7-.09,0,.34-1.7.16-.06.08.09.43-.1,0-.76.08-1.3.12-2.1s-.06-1.19,0-2.06c.74,0,.65.09,1.13-.29l.56-.3,0-.61a48.3,48.3,0,0,1-5.19.33Zm0,0" transform="translate(-365.89 -458.79)"/><path class="m" d="M392,482.66c-.06.32-.2.55-.26.78s0,.71-.08,1.08a16.72,16.72,0,0,0-.35,1.83c-.07.75-.25,1.19-.29,1.89-.14,2.17.67,1.54-.62,2.93-.25.28-.16.18-.31.68.2.05.1.08.21.2l2.41.07h.5a7,7,0,0,0,.09-1l-.07-.24a2.07,2.07,0,0,1-.23-1.36c.1-.4.32-.08.44-1.08,0-.43.12-1.07.13-1.41.61-.16-.4.26.16.1.07-1.93.57-1.21.22-4.47a3.07,3.07,0,0,1,.34-2.39l.3-.66a7.18,7.18,0,0,0,0-1.12l-.95-.18a1,1,0,0,1-.05.33l-.35.79c-.2.38-.32.55-.53,1a2.41,2.41,0,0,0-.32,1.2c0,.25,0,.51,0,.74-.05.42-.07.15-.2.54-.14-.29,0-.13-.2-.23Zm0,0" transform="translate(-365.89 -458.79)"/><path class="a" d="M399.2,493.35a2.24,2.24,0,0,0,.77.34l2.31.92a7.44,7.44,0,0,0-.56-2.26c-.26-.38-.09,0-.26-.38l-1.08-2.54c-.37-.59-.54.24-.78-2a1.65,1.65,0,0,0-.39-1.17l0,.62c-.26-.09-.3-.17-.5-.55l-.17-.32c-.23-.46.09.22-.07-.12l-.26-1,.19-1.39-.51-.26-.07,0-.08,0-.55,0c-1.19,0-.92-.05-1.3.11s0,.48,0,.75.07.85.07.95c0,.47,0,1.33,0,2h.19c-.1,1-.65.64,1.64.72a.56.56,0,0,0,.23.23c0,.35,0,.92,0,1.25.07.67,0,.2.16.45s.15-.1.11.45c-.06.85-.2,2.07,0,2.28l.26.08c.59.13.26,0,.78.34,0,.31.07.49-.07.73Zm0,0" transform="translate(-365.89 -458.79)"/><path class="l" d="M405.26,509.55h3.58l.29,0c0-1,.22-1.63-.76-2l.07-.58c0-.08,0-.15.05-.2l.06-.12c.29-.45.59,0,.59-1,.42-.22-.19.23.12-.09a8,8,0,0,0,.83-2.09c0-.33,0-.74,0-1.08h-2.84a3.69,3.69,0,0,1-.29,1.64l-.58,1.4c-.65,2,0,2-1.08,2.78a5.63,5.63,0,0,0,0,1.35Zm0,0" transform="translate(-365.89 -458.79)"/><path class="d" d="M431.48,502.88c.18.29.15,0,.48.2s.09,0,.32.43h3.06c.11.29,0,.18.08.36l.57,0c.21.39-.09,0,.58.52a3.22,3.22,0,0,0,.36.15c-.29.18-.35,0-.63.18a4.16,4.16,0,0,0,1,.18c.08-.07.11-.12.18-.18l.26-.2a29.63,29.63,0,0,0-1.72-3.74c-.31-.6-1.62-3.46-1.86-3.71-.25.29-2.68,5.49-2.7,5.77Zm0,0" transform="translate(-365.89 -458.79)"/><path class="f" d="M407,497.8c.17.32.21.27.46.53.09.1.14.18.22.26s0,.1.29.23c0-.48.1-.47.21-1a8.28,8.28,0,0,0,.35-1.75,1.47,1.47,0,0,1,0-.26l.18-.58c.23-1,.12-.42.29-.84s0-.55.2-.86.21,0,.39-.67l.41-1.77c.1-.34,0-.38.23-.6l.1-.09c.36-.35.19-.25.45-.61s.27-.1.32-.75a1.76,1.76,0,0,1,.2-.83c.2-.44.54-.49.69-.92a3,3,0,0,0,0-1.41c-.62.07-.11,0-.42.22s-.43.24-.57.59l-.35.68c-.44,1-.35.57-.5.64a14,14,0,0,1-.4,1.9c-.32.17-1,.43-1.45.15-.24-.16-.18-.36-.37-.57s-.23-.09-.59-.27a1.35,1.35,0,0,0-.19-1c-.39.44-.07,2.38-.06,2.88h.06l.12,0,.05,0c.37.14.33.4.7.6l-.13.21,0,0-.1,0c.19.46-.06.92-.3,1.68a3.28,3.28,0,0,0-.08,1.08c-.05.79-.31-.06-.29,1.41a3.78,3.78,0,0,1-.07,1.48Zm0,0" transform="translate(-365.89 -458.79)"/><path class="a" d="M407.65,552.23c.13.26-.12-.27.1.1.12.21.12-.06.05.17-.95,0-3.4.1-4.11.62s-.26.33-.76.37c0,.65-.25.7.35,1a2.57,2.57,0,0,0,1.38.32c1.13,0,2.25,0,3.38,0-.46-.07-.29,0-.24-.17a2.9,2.9,0,0,1,1.33-.29c0-.18-.27.1.21-.22l.06,0,.15-.14c.34-.31.17-.12.65-.4.23-.14-.19-.1.43-.15a12.14,12.14,0,0,0,1.58-.12,9.35,9.35,0,0,0,.09-1.81c-.28.11-.06.11-.43.17-.81.13-1.81-.18-2.57.18l-.56.14c-1.21.1-.46.18-1.1.29Zm0,0" transform="translate(-365.89 -458.79)"/><path class="m" d="M393.51,550.09l.26-.15a12.2,12.2,0,0,0,1.79-1.54c.16-.38,0-.32.26-.69.51-.76.18.13,1.06-1.75a5.2,5.2,0,0,1,2.36.23c-.08,1.4-1,1.16-1.71,2l-.27.49a3.29,3.29,0,0,1-1.14,1.8l-.1.09a2.51,2.51,0,0,1-2.16.62c-.43-.11-.36-.57-.35-1.09Zm4.07-5.23c.81.59.67,0,1.38.66-1.44.5-2.32-.56-2.53.13s0,1.08-.73,1.52l-.18.12c-.71.52-.54.56-.85,1.07l-.37.39-.06,0c-.49.44.07.53-1,.89a.88.88,0,0,0-.55.41c.23.51-.31-.41.1.14s.37,1.63,1.86,1.23l.21-.07c.31-.14.11-.15.15-.06v.07s0,0,0,0a4.26,4.26,0,0,0,1.82-.75l1.32-1.56a4.14,4.14,0,0,1-.05-.79,2,2,0,0,0,.36-.21c.39-.29,0,0,.29-.28s.36-.18.62-.59l0-.06c.47-.75.2-1.11.32-1.95.52-.26-.17-.1.66-.29.52-.13.87-.18,1.16-.65l.1-.18a1.68,1.68,0,0,0,.12-1,4.65,4.65,0,0,1-.47-.32c-.75-.57-.56-.44-2.12-.43-.16.23-.29.48-.43.7s-.32.35-.51.63l-.56,1c-.11.18-.07.07-.17.14Zm0,0" transform="translate(-365.89 -458.79)"/><path class="a" d="M386.18,492.17l3.6-.12-.21-.2a1.73,1.73,0,0,1,.25-.89c.08-.16.12-.22.21-.37.17-.31.05.1.15-.35.14-.64-.05-1.41.13-1.95l.35-1.86a19.72,19.72,0,0,0,0-2.09l.1,0s.05,0,.08-.06V483c-1.38,0-1.05.13-1.11.19-.26.2-.1-.13-.18.36a7.77,7.77,0,0,1-.1,1.59l-.1.29c-.07.21,0,.12-.11.23l-.1.08c-.78.7-.57,2-.57,3-.59.08-.16.07-.59.36s-.45,0-.76.71l-.06.14c-.19.56,0,.67.19,1.07-.21.09-.13,0-.33.15l-.29.31a.94.94,0,0,0-.1.18c-.31.42.21-.14-.23.21Zm0,0" transform="translate(-365.89 -458.79)"/><path class="e" d="M366,510a29.37,29.37,0,0,1,1.44-5.75c1.27-3,2.15-3.55,2.73-4.68l-.31.12c-.12-.23,0-.25-.24-.11-.53.37.46-.12-.12.09a6.48,6.48,0,0,0,0-.67c0-.15-.06-.2-.07-.21-.21-.44.07-.33.09-1.14.3-.15.58,0,.48-.39s-1.09-.93-1.28-1.27-.1,0-.05-.32c-.62.46-1.76,6.14-1.86,6.69A42.86,42.86,0,0,0,366,510Zm0,0" transform="translate(-365.89 -458.79)"/><path class="d" d="M439.74,495.63a9.14,9.14,0,0,0,3.09-.22c1.38-.31,2.44.26,2.95-.51-.24-.1-.29.11-.32.05s0,0-.05,0a1,1,0,0,0-.62-.68c-.28-.22-.32-.65-1.29-.67,0-.14-.15.13,0-.05l.17-.14c-.54,0-.28,0-.64-.13a26,26,0,0,0-4.63-.18,8.45,8.45,0,0,0,.61,1.27,4.07,4.07,0,0,0,.69,1.23Zm0,0" transform="translate(-365.89 -458.79)"/><path class="n" d="M393.51,550.09c0,.52-.08,1,.35,1.09a2.51,2.51,0,0,0,2.16-.62l.1-.09a3.29,3.29,0,0,0,1.14-1.8l.27-.49c.73-.84,1.63-.59,1.71-2a5.2,5.2,0,0,0-2.36-.23c-.87,1.88-.55,1-1.06,1.75-.24.37-.1.31-.26.69a12.2,12.2,0,0,1-1.79,1.54Zm0,0" transform="translate(-365.89 -458.79)"/><path class="j" d="M413.06,527.31c.93-1.63,1.74-3.47,2.59-5.16.39-.76,2.49-4.74,2.55-5.21-.25-.34,0-.1-.15-.05s0-.07-.26.28a.2.2,0,0,0,0,.06l-.08.12,0,.06c-.21.34-.16.19-.45.48-.57.57-.85.68-1.2,1.08s-.21.62-.48,1-.4.38-.54,1,0,.17-.14.43l-.69,1.17c-.34.62,0,.44-.26.87-.1.19-.16.1-.18.58-.67,0-.09,0-.54.19-.18.07-.56.12-.58.28s0,.06,0,.08l0,.07,0,.08a2.75,2.75,0,0,0,.08,2.45l0,.06Zm0,0" transform="translate(-365.89 -458.79)"/><path class="m" d="M408.66,499.55a11.76,11.76,0,0,0,1.14,1.52c.29,0,.06.08.22-.15s.12-.59.26-.89c-.13-.11.11-.07-.26-.15.75,0,.47-.28.77-.55s0,0,.15,0,.22.21.28-.4a7.63,7.63,0,0,0-.59-3.43,3.65,3.65,0,0,0-1.25.17l-.37,2c0,1,0,.51-.2.92a2.3,2.3,0,0,0-.15,1Zm0,0" transform="translate(-365.89 -458.79)"/><path class="j" d="M368.38,527.7a15.15,15.15,0,0,0,.84,2.64c.29.81.63,1.62,1,2.37a.72.72,0,0,0,.82.06s0-.26-.15-.35c.42-.1.1,0,.37-.81s-.13-.26-.1-1.66c0-.85.09-1.37-.39-1.79-.17-.15-.35-.4-.57-.48l-.07,0H370a8.9,8.9,0,0,0-1.63,0Zm0,0" transform="translate(-365.89 -458.79)"/><path class="l" d="M374.61,520.33a9.5,9.5,0,0,0,2,2.45l1,.81c.36.28.27.27.58.33l.22-.1c.05-3.18-.16-1.65-.29-2.81,0-.28,0-.32-.23-.57l0,0c-1-.86-3-.29-3.23-.28Zm0,0" transform="translate(-365.89 -458.79)"/><path class="l" d="M403.53,521.38a9.87,9.87,0,0,0,1.79-2.84,11,11,0,0,0,1-3.62l.07-.43-1.49,0c0,.87-.55,1.42-.73,2.4a7.93,7.93,0,0,0,0,1c0,.37-.07.28-.17.57l-.53,2.42c-.07.53-.09.26.09.41Zm0,0" transform="translate(-365.89 -458.79)"/><path class="j" d="M371.33,535a20.29,20.29,0,0,0,1.44,2.87l.56.87c.52.12.73.18.87-.29.05-.15,0-.32.09-.48.15-.56.62-2.48.17-2.92s-.44-.26-.95-.24a.11.11,0,0,0,0,.06Zm0,0" transform="translate(-365.89 -458.79)"/><path class="j" d="M402.32,529.36a29.26,29.26,0,0,0,0,4.58c.49,0,.24-.09.7-.43s.15-.26.48-.77a3,3,0,0,0,.6-1.83s-.17-.07,0,.06-.07.1.14,0l.29-2.37c0-.5.09-.19-.16-.4Zm0,0" transform="translate(-365.89 -458.79)"/><path class="j" d="M379.18,530.38c-.82-.21-2-.88-2.6-1l-.3,0c0,.06,0,.07,0,.1a.15.15,0,0,1,0,.07l-.07,2.22c.11.51.43.55.89.73a4.06,4.06,0,0,0,1.54.14c.6-.1.49-.15.51-.39a1.9,1.9,0,0,0,0-.23,3.19,3.19,0,0,1,0-1.36Zm0,0" transform="translate(-365.89 -458.79)"/><path class="g" d="M400,488.11c.51.2.35-.08.52.31a4.66,4.66,0,0,0,.89,1.51c.22.19-.15.1.36.15a12.4,12.4,0,0,0,.12-3.08c.06,0,.45.58,0-.73a1.25,1.25,0,0,0-.13-.26c-.27-.41-.45-.26-1.76-.27a3.5,3.5,0,0,0,0,2.37Zm0,0" transform="translate(-365.89 -458.79)"/><path class="f" d="M383.77,551.38c.21.4.27.32.59.59l.67.57c.23.2.38.31.62.52l.48.38c.26.17,0,0,.3.16,0-.15-.08-.23.13-.53l0-.05,0-.05a1.89,1.89,0,0,0,.28-1.55c-.12-.65-.14,0-.18-.58s.23,0,0-1.81h-.48c-.14.37.34,0-.05.26a.76.76,0,0,1-.18.07c-.06,0-.09.07-.1,0s0,0,0,0a2.11,2.11,0,0,0,.07,1c.11.23.18.12.38.65l-1.15.33a9,9,0,0,1-1.39,0Zm0,0" transform="translate(-365.89 -458.79)"/><path class="g" d="M447.94,525.47a15.67,15.67,0,0,0-1.31-2.73c-.42-.3-.5-.19-1-.19-.07.15.16.07-.29.09l.24.42s.1,0-.05.25c-.14-.48,0-.08-.38-.19,0,.38,0,.31-.27.48.09.69.16.41.3,1l1.11.4c0-.08-.18-.07-.16.08s.24.27.59.37a4.55,4.55,0,0,0,.66.14c.44.08.39.21.59-.14Zm0,0" transform="translate(-365.89 -458.79)"/><path class="m" d="M444.44,518.22l-1.28-2.73a1.33,1.33,0,0,0-.85.53l-.18.2,0,0c-.45.48-.49.61-.31,1.35.44.18.46-.06.86.37a1.6,1.6,0,0,0,1.44.4c.51-.08.15.07.37-.17Zm0,0" transform="translate(-365.89 -458.79)"/><path class="d" d="M460.73,529.63l0-2a3.1,3.1,0,0,0-1.63-.17c-.53.12-.35.2-.58.49-.4.51-.36,0-.4.47,0,.22-.11.1.33.53.23.23.29.2.62.35l.45.21s0,0,.22.08a6.12,6.12,0,0,0,1,0Zm0,0" transform="translate(-365.89 -458.79)"/></svg>