<svg id="Layer_1" data-name="Layer 1" xmlns="http://www.w3.org/2000/svg" viewBox="0 0 650.32 139.96"><title>LOccitane logo - Brandlogos.net</title><path d="M81.58,388c0,5.47.26,9.38,1.82,11.21,1.3,1.56,3.13,2.35,11.73,2.35,12,0,13.81-.52,18.76-11.73,1-.52,2.87-.26,3.39.78a97,97,0,0,1-4.69,15.9c-4.69-.26-14.07-.26-26.06-.26H75.32c-5.47,0-10.95,0-15.64.26-.78-.52-1.3-2.61-.26-3.13l3.39-.78c5.21-.78,6-1,6-12.25V350c0-11.21-1-11.73-6-12.51L59.68,337a2.15,2.15,0,0,1,.26-3.13c5.47.26,10.42.26,15.38.26,4.69,0,9.64,0,14.59-.26a2.15,2.15,0,0,1,.26,3.13l-2.61.52c-5.21.78-6,1-6,12.51Zm42.74-46.91c0,8.34-7.3,14.33-14.86,16.16a3.1,3.1,0,0,1-.78-2.87c4.69-2.08,8.86-5.21,8.86-9.9,0-3.65-3.39-5.21-6-5.73a4,4,0,0,1-3.39-3.91c0-1.82,1.3-5.21,6.25-5.21,5.21.26,9.9,5.47,9.9,11.47M136,362c0-27.1,20.33-48,48.48-48,31.54,0,47.17,22.67,47.17,46.65,0,27.63-20.85,47.43-47.17,47.43C154.29,408.37,136,386.74,136,362m82.1,2.87c0-22.41-9.9-46.65-36-46.65-14.07,0-32.58,9.64-32.58,39.61,0,20.07,9.9,46.39,36.75,46.39,16.16-.26,31.8-12.51,31.8-39.35m91.74-12.25c-.78.78-2.61,1-3.39.26-1.82-6.78-6.78-15.9-21.11-15.9-13.81,0-27.89,9.9-27.89,32.06,0,23.2,14.59,34.66,28.67,34.66,13.81,0,19.81-9.12,22.67-16.16a2.26,2.26,0,0,1,3.39.52c-.78,7.3-3.65,14.59-5.21,16.68-1.3.26-2.61.78-3.91,1a63.62,63.62,0,0,1-16.94,2.61c-10.69,0-20.07-2.08-27.89-7.3-8.86-5.73-15.38-15.64-15.38-30,0-12.77,5.73-22.67,13.81-28.93,8.08-6,19-9.38,30-9.38a82.06,82.06,0,0,1,18.76,2.35c1.3.26,2.09.52,3.13.78a151.1,151.1,0,0,0,1.3,16.68m75.58,0c-.78.78-2.61,1-3.39.26C380.25,346.08,375.3,337,361,337c-13.81,0-27.89,9.9-27.89,32.06,0,23.2,14.59,34.66,28.67,34.66,13.81,0,19.81-9.12,22.67-16.16a2.26,2.26,0,0,1,3.39.52c-.78,7.3-3.65,14.59-5.21,16.68-1.3.26-2.61.78-3.91,1a63.62,63.62,0,0,1-16.94,2.61c-10.69,0-20.07-2.08-27.89-7.3-8.86-5.73-15.38-15.64-15.38-30,0-12.77,5.73-22.67,13.81-28.93,8.08-6,19-9.38,30-9.38A82.06,82.06,0,0,1,381,335.13c1.3.26,2.09.52,3.13.78a151.1,151.1,0,0,0,1.3,16.68m29.45,37.79c0,11.47,1,12,6,12.51l2.35.26c.78.78.78,2.61-.26,3.13-4.69-.26-9.64-.26-14.59-.26s-9.9,0-14.59.26a2.37,2.37,0,0,1-.26-3.13l2.35-.26c5.21-.78,6-1,6-12.51V350c0-11.47-1-12-6-12.51l-2.35-.26c-.78-.78-.78-2.61.26-3.13,4.69.26,9.64.26,14.59.26,4.69,0,9.64,0,14.59-.26a2.37,2.37,0,0,1,.26,3.13l-2.35.26c-5.21.78-6,1-6,12.51v40.4Zm44-47.17c0-4.69,0-4.69-2.87-4.69h-6.25c-9.9,0-13,1.3-16.94,9.9-.78.78-3.13.26-3.39-.78,1.82-6,3.39-12.51,4.17-16.42a2,2,0,0,1,1.3-.52c.52,0,.78,0,1,.52.52,2.61,2.09,2.87,9.38,2.87H490c5.21,0,7-.26,8.34-2.87.52-.26.78-.52,1.3-.52.78,0,1.3.26,1.3.52-1,4.43-2.09,13.81-1.56,17.2a2.69,2.69,0,0,1-3.39.26c-1.3-8.6-3.39-10.69-15.12-10.69H474.6c-2.87,0-2.87.26-2.87,4.69v47.17c0,11.47,1,12,6,12.51l3.91.52c.78.78.78,2.61-.26,3.13-6.25-.26-11.21-.26-15.9-.26s-9.9,0-16.94.26c-.78-.52-1-2.61-.26-3.13l4.69-.52c5.21-.52,6-.78,6-12.25V343.21Zm56,36.23c-2.87,0-2.61,0-3.65,2.87l-4.43,13c-2.09,6.52-1.82,6.78,2.35,7.3l3.13.52c.78.78.78,2.61-.26,3.13-3.39-.26-7-.26-11.47-.26-3.65,0-7,0-10.69.26-.78-.52-.78-2.08,0-3.13l3.39-.52c3.13-.52,4.43-1.3,6-5,1.3-2.87,3.13-7.3,5.21-13.29l14.86-38.83c1.3-3.39,2.35-6,2.09-8.08,3.91-.78,7.3-5.21,7.56-5.21a2.37,2.37,0,0,1,1.82.78c1.82,5,3.13,9.9,5,14.86l15.64,45.61c2.61,7.3,3.13,8.08,8.6,9.12l1.56.26c.78.78.78,2.61,0,3.13-4.43-.26-8.6-.26-14.07-.26-4.69,0-9.38.26-13.29.26-.78-.52-1-2.61-.26-3.13l2.35-.26c3.91-.52,4.17-1,2.87-5.73L534,382c-1-2.87-1.3-2.87-4.43-2.87H515Zm13-5c3.13,0,3.39-.26,2.61-2.87l-4.69-13c-1.82-5.73-2.61-7.82-3.13-8.6-.52.78-1.3,3.39-3.39,8.6L515,371.36c-1.3,3.13-.78,3.13,1.82,3.13Zm105.55,13c0,3.39,0,16.68.26,19.29-.78,1.3-2.35,1.56-3.65,1.56-1.82-2.35-5-6-12.77-14.86l-25.54-29.19c-7-8.08-10.69-12-12.51-13.81-.26,0-.26,1.3-.26,7v21.37c0,8.08,0,18.24,2.09,21.37,1,1.56,2.87,2.35,5.47,2.61l2.35.26c1,.78.78,2.87-.26,3.13-3.91-.26-8.34-.26-12.51-.26-4.69,0-7.56,0-11.21.26a2.37,2.37,0,0,1-.26-3.13l2.35-.52c2.09-.26,3.91-.78,4.69-2.61,1.3-3.39,1.3-12.77,1.3-21.37v-25.8c0-8.6,0-10.16-3.65-13.29-1.3-1-4.17-1.82-5.73-2.08l-1.56-.26c-.78-.78-.78-2.87.52-3.13a110.31,110.31,0,0,0,12.77.26c2.35,0,5,0,7.56-.26,1.82,4.69,13.81,18.5,17.46,22.67l10.95,11.73c4.69,5,14.59,16.68,15.9,17.2.26-.26.26-.78.26-2.61V361.72c0-8.08,0-18.24-2.09-21.37-1-1.56-2.61-2.35-5.47-2.61l-2.61-.26c-1-.78-.78-2.87.26-3.13,4.17.26,8.34.26,12.51.26,4.69,0,7.56,0,11.47-.26a2.37,2.37,0,0,1,.26,3.13l-2.61.52c-2.09.26-3.91.78-4.69,2.61-1.56,3.39-1.56,12.77-1.56,21.37v25.54Zm25-37.53c0-11.47-1-12-6-12.51l-1.82-.26c-.78-.78-.78-2.61.26-3.13,4.17.26,9.38.26,14.07.26H686c7,0,13.29,0,14.59-.26.52,1.82,1,10.42,1.82,15.12-.52.78-2.61,1-3.39.52-1.82-6.25-3.39-9.12-6.78-9.9a31.13,31.13,0,0,0-8.6-1h-7.3c-4.69,0-4.69.26-4.69,6.52v18.5c0,2.87,0,2.87,2.61,2.87h5.21c9.38,0,11.21,0,12-4.69l.78-3.65c.78-.78,2.87-.78,3.39,0,0,2.87-.26,6.78-.26,10.95s.26,8.08.26,11.47c-.52.78-2.61.78-3.39,0l-.78-4.43c-.78-4.69-2.61-4.69-12-4.69h-5.21c-2.61,0-2.61.26-2.61,2.87V388.3c0,5.47.26,9.38,1.82,11.21,1.3,1.56,3.13,2.35,12.25,2.35,13.81.26,16.16-2.87,20.07-11.73a2.28,2.28,0,0,1,3.39.78c-.78,4.69-3.13,12.77-4.69,15.9-4.69-.26-14.07-.26-26.84-.26H665.11c-4.69,0-11.47,0-16.42.26a2.37,2.37,0,0,1-.26-3.13l3.91-.52c5.21-.52,6-.78,6-12.51V350ZM182.18,432.87c0-4.17-.26-4.17-2.08-4.43h-.52c-.26-.26-.26-1,0-1h17.72c.26.78.26,3.65.52,5.47-.26.26-1,.52-1.3.26-.52-2.35-1.3-3.13-2.35-3.65a11.68,11.68,0,0,0-3.13-.26h-2.61c-1.56,0-1.56,0-1.56,2.35v6.52c0,1,0,1,1,1h1.82c3.39,0,4.17,0,4.43-1.82l.26-1.3a1.18,1.18,0,0,1,1.3,0v8.08a1.18,1.18,0,0,1-1.3,0l-.26-1.56c-.26-1.56-1-1.82-4.43-1.82h-1.82c-.78,0-1,0-1,1v5c0,2.08,0,3.39.78,4.17.52.52,1,.78,4.43.78,5,0,5.73-1,7.3-4.17a.91.91,0,0,1,1.3.26,30.28,30.28,0,0,1-1.56,5.73H179.05a.79.79,0,0,1,0-1l1.56-.26c1.82-.26,2.08-.26,2.08-4.43V432.87Zm58.38,13.55v6.78c-.26.52-.78.52-1.3.52-.52-.78-1.82-2.08-4.69-5.47l-9.12-10.42c-2.61-2.87-3.91-4.43-4.43-5V443c0,2.87,0,6.52.78,7.82.26.52,1,.78,2.08,1h.78c.26.26.26,1,0,1h-8.6c-.26-.26-.52-.78,0-1l.78-.26a2,2,0,0,0,1.82-.78c.52-1.3.52-4.69.52-7.82v-9.12c0-3.13,0-3.65-1.3-5a6.81,6.81,0,0,0-2.08-.78h-.52c-.26-.26-.26-1,.26-1a28,28,0,0,0,4.69,0h2.61c.78,1.56,5,6.52,6.25,8.08l3.91,4.17a81.1,81.1,0,0,0,5.73,6.25V437c0-2.87,0-6.52-.78-7.82-.26-.52-1-.78-2.09-1h-.78c-.26-.26-.26-1,0-1h8.6a.79.79,0,0,1,0,1l-.78.26a1.58,1.58,0,0,0-1.56.78c-.52,1.3-.52,4.69-.52,7.82v9.38Zm47.17-13.29c0-3.65,0-4.17-1.56-4.43H284.6c-.26-.26-.26-1,0-1,2.87-.26,5.21-.26,8.6-.26,3.65,0,6.52.52,8.08,1.56a6.89,6.89,0,0,1,3.39,6c0,6-5.73,7.56-8.86,7.56h-1a.79.79,0,0,1,0-1c3.65-.78,5-3.39,5-6.52a5.68,5.68,0,0,0-5.73-6c-2.09,0-2.09,0-2.09,1.56v17.2c0,4.17.26,4.17,2.09,4.43l1.56.26c.26.26.26,1,0,1H284.86a.79.79,0,0,1,0-1h.52c1.82-.26,2.09-.52,2.09-4.43V433.13Zm37,0c0-3.65,0-4.17-1.82-4.43h-1a.79.79,0,0,1,0-1c2.35-.26,5.73-.26,9.12-.26a19.71,19.71,0,0,1,7.56,1.3,5.93,5.93,0,0,1,3.39,5.73c0,3.65-2.87,5.47-4.69,6.25-.26,0-.26.52,0,.78,3.13,5.21,5.21,8.6,7,10.16a4.55,4.55,0,0,0,2.61,1.3.49.49,0,0,1,0,.78c-.52,0-1.3.26-2.61.26-3.65,0-5.73-1.56-8.08-5.21-1-1.56-2.09-3.91-3.13-5.21-.78-1.3-1-1.3-2.35-1.3s-1.3,0-1.3.78v5c0,4.17.26,4.17,2.09,4.43h.78c.26.26.26,1,0,1H321.87c-.26-.26-.52-.78,0-1h.78c1.82-.26,2.09-.26,2.09-4.43V433.13Zm4.69,5.73c0,1.3,0,1.3,1.82,1.3,3.91,0,5.73-1.82,5.73-5.73a5.41,5.41,0,0,0-5.47-5.73c-2.09,0-2.09,0-2.09,1.82v8.34Zm58.38,1.3c0,7.82-6,13.55-13.81,13.55-8.86,0-14.07-6.25-14.07-13.29,0-8.08,5.73-13.81,14.07-13.81,9.12,0,13.81,6.52,13.81,13.55m-22.41-.78c0,5.47,2.35,12.77,9.12,12.77,4.43,0,8.08-3.39,8.08-11.21,0-6-2.61-12.77-8.86-12.77-3.91,0-8.34,2.87-8.34,11.21m54.73,4.17c-1.56,3.65-3.39,8.08-4.17,10.16a2.63,2.63,0,0,1-.78.26,1,1,0,0,1-.78-.26c-.52-1.56-1-3.39-1.82-5.21l-6.78-16.42c-1-2.61-1.56-3.13-3.13-3.39l-1-.26c-.26-.26-.26-1,0-1h9.9a.79.79,0,0,1,0,1l-1,.26c-.78.26-1.3.52-1.3.78s.26,1.3,1.82,5.21l2.87,7c.78,1.82,1.82,4.17,2.09,5,2.09-5,4.43-10.42,6.52-15.64.52-1.56.52-1.82-.78-2.08l-1-.26c-.26-.26-.26-1,0-1h8.08a.79.79,0,0,1,0,1l-1,.26a3.47,3.47,0,0,0-2.35,1.56,58,58,0,0,0-3.91,8.6l-1.3,4.43Zm26.58-10.69c0-4.17-.26-4.17-2.09-4.43h-.52c-.26-.26-.26-1,0-1h17.72c.26.78.26,3.65.52,5.47-.26.26-1,.52-1.3.26-.52-2.35-1.3-3.13-2.35-3.65a11.68,11.68,0,0,0-3.13-.26H453c-1.56,0-1.56,0-1.56,2.35v6.52c0,1,0,1,1,1h1.82c3.39,0,4.17,0,4.43-1.82L459,436a1.18,1.18,0,0,1,1.3,0v8.08a1.18,1.18,0,0,1-1.3,0l-.26-1.56c-.26-1.56-1-1.82-4.43-1.82h-1.82c-.78,0-1,0-1,1v5c0,2.08,0,3.39.78,4.17.52.52,1,.78,4.43.78,5,0,5.73-1,7.3-4.17a.91.91,0,0,1,1.3.26,30.28,30.28,0,0,1-1.56,5.73H443.58a.79.79,0,0,1,0-1l1.56-.26c1.82-.26,2.09-.26,2.09-4.43V432.87Zm58.38,13.55v6.78c-.26.52-.78.52-1.3.52-.52-.78-1.82-2.08-4.69-5.47L490,437.82c-2.61-2.87-3.91-4.43-4.43-5V443c0,2.87,0,6.52.78,7.82.26.52,1,.78,2.09,1h.78c.26.26.26,1,0,1h-8.6c-.26-.26-.52-.78,0-1l.78-.26a2,2,0,0,0,1.82-.78c.52-1.3.52-4.69.52-7.82v-9.12c0-3.13,0-3.65-1.3-5a6.81,6.81,0,0,0-2.09-.78h-.52c-.26-.26-.26-1,.26-1a28,28,0,0,0,4.69,0h2.61c.78,1.56,5,6.52,6.25,8.08l3.91,4.17a81.1,81.1,0,0,0,5.73,6.25V437c0-2.87,0-6.52-.78-7.82-.26-.52-1-.78-2.09-1h-.78c-.26-.26-.26-1,0-1h8.6a.79.79,0,0,1,0,1l-.78.26a1.58,1.58,0,0,0-1.56.78c-.52,1.3-.52,4.69-.52,7.82v9.38Zm44.31-12.51a1.18,1.18,0,0,1-1.3,0c-.78-2.35-2.35-5.73-7.56-5.73-5,0-9.9,3.65-9.9,11.47,0,8.34,5.21,12.51,10.16,12.51s7-3.39,8.08-5.73a.91.91,0,0,1,1.3.26,16.26,16.26,0,0,1-1.82,6,11.29,11.29,0,0,0-1.3.26,22.82,22.82,0,0,1-6,1,18.47,18.47,0,0,1-10.16-2.61,12.46,12.46,0,0,1-5.47-10.69,13,13,0,0,1,5-10.42,18.83,18.83,0,0,1,10.95-3.39,48.59,48.59,0,0,1,6.78.78c.52,0,.78.26,1,.26-.26.78,0,3.13.26,6m20.07-1c0-4.17-.26-4.17-2.09-4.43h-.52c-.26-.26-.26-1,0-1h17.72c.26.78.26,3.65.52,5.47-.26.26-1,.52-1.3.26-.52-2.35-1.3-3.13-2.35-3.65a11.68,11.68,0,0,0-3.13-.26h-2.61c-1.56,0-1.56,0-1.56,2.35v6.52c0,1,0,1,1,1H577c3.39,0,4.17,0,4.43-1.82l.26-1.3a1.18,1.18,0,0,1,1.3,0v8.08a1.18,1.18,0,0,1-1.3,0l-.26-1.56c-.26-1.56-1-1.82-4.43-1.82h-2.09c-.78,0-1,0-1,1v5c0,2.08,0,3.39.78,4.17.52.52,1,.78,4.43.78,5,0,5.73-1,7.3-4.17a.91.91,0,0,1,1.3.26,30.28,30.28,0,0,1-1.56,5.73H566.08a.79.79,0,0,1,0-1l1.56-.26c1.82-.26,2.09-.26,2.09-4.43V432.87Z" transform="translate(-58.84 -314.02)"/></svg>