<svg id="Layer_1" data-name="Layer 1" xmlns="http://www.w3.org/2000/svg" viewBox="0 0 654 171.86"><title>LOreal group logo - Brandlogos.net</title><path d="M537,463.73v-9.45h14.59V448.6H537v-8.78h18v-5.69H530.75v35.28H555v-5.69Zm-51.69-23.8a6,6,0,0,1,2.45.37,6.11,6.11,0,0,1,2.11,1.33,6.25,6.25,0,0,1,1.42,2.07,6.36,6.36,0,0,1,0,5,6.25,6.25,0,0,1-1.42,2.07,6.11,6.11,0,0,1-2.11,1.33,6,6,0,0,1-2.45.37H476V439.93Zm-15.54,29.49H476V458.15h9.26c7.77,0,12.8-4.72,12.8-12.08,0-7.21-5.08-11.93-12.8-11.93H469.75Zm-64.09-35.28v21.63c0,8.68,6.18,14.17,14.94,14.17s14.94-5.48,14.94-14.11V434.14h-6.17v21.68c0,4.77-3.29,8.22-8.76,8.22s-8.71-3.45-8.71-8.28V434.13ZM355.37,464a11.93,11.93,0,0,1-8.2-3.76,12.44,12.44,0,0,1,0-17,11.93,11.93,0,0,1,8.2-3.76c6.52,0,11.5,5,11.5,12.28a11.86,11.86,0,0,1-.7,4.66,11.68,11.68,0,0,1-2.46,4,11.41,11.41,0,0,1-3.81,2.67,11.23,11.23,0,0,1-4.53.92Zm0-30.41a17.56,17.56,0,0,0-9.87,3.09,18.08,18.08,0,0,0-6.52,8.16,18.47,18.47,0,0,0-1,10.48,18.26,18.26,0,0,0,4.88,9.27,17.71,17.71,0,0,0,9.11,5,17.49,17.49,0,0,0,10.27-1,17.88,17.88,0,0,0,8-6.67,18.41,18.41,0,0,0,3-10.07,18.1,18.1,0,0,0-1.25-7,17.82,17.82,0,0,0-3.87-6,17.41,17.41,0,0,0-5.86-3.93A17.14,17.14,0,0,0,355.37,433.63ZM293,439.93c4.18,0,6.47,2.54,6.47,5.74s-2.24,5.89-6.47,5.89h-8.32V439.93Zm-14.54,29.49h6.22V457.34h7.12l8.81,12.08H308l-10-13.45a10.32,10.32,0,0,0,5.71-3.88,10.67,10.67,0,0,0,2.06-6.67c0-6.86-5-11.27-12.8-11.27H278.43ZM245,450.28H230.13v5.23h9.06v7a16.42,16.42,0,0,1-7.52,1.57c-7.12,0-12.4-4.57-12.4-12.34a12.08,12.08,0,0,1,.81-4.72,11.9,11.9,0,0,1,2.57-4,11.64,11.64,0,0,1,3.91-2.65,11.45,11.45,0,0,1,4.62-.86,13.09,13.09,0,0,1,5.24.92,13.29,13.29,0,0,1,4.47,2.94l3.69-4.72a18.89,18.89,0,0,0-13.4-5c-10.36,0-18.22,7.67-18.22,18.12,0,11,7.77,18.18,18.72,18.18A23.69,23.69,0,0,0,245,466Z" transform="translate(-57 -298.07)" style="fill:#3d3d3d"/><path d="M412.8,410.59h84.39v-10.5H427.26V366.45h52.53V355.82H427.26v-31h69.92V314.36H412.8Z" transform="translate(-57 -298.07)" style="fill:#3d3d3d"/><path d="M456.65,298.8l-11.42,13.08L481.1,298.8Z" transform="translate(-57 -298.07)" style="fill:#3d3d3d"/><path d="M625.68,314.36v96.23H711v-10.5H638.87V314.36Z" transform="translate(-57 -298.07)" style="fill:#3d3d3d"/><path d="M551.88,314.36l-48,96.23h16.22l12.28-24.91h57.56l12.38,24.91h16.06l-48-96.23Zm-13.42,59.26,22.61-46,22.89,46Z" transform="translate(-57 -298.07)" style="fill:#3d3d3d"/><path d="M367,370.36c21.62-5.88,23.72-22.29,23.62-28.16C389.33,325,378,314.36,357.55,314.36H298.06v96.23h13.56V370.22h38.73l28.49,40.36h17.1s-20.5-27.16-28.94-40.23Zm-11.3-11.52H311.62V325.75h45.62c10.49,0,16.4,5,18.53,11.35a18.28,18.28,0,0,1-1.82,14c-3.81,6.43-11.05,7.79-18.25,7.79" transform="translate(-57 -298.07)" style="fill:#3d3d3d"/><path d="M216.1,406.76c-26.49,0-48.3-21.69-48.3-47.84a48.81,48.81,0,0,1,49.33-48.84,47.1,47.1,0,0,1,18.45,3.6,47.84,47.84,0,0,1,15.68,10.56,48.91,48.91,0,0,1,10.49,15.9,49.67,49.67,0,0,1,3.68,18.78C265.43,385.06,242.58,406.76,216.1,406.76Zm.46-108.69c-38.28,0-64.37,27.52-64.37,60.82,0,35.06,28.83,59.82,64.37,59.82s64.34-24.4,64.34-59.82C280.9,325.59,254.49,298.07,216.56,298.07Z" transform="translate(-57 -298.07)" style="fill:#3d3d3d"/><path d="M118,348.4h9.78l17.76-34H131.29Z" transform="translate(-57 -298.07)" style="fill:#3d3d3d"/><path d="M57,314.36v96.23h85.31v-10.5H70.2V314.36Z" transform="translate(-57 -298.07)" style="fill:#3d3d3d"/></svg>