<svg xmlns="http://www.w3.org/2000/svg" xmlns:xlink="http://www.w3.org/1999/xlink" width="2000" zoomAndPan="magnify" viewBox="0 0 1500 1499.999933" height="2000" preserveAspectRatio="xMidYMid meet" version="1.0"><defs><g/><clipPath id="1e45370fb6"><path d="M 698.414062 427.6875 L 1350.164062 427.6875 L 1350.164062 449 L 698.414062 449 Z M 698.414062 427.6875 " clip-rule="nonzero"/></clipPath><clipPath id="980766ab1e"><path d="M 1329 427.6875 L 1350.164062 427.6875 L 1350.164062 1079.4375 L 1329 1079.4375 Z M 1329 427.6875 " clip-rule="nonzero"/></clipPath><clipPath id="0ecef0ce91"><rect x="0" width="1030" y="0" height="309"/></clipPath><clipPath id="b0a3563a7f"><path d="M 149.824219 1058 L 801.574219 1058 L 801.574219 1079.261719 L 149.824219 1079.261719 Z M 149.824219 1058 " clip-rule="nonzero"/></clipPath><clipPath id="8dcc2a8cf1"><path d="M 149.824219 427.511719 L 171 427.511719 L 171 1079.261719 L 149.824219 1079.261719 Z M 149.824219 427.511719 " clip-rule="nonzero"/></clipPath></defs><g clip-path="url(#1e45370fb6)"><path fill="#000000" d="M 708.773438 427.851562 L 708.773438 427.847656 L 1340.164062 427.851562 C 1345.820312 427.851562 1350.402344 432.433594 1350.402344 438.089844 C 1350.402344 443.746094 1345.820312 448.328125 1340.164062 448.328125 L 708.773438 448.328125 C 703.117188 448.328125 698.53125 443.746094 698.53125 438.089844 C 698.53125 432.433594 703.117188 427.851562 708.773438 427.851562 Z M 708.773438 427.851562 " fill-opacity="1" fill-rule="nonzero"/></g><g clip-path="url(#980766ab1e)"><path fill="#000000" d="M 1350.167969 1069.246094 L 1350.167969 437.855469 C 1350.167969 432.199219 1345.585938 427.617188 1339.929688 427.617188 C 1334.273438 427.617188 1329.691406 432.199219 1329.691406 437.855469 L 1329.691406 437.851562 L 1329.691406 1069.246094 C 1329.691406 1074.902344 1334.273438 1079.488281 1339.929688 1079.488281 C 1345.585938 1079.488281 1350.167969 1074.902344 1350.167969 1069.246094 Z M 1350.167969 1069.246094 " fill-opacity="1" fill-rule="nonzero"/></g><g transform="matrix(1, 0, 0, 1, 245, 598)"><g clip-path="url(#0ecef0ce91)"><g fill="#000000" fill-opacity="1"><g transform="translate(0.951409, 228.931297)"><g><path d="M 15.375 0 L 15.375 -190.671875 L 60.28125 -190.671875 L 60.28125 -102.09375 C 63.351562 -106.195312 67.242188 -110.398438 71.953125 -114.703125 C 76.671875 -119.015625 82.054688 -122.707031 88.109375 -125.78125 C 94.160156 -128.851562 100.566406 -130.390625 107.328125 -130.390625 C 117.984375 -130.390625 126.539062 -127.617188 133 -122.078125 C 139.457031 -116.546875 142.6875 -110.296875 142.6875 -103.328125 L 142.6875 0 L 97.796875 0 L 97.796875 -104.25 C 97.796875 -112.65625 95.4375 -117.472656 90.71875 -118.703125 C 86.007812 -119.929688 80.78125 -118.085938 75.03125 -113.171875 C 73.800781 -112.148438 71.492188 -109.84375 68.109375 -106.25 C 64.734375 -102.664062 62.125 -99.539062 60.28125 -96.875 L 60.28125 0 Z M 15.375 0 "/></g></g></g><g fill="#000000" fill-opacity="1"><g transform="translate(159.023735, 228.931297)"><g><path d="M 44.59375 3.078125 C 33.925781 3.078125 25.109375 0.207031 18.140625 -5.53125 C 11.171875 -11.269531 7.6875 -18.242188 7.6875 -26.453125 C 7.6875 -34.441406 9.6875 -40.84375 13.6875 -45.65625 C 17.6875 -50.476562 23.222656 -54.53125 30.296875 -57.8125 C 37.367188 -61.09375 45.566406 -64.425781 54.890625 -67.8125 C 64.222656 -71.195312 74.21875 -75.453125 84.875 -80.578125 L 84.875 -102.71875 C 84.875 -109.894531 82.925781 -115.378906 79.03125 -119.171875 C 75.132812 -122.960938 70.316406 -124.859375 64.578125 -124.859375 C 59.046875 -124.859375 54.175781 -123.421875 49.96875 -120.546875 C 45.769531 -117.679688 43.671875 -112.660156 43.671875 -105.484375 C 43.671875 -100.765625 44.488281 -97.175781 46.125 -94.71875 C 47.769531 -92.257812 49.410156 -90.617188 51.046875 -89.796875 C 52.691406 -88.972656 53.515625 -88.5625 53.515625 -88.5625 C 53.515625 -85.695312 51.875 -82.519531 48.59375 -79.03125 C 45.3125 -75.550781 41.207031 -73.601562 36.28125 -73.1875 C 28.289062 -72.375 22.445312 -74.320312 18.75 -79.03125 C 15.0625 -83.75 13.21875 -88.976562 13.21875 -94.71875 C 13.21875 -101.070312 15.523438 -106.757812 20.140625 -111.78125 C 24.753906 -116.8125 31.007812 -120.8125 38.90625 -123.78125 C 46.800781 -126.75 55.460938 -128.234375 64.890625 -128.234375 C 84.566406 -128.234375 100.554688 -123.210938 112.859375 -113.171875 C 118.191406 -108.867188 122.34375 -103.742188 125.3125 -97.796875 C 128.289062 -91.847656 129.78125 -84.976562 129.78125 -77.1875 L 129.78125 -26.140625 C 129.78125 -23.472656 130.085938 -21.0625 130.703125 -18.90625 C 131.316406 -16.757812 132.648438 -15.6875 134.703125 -15.6875 C 135.722656 -15.6875 136.644531 -16.300781 137.46875 -17.53125 C 138.289062 -18.757812 138.800781 -21.628906 139 -26.140625 L 141.46875 -25.828125 C 141.46875 -17.835938 138.644531 -11.019531 133 -5.375 C 127.363281 0.257812 120.550781 3.078125 112.5625 3.078125 C 105.382812 3.078125 99.234375 0.769531 94.109375 -3.84375 C 88.984375 -8.457031 86.007812 -14.25 85.1875 -21.21875 C 82.925781 -17.320312 79.644531 -13.53125 75.34375 -9.84375 C 71.039062 -6.15625 66.222656 -3.078125 60.890625 -0.609375 C 55.554688 1.847656 50.125 3.078125 44.59375 3.078125 Z M 65.203125 -14.453125 C 72.992188 -14.453125 79.550781 -17.734375 84.875 -24.296875 L 84.875 -77.8125 C 74.21875 -71.65625 65.8125 -65.347656 59.65625 -58.890625 C 53.507812 -52.429688 50.4375 -43.769531 50.4375 -32.90625 C 50.4375 -28.1875 51.816406 -23.929688 54.578125 -20.140625 C 57.347656 -16.347656 60.890625 -14.453125 65.203125 -14.453125 Z M 65.203125 -14.453125 "/></g></g></g><g fill="#000000" fill-opacity="1"><g transform="translate(308.177581, 228.931297)"><g><path d="M 39.359375 -142.390625 C 32.796875 -142.390625 27.15625 -144.742188 22.4375 -149.453125 C 17.726562 -154.171875 15.375 -159.914062 15.375 -166.6875 C 15.375 -173.238281 17.726562 -178.875 22.4375 -183.59375 C 27.15625 -188.3125 32.796875 -190.671875 39.359375 -190.671875 C 46.128906 -190.671875 51.867188 -188.3125 56.578125 -183.59375 C 61.296875 -178.875 63.65625 -173.238281 63.65625 -166.6875 C 63.65625 -159.914062 61.296875 -154.171875 56.578125 -149.453125 C 51.867188 -144.742188 46.128906 -142.390625 39.359375 -142.390625 Z M 16.921875 0 L 16.921875 -125.46875 L 61.8125 -125.171875 L 61.8125 0 Z M 16.921875 0 "/></g></g></g><g fill="#000000" fill-opacity="1"><g transform="translate(387.213744, 228.931297)"><g><path d="M 95.640625 -128.234375 C 101.796875 -128.234375 107.742188 -127.101562 113.484375 -124.84375 C 119.222656 -122.59375 123.882812 -118.90625 127.46875 -113.78125 C 131.0625 -108.65625 132.859375 -101.890625 132.859375 -93.484375 C 132.859375 -89.179688 132.085938 -84.875 130.546875 -80.5625 C 129.003906 -76.257812 126.441406 -72.671875 122.859375 -69.796875 C 119.273438 -66.929688 114.40625 -65.5 108.25 -65.5 C 102.101562 -65.5 97.285156 -67.550781 93.796875 -71.65625 C 90.304688 -75.757812 88.359375 -79.757812 87.953125 -83.65625 C 87.953125 -83.65625 89.285156 -84.523438 91.953125 -86.265625 C 94.617188 -88.003906 97.234375 -90.566406 99.796875 -93.953125 C 102.359375 -97.335938 103.640625 -101.488281 103.640625 -106.40625 C 103.640625 -111.125 102.253906 -115.171875 99.484375 -118.546875 C 96.710938 -121.929688 93.070312 -123.625 88.5625 -123.625 C 82.820312 -123.625 77.539062 -121.675781 72.71875 -117.78125 C 67.90625 -113.882812 63.757812 -108.554688 60.28125 -101.796875 L 60.28125 0 L 15.375 0 L 15.375 -125.46875 L 60.28125 -125.46875 L 60.28125 -107.9375 C 64.175781 -114.5 68.992188 -119.519531 74.734375 -123 C 80.472656 -126.488281 87.441406 -128.234375 95.640625 -128.234375 Z M 95.640625 -128.234375 "/></g></g></g><g fill="#000000" fill-opacity="1"><g transform="translate(524.681317, 228.931297)"><g/></g></g><g fill="#000000" fill-opacity="1"><g transform="translate(587.110688, 228.931297)"><g><path d="M 15.375 65.203125 L 15.375 -125.46875 L 60.28125 -125.46875 L 60.28125 -115.9375 C 64.789062 -120.65625 69.757812 -123.9375 75.1875 -125.78125 C 80.625 -127.625 86.414062 -128.546875 92.5625 -128.546875 C 102.195312 -128.546875 110.910156 -125.726562 118.703125 -120.09375 C 126.492188 -114.457031 132.75 -106.816406 137.46875 -97.171875 C 142.1875 -87.535156 144.546875 -76.570312 144.546875 -64.28125 C 144.546875 -51.976562 142.1875 -40.800781 137.46875 -30.75 C 132.75 -20.707031 126.492188 -12.660156 118.703125 -6.609375 C 110.910156 -0.566406 102.195312 2.453125 92.5625 2.453125 C 86.414062 2.453125 80.625 1.125 75.1875 -1.53125 C 69.757812 -4.195312 64.789062 -7.785156 60.28125 -12.296875 L 60.28125 65.203125 Z M 78.109375 -5.84375 C 83.441406 -5.84375 87.644531 -8.40625 90.71875 -13.53125 C 93.789062 -18.65625 95.992188 -25.625 97.328125 -34.4375 C 98.660156 -43.257812 99.328125 -53.207031 99.328125 -64.28125 C 99.328125 -75.34375 98.609375 -85.226562 97.171875 -93.9375 C 95.742188 -102.65625 93.441406 -109.578125 90.265625 -114.703125 C 87.085938 -119.828125 83.035156 -122.390625 78.109375 -122.390625 C 74.421875 -122.390625 71.085938 -121.003906 68.109375 -118.234375 C 65.140625 -115.472656 62.53125 -111.734375 60.28125 -107.015625 L 60.28125 -21.21875 C 62.53125 -16.5 65.140625 -12.753906 68.109375 -9.984375 C 71.085938 -7.222656 74.421875 -5.84375 78.109375 -5.84375 Z M 78.109375 -5.84375 "/></g></g><g transform="translate(739.339893, 228.931297)"><g><path d="M 95.640625 -128.234375 C 101.796875 -128.234375 107.742188 -127.101562 113.484375 -124.84375 C 119.222656 -122.59375 123.882812 -118.90625 127.46875 -113.78125 C 131.0625 -108.65625 132.859375 -101.890625 132.859375 -93.484375 C 132.859375 -89.179688 132.085938 -84.875 130.546875 -80.5625 C 129.003906 -76.257812 126.441406 -72.671875 122.859375 -69.796875 C 119.273438 -66.929688 114.40625 -65.5 108.25 -65.5 C 102.101562 -65.5 97.285156 -67.550781 93.796875 -71.65625 C 90.304688 -75.757812 88.359375 -79.757812 87.953125 -83.65625 C 87.953125 -83.65625 89.285156 -84.523438 91.953125 -86.265625 C 94.617188 -88.003906 97.234375 -90.566406 99.796875 -93.953125 C 102.359375 -97.335938 103.640625 -101.488281 103.640625 -106.40625 C 103.640625 -111.125 102.253906 -115.171875 99.484375 -118.546875 C 96.710938 -121.929688 93.070312 -123.625 88.5625 -123.625 C 82.820312 -123.625 77.539062 -121.675781 72.71875 -117.78125 C 67.90625 -113.882812 63.757812 -108.554688 60.28125 -101.796875 L 60.28125 0 L 15.375 0 L 15.375 -125.46875 L 60.28125 -125.46875 L 60.28125 -107.9375 C 64.175781 -114.5 68.992188 -119.519531 74.734375 -123 C 80.472656 -126.488281 87.441406 -128.234375 95.640625 -128.234375 Z M 95.640625 -128.234375 "/></g></g></g><g fill="#000000" fill-opacity="1"><g transform="translate(876.807382, 228.931297)"><g><path d="M 75.65625 3.078125 C 63.144531 3.078125 51.765625 0.15625 41.515625 -5.6875 C 31.265625 -11.53125 23.0625 -19.472656 16.90625 -29.515625 C 10.757812 -39.566406 7.6875 -50.640625 7.6875 -62.734375 C 7.6875 -74.828125 10.757812 -85.847656 16.90625 -95.796875 C 23.0625 -105.742188 31.265625 -113.632812 41.515625 -119.46875 C 51.765625 -125.3125 63.144531 -128.234375 75.65625 -128.234375 C 88.15625 -128.234375 99.53125 -125.3125 109.78125 -119.46875 C 120.039062 -113.632812 128.242188 -105.742188 134.390625 -95.796875 C 140.535156 -85.847656 143.609375 -74.828125 143.609375 -62.734375 C 143.609375 -50.640625 140.535156 -39.566406 134.390625 -29.515625 C 128.242188 -19.472656 120.039062 -11.53125 109.78125 -5.6875 C 99.53125 0.15625 88.15625 3.078125 75.65625 3.078125 Z M 75.65625 0 C 81.394531 0 85.953125 -2.765625 89.328125 -8.296875 C 92.710938 -13.835938 95.125 -21.320312 96.5625 -30.75 C 98 -40.1875 98.71875 -50.847656 98.71875 -62.734375 C 98.71875 -74.628906 97.894531 -85.289062 96.25 -94.71875 C 94.613281 -104.144531 92.101562 -111.625 88.71875 -117.15625 C 85.34375 -122.695312 80.988281 -125.46875 75.65625 -125.46875 C 70.113281 -125.46875 65.648438 -122.695312 62.265625 -117.15625 C 58.890625 -111.625 56.429688 -104.144531 54.890625 -94.71875 C 53.359375 -85.289062 52.59375 -74.628906 52.59375 -62.734375 C 52.59375 -50.847656 53.359375 -40.1875 54.890625 -30.75 C 56.429688 -21.320312 58.890625 -13.835938 62.265625 -8.296875 C 65.648438 -2.765625 70.113281 0 75.65625 0 Z M 75.65625 0 "/></g></g></g></g></g><g clip-path="url(#b0a3563a7f)"><path fill="#000000" d="M 791.21875 1079.101562 L 159.824219 1079.101562 C 154.171875 1079.101562 149.585938 1074.515625 149.585938 1068.859375 C 149.585938 1063.207031 154.171875 1058.621094 159.824219 1058.621094 L 159.824219 1058.625 L 791.21875 1058.621094 C 796.875 1058.621094 801.457031 1063.207031 801.457031 1068.859375 C 801.457031 1074.515625 796.875 1079.101562 791.21875 1079.101562 Z M 791.21875 1079.101562 " fill-opacity="1" fill-rule="nonzero"/></g><g clip-path="url(#8dcc2a8cf1)"><path fill="#000000" d="M 149.820312 437.703125 L 149.820312 1069.09375 C 149.820312 1074.75 154.40625 1079.335938 160.0625 1079.335938 C 165.714844 1079.335938 170.300781 1074.75 170.300781 1069.09375 L 170.300781 1069.097656 L 170.300781 437.703125 C 170.300781 432.046875 165.714844 427.464844 160.0625 427.464844 C 154.40625 427.464844 149.820312 432.046875 149.820312 437.703125 Z M 149.820312 437.703125 " fill-opacity="1" fill-rule="nonzero"/></g></svg>