<svg xmlns="http://www.w3.org/2000/svg" xmlns:xlink="http://www.w3.org/1999/xlink" width="150" zoomAndPan="magnify" viewBox="0 0 112.5 37.5" height="50" preserveAspectRatio="xMidYMid meet" version="1.0"><defs><g/><clipPath id="3c72e5a943"><path d="M 53.074219 0 L 90.082031 0 L 90.082031 2 L 53.074219 2 Z M 53.074219 0 " clip-rule="nonzero"/></clipPath><clipPath id="2bc6d61f61"><path d="M 88 0 L 90.082031 0 L 90.082031 37.007812 L 88 37.007812 Z M 88 0 " clip-rule="nonzero"/></clipPath><clipPath id="b2c0c8c748"><rect x="0" width="63" y="0" height="23"/></clipPath><clipPath id="647b9e8af0"><path d="M 21.925781 35 L 58.933594 35 L 58.933594 37 L 21.925781 37 Z M 21.925781 35 " clip-rule="nonzero"/></clipPath><clipPath id="6b559cbb20"><path d="M 21.925781 0 L 24 0 L 24 37.007812 L 21.925781 37.007812 Z M 21.925781 0 " clip-rule="nonzero"/></clipPath><clipPath id="2237835cf0"><path d="M 0.652344 1 L 3 1 L 3 4 L 0.652344 4 Z M 0.652344 1 " clip-rule="nonzero"/></clipPath><clipPath id="e62b06b2e6"><path d="M 4 0.289062 L 6 0.289062 L 6 4 L 4 4 Z M 4 0.289062 " clip-rule="nonzero"/></clipPath><clipPath id="064ae1b45a"><path d="M 7 0.289062 L 8 0.289062 L 8 4 L 7 4 Z M 7 0.289062 " clip-rule="nonzero"/></clipPath><clipPath id="0c6d727329"><path d="M 16 0.289062 L 19 0.289062 L 19 4 L 16 4 Z M 16 0.289062 " clip-rule="nonzero"/></clipPath><clipPath id="515d24151b"><path d="M 27 0.289062 L 30 0.289062 L 30 4 L 27 4 Z M 27 0.289062 " clip-rule="nonzero"/></clipPath><clipPath id="7d05bda360"><path d="M 33 0.289062 L 36 0.289062 L 36 4 L 33 4 Z M 33 0.289062 " clip-rule="nonzero"/></clipPath><clipPath id="394f167a78"><path d="M 41 0.289062 L 42 0.289062 L 42 4 L 41 4 Z M 41 0.289062 " clip-rule="nonzero"/></clipPath><clipPath id="329b8f6742"><rect x="0" width="48" y="0" height="5"/></clipPath></defs><g clip-path="url(#3c72e5a943)"><path fill="#000000" d="M 53.660156 0.0078125 L 89.511719 0.0078125 C 89.832031 0.0078125 90.09375 0.269531 90.09375 0.589844 C 90.09375 0.910156 89.832031 1.171875 89.511719 1.171875 L 53.660156 1.171875 C 53.339844 1.171875 53.082031 0.910156 53.082031 0.589844 C 53.082031 0.269531 53.339844 0.0078125 53.660156 0.0078125 Z M 53.660156 0.0078125 " fill-opacity="1" fill-rule="nonzero"/></g><g clip-path="url(#2bc6d61f61)"><path fill="#000000" d="M 90.082031 36.429688 L 90.082031 0.578125 C 90.082031 0.257812 89.820312 -0.00390625 89.5 -0.00390625 C 89.179688 -0.00390625 88.917969 0.257812 88.917969 0.578125 L 88.917969 36.429688 C 88.917969 36.75 89.179688 37.007812 89.5 37.007812 C 89.820312 37.007812 90.082031 36.75 90.082031 36.429688 Z M 90.082031 36.429688 " fill-opacity="1" fill-rule="nonzero"/></g><g transform="matrix(1, 0, 0, 1, 25, 4)"><g clip-path="url(#b2c0c8c748)"><g fill="#000000" fill-opacity="1"><g transform="translate(0.416773, 16.023873)"><g><path d="M 1.015625 0 L 1.015625 -14.46875 L 3.984375 -14.46875 L 3.984375 -7.71875 L 4.015625 -7.71875 C 4.796875 -8.5 5.625 -8.890625 6.5 -8.890625 C 6.925781 -8.890625 7.347656 -8.832031 7.765625 -8.71875 C 8.179688 -8.601562 8.582031 -8.425781 8.96875 -8.1875 C 9.363281 -7.957031 9.679688 -7.625 9.921875 -7.1875 C 10.160156 -6.757812 10.28125 -6.257812 10.28125 -5.6875 L 10.28125 0 L 7.296875 0 L 7.296875 -4.875 C 7.296875 -5.320312 7.148438 -5.710938 6.859375 -6.046875 C 6.578125 -6.390625 6.207031 -6.5625 5.75 -6.5625 C 5.300781 -6.5625 4.894531 -6.382812 4.53125 -6.03125 C 4.164062 -5.6875 3.984375 -5.300781 3.984375 -4.875 L 3.984375 0 Z M 1.015625 0 "/></g></g></g><g fill="#000000" fill-opacity="1"><g transform="translate(10.054059, 16.023873)"><g><path d="M 1.59375 -1.0625 C 0.789062 -1.945312 0.390625 -3.023438 0.390625 -4.296875 C 0.390625 -5.578125 0.789062 -6.660156 1.59375 -7.546875 C 2.40625 -8.441406 3.429688 -8.890625 4.671875 -8.890625 C 5.816406 -8.890625 6.757812 -8.53125 7.5 -7.8125 L 7.5 -8.625 L 10.484375 -8.625 L 10.484375 0 L 7.53125 0 L 7.53125 -0.96875 L 7.5 -0.96875 C 6.757812 -0.15625 5.816406 0.25 4.671875 0.25 C 3.429688 0.25 2.40625 -0.1875 1.59375 -1.0625 Z M 4.125 -5.765625 C 3.738281 -5.390625 3.546875 -4.90625 3.546875 -4.3125 C 3.546875 -3.71875 3.726562 -3.226562 4.09375 -2.84375 C 4.46875 -2.46875 4.957031 -2.28125 5.5625 -2.28125 C 6.144531 -2.28125 6.625 -2.472656 7 -2.859375 C 7.382812 -3.242188 7.578125 -3.726562 7.578125 -4.3125 C 7.578125 -4.90625 7.378906 -5.390625 6.984375 -5.765625 C 6.597656 -6.148438 6.125 -6.34375 5.5625 -6.34375 C 5 -6.34375 4.519531 -6.148438 4.125 -5.765625 Z M 4.125 -5.765625 "/></g></g></g><g fill="#000000" fill-opacity="1"><g transform="translate(20.061384, 16.023873)"><g><path d="M 1.296875 -13.4375 C 1.640625 -13.789062 2.050781 -13.96875 2.53125 -13.96875 C 3.019531 -13.96875 3.4375 -13.789062 3.78125 -13.4375 C 4.132812 -13.09375 4.3125 -12.679688 4.3125 -12.203125 C 4.3125 -11.722656 4.132812 -11.304688 3.78125 -10.953125 C 3.4375 -10.609375 3.019531 -10.4375 2.53125 -10.4375 C 2.050781 -10.4375 1.640625 -10.609375 1.296875 -10.953125 C 0.953125 -11.304688 0.78125 -11.722656 0.78125 -12.203125 C 0.78125 -12.679688 0.953125 -13.09375 1.296875 -13.4375 Z M 1.015625 -8.625 L 1.015625 0 L 3.984375 0 L 3.984375 -8.625 Z M 1.015625 -8.625 "/></g></g></g><g fill="#000000" fill-opacity="1"><g transform="translate(23.660225, 16.023873)"><g><path d="M 1.015625 0 L 1.015625 -8.625 L 3.984375 -8.625 L 3.984375 -7.390625 L 4.015625 -7.390625 C 4.046875 -7.429688 4.082031 -7.484375 4.125 -7.546875 C 4.175781 -7.617188 4.285156 -7.738281 4.453125 -7.90625 C 4.628906 -8.070312 4.8125 -8.222656 5 -8.359375 C 5.1875 -8.492188 5.429688 -8.613281 5.734375 -8.71875 C 6.035156 -8.832031 6.34375 -8.890625 6.65625 -8.890625 C 6.988281 -8.890625 7.3125 -8.84375 7.625 -8.75 C 7.9375 -8.65625 8.164062 -8.566406 8.3125 -8.484375 L 8.546875 -8.34375 L 7.296875 -5.828125 C 6.929688 -6.140625 6.414062 -6.296875 5.75 -6.296875 C 5.394531 -6.296875 5.085938 -6.21875 4.828125 -6.0625 C 4.566406 -5.90625 4.382812 -5.710938 4.28125 -5.484375 C 4.175781 -5.265625 4.097656 -5.070312 4.046875 -4.90625 C 4.003906 -4.75 3.984375 -4.628906 3.984375 -4.546875 L 3.984375 0 Z M 1.015625 0 "/></g></g></g><g fill="#000000" fill-opacity="1"><g transform="translate(30.55582, 16.023873)"><g/></g></g><g fill="#000000" fill-opacity="1"><g transform="translate(33.666882, 16.023873)"><g><path d="M 9.890625 -7.5625 C 10.703125 -6.6875 11.109375 -5.609375 11.109375 -4.328125 C 11.109375 -3.046875 10.703125 -1.960938 9.890625 -1.078125 C 9.085938 -0.191406 8.0625 0.25 6.8125 0.25 C 5.664062 0.25 4.722656 -0.109375 3.984375 -0.828125 L 3.984375 4.375 L 1.015625 4.375 L 1.015625 -8.625 L 3.953125 -8.625 L 3.953125 -7.65625 L 3.984375 -7.65625 C 4.722656 -8.476562 5.664062 -8.890625 6.8125 -8.890625 C 8.0625 -8.890625 9.085938 -8.445312 9.890625 -7.5625 Z M 7.359375 -2.859375 C 7.742188 -3.242188 7.9375 -3.734375 7.9375 -4.328125 C 7.9375 -4.921875 7.75 -5.40625 7.375 -5.78125 C 7.007812 -6.15625 6.523438 -6.34375 5.921875 -6.34375 C 5.335938 -6.34375 4.859375 -6.148438 4.484375 -5.765625 C 4.109375 -5.390625 3.921875 -4.910156 3.921875 -4.328125 C 3.921875 -3.734375 4.113281 -3.242188 4.5 -2.859375 C 4.882812 -2.472656 5.359375 -2.28125 5.921875 -2.28125 C 6.492188 -2.28125 6.972656 -2.472656 7.359375 -2.859375 Z M 7.359375 -2.859375 "/></g></g></g><g fill="#000000" fill-opacity="1"><g transform="translate(43.674206, 16.023873)"><g><path d="M 1.015625 0 L 1.015625 -8.625 L 3.984375 -8.625 L 3.984375 -7.390625 L 4.015625 -7.390625 C 4.046875 -7.429688 4.082031 -7.484375 4.125 -7.546875 C 4.175781 -7.617188 4.285156 -7.738281 4.453125 -7.90625 C 4.628906 -8.070312 4.8125 -8.222656 5 -8.359375 C 5.1875 -8.492188 5.429688 -8.613281 5.734375 -8.71875 C 6.035156 -8.832031 6.34375 -8.890625 6.65625 -8.890625 C 6.988281 -8.890625 7.3125 -8.84375 7.625 -8.75 C 7.9375 -8.65625 8.164062 -8.566406 8.3125 -8.484375 L 8.546875 -8.34375 L 7.296875 -5.828125 C 6.929688 -6.140625 6.414062 -6.296875 5.75 -6.296875 C 5.394531 -6.296875 5.085938 -6.21875 4.828125 -6.0625 C 4.566406 -5.90625 4.382812 -5.710938 4.28125 -5.484375 C 4.175781 -5.265625 4.097656 -5.070312 4.046875 -4.90625 C 4.003906 -4.75 3.984375 -4.628906 3.984375 -4.546875 L 3.984375 0 Z M 1.015625 0 "/></g></g></g><g fill="#000000" fill-opacity="1"><g transform="translate(50.468857, 16.023873)"><g><path d="M 1.828125 -1.03125 C 0.867188 -1.882812 0.390625 -2.976562 0.390625 -4.3125 C 0.390625 -5.644531 0.882812 -6.738281 1.875 -7.59375 C 2.875 -8.457031 4.113281 -8.890625 5.59375 -8.890625 C 7.03125 -8.890625 8.242188 -8.457031 9.234375 -7.59375 C 10.234375 -6.726562 10.734375 -5.632812 10.734375 -4.3125 C 10.734375 -2.988281 10.25 -1.894531 9.28125 -1.03125 C 8.3125 -0.175781 7.082031 0.25 5.59375 0.25 C 4.039062 0.25 2.785156 -0.175781 1.828125 -1.03125 Z M 4.125 -5.765625 C 3.738281 -5.390625 3.546875 -4.90625 3.546875 -4.3125 C 3.546875 -3.71875 3.726562 -3.226562 4.09375 -2.84375 C 4.46875 -2.46875 4.957031 -2.28125 5.5625 -2.28125 C 6.144531 -2.28125 6.625 -2.472656 7 -2.859375 C 7.382812 -3.242188 7.578125 -3.726562 7.578125 -4.3125 C 7.578125 -4.90625 7.378906 -5.390625 6.984375 -5.765625 C 6.597656 -6.148438 6.125 -6.34375 5.5625 -6.34375 C 5 -6.34375 4.519531 -6.148438 4.125 -5.765625 Z M 4.125 -5.765625 "/></g></g></g></g></g><g clip-path="url(#647b9e8af0)"><path fill="#000000" d="M 58.34375 36.996094 L 22.496094 36.996094 C 22.171875 36.996094 21.914062 36.738281 21.914062 36.414062 C 21.914062 36.09375 22.171875 35.835938 22.496094 35.835938 L 58.34375 35.835938 C 58.667969 35.835938 58.925781 36.09375 58.925781 36.414062 C 58.925781 36.738281 58.667969 36.996094 58.34375 36.996094 Z M 58.34375 36.996094 " fill-opacity="1" fill-rule="nonzero"/></g><g clip-path="url(#6b559cbb20)"><path fill="#000000" d="M 21.925781 0.578125 L 21.925781 36.429688 C 21.925781 36.75 22.1875 37.011719 22.507812 37.011719 C 22.828125 37.011719 23.089844 36.75 23.089844 36.429688 L 23.089844 0.578125 C 23.089844 0.257812 22.828125 -0.00390625 22.507812 -0.00390625 C 22.1875 -0.00390625 21.925781 0.257812 21.925781 0.578125 Z M 21.925781 0.578125 " fill-opacity="1" fill-rule="nonzero"/></g><g transform="matrix(1, 0, 0, 1, 33, 26)"><g clip-path="url(#329b8f6742)"><g clip-path="url(#2237835cf0)"><g fill="#000000" fill-opacity="1"><g transform="translate(0.730485, 3.059682)"><g><path d="M 0.28125 -0.1875 C 0.132812 -0.34375 0.0625 -0.535156 0.0625 -0.765625 C 0.0625 -0.992188 0.132812 -1.1875 0.28125 -1.34375 C 0.425781 -1.507812 0.613281 -1.59375 0.84375 -1.59375 C 1.039062 -1.59375 1.207031 -1.53125 1.34375 -1.40625 L 1.34375 -1.546875 L 1.875 -1.546875 L 1.875 0 L 1.34375 0 L 1.34375 -0.171875 C 1.207031 -0.0234375 1.039062 0.046875 0.84375 0.046875 C 0.613281 0.046875 0.425781 -0.03125 0.28125 -0.1875 Z M 0.734375 -1.03125 C 0.671875 -0.96875 0.640625 -0.878906 0.640625 -0.765625 C 0.640625 -0.660156 0.671875 -0.570312 0.734375 -0.5 C 0.796875 -0.4375 0.882812 -0.40625 1 -0.40625 C 1.101562 -0.40625 1.1875 -0.4375 1.25 -0.5 C 1.320312 -0.570312 1.359375 -0.660156 1.359375 -0.765625 C 1.359375 -0.878906 1.320312 -0.96875 1.25 -1.03125 C 1.1875 -1.101562 1.101562 -1.140625 1 -1.140625 C 0.894531 -1.140625 0.804688 -1.101562 0.734375 -1.03125 Z M 0.734375 -1.03125 "/></g></g></g></g><g clip-path="url(#e62b06b2e6)"><g fill="#000000" fill-opacity="1"><g transform="translate(4.583175, 3.059682)"><g><path d="M 0.1875 0 L 0.1875 -2.59375 L 0.71875 -2.59375 L 0.71875 0 Z M 0.1875 0 "/></g></g></g></g><g clip-path="url(#064ae1b45a)"><g fill="#000000" fill-opacity="1"><g transform="translate(7.273125, 3.059682)"><g><path d="M 0.1875 0 L 0.1875 -2.59375 L 0.71875 -2.59375 L 0.71875 0 Z M 0.1875 0 "/></g></g></g></g><g fill="#000000" fill-opacity="1"><g transform="translate(9.963075, 3.059682)"><g/></g></g><g fill="#000000" fill-opacity="1"><g transform="translate(12.580728, 3.059682)"><g><path d="M 0.28125 -0.1875 C 0.132812 -0.34375 0.0625 -0.535156 0.0625 -0.765625 C 0.0625 -0.992188 0.132812 -1.1875 0.28125 -1.34375 C 0.425781 -1.507812 0.613281 -1.59375 0.84375 -1.59375 C 1.039062 -1.59375 1.207031 -1.53125 1.34375 -1.40625 L 1.34375 -1.546875 L 1.875 -1.546875 L 1.875 0 L 1.34375 0 L 1.34375 -0.171875 C 1.207031 -0.0234375 1.039062 0.046875 0.84375 0.046875 C 0.613281 0.046875 0.425781 -0.03125 0.28125 -0.1875 Z M 0.734375 -1.03125 C 0.671875 -0.96875 0.640625 -0.878906 0.640625 -0.765625 C 0.640625 -0.660156 0.671875 -0.570312 0.734375 -0.5 C 0.796875 -0.4375 0.882812 -0.40625 1 -0.40625 C 1.101562 -0.40625 1.1875 -0.4375 1.25 -0.5 C 1.320312 -0.570312 1.359375 -0.660156 1.359375 -0.765625 C 1.359375 -0.878906 1.320312 -0.96875 1.25 -1.03125 C 1.1875 -1.101562 1.101562 -1.140625 1 -1.140625 C 0.894531 -1.140625 0.804688 -1.101562 0.734375 -1.03125 Z M 0.734375 -1.03125 "/></g></g></g><g clip-path="url(#0c6d727329)"><g fill="#000000" fill-opacity="1"><g transform="translate(16.433418, 3.059682)"><g><path d="M 1.765625 -1.34375 C 1.910156 -1.1875 1.984375 -0.992188 1.984375 -0.765625 C 1.984375 -0.535156 1.910156 -0.34375 1.765625 -0.1875 C 1.628906 -0.03125 1.445312 0.046875 1.21875 0.046875 C 1.007812 0.046875 0.84375 -0.0234375 0.71875 -0.171875 L 0.703125 -0.171875 L 0.703125 0 L 0.1875 0 L 0.1875 -2.59375 L 0.71875 -2.59375 L 0.71875 -1.40625 C 0.84375 -1.53125 1.007812 -1.59375 1.21875 -1.59375 C 1.445312 -1.59375 1.628906 -1.507812 1.765625 -1.34375 Z M 1.3125 -0.5 C 1.382812 -0.570312 1.421875 -0.660156 1.421875 -0.765625 C 1.421875 -0.878906 1.382812 -0.96875 1.3125 -1.03125 C 1.25 -1.101562 1.164062 -1.140625 1.0625 -1.140625 C 0.957031 -1.140625 0.867188 -1.101562 0.796875 -1.03125 C 0.734375 -0.96875 0.703125 -0.878906 0.703125 -0.765625 C 0.703125 -0.660156 0.734375 -0.570312 0.796875 -0.5 C 0.867188 -0.4375 0.957031 -0.40625 1.0625 -0.40625 C 1.164062 -0.40625 1.25 -0.4375 1.3125 -0.5 Z M 1.3125 -0.5 "/></g></g></g></g><g fill="#000000" fill-opacity="1"><g transform="translate(20.286108, 3.059682)"><g><path d="M 0.3125 -0.171875 C 0.144531 -0.328125 0.0625 -0.523438 0.0625 -0.765625 C 0.0625 -1.003906 0.148438 -1.203125 0.328125 -1.359375 C 0.515625 -1.515625 0.738281 -1.59375 1 -1.59375 C 1.257812 -1.59375 1.476562 -1.515625 1.65625 -1.359375 C 1.832031 -1.203125 1.921875 -1.003906 1.921875 -0.765625 C 1.921875 -0.535156 1.832031 -0.34375 1.65625 -0.1875 C 1.488281 -0.03125 1.269531 0.046875 1 0.046875 C 0.71875 0.046875 0.488281 -0.0234375 0.3125 -0.171875 Z M 0.734375 -1.03125 C 0.671875 -0.96875 0.640625 -0.878906 0.640625 -0.765625 C 0.640625 -0.660156 0.671875 -0.570312 0.734375 -0.5 C 0.796875 -0.4375 0.882812 -0.40625 1 -0.40625 C 1.101562 -0.40625 1.1875 -0.4375 1.25 -0.5 C 1.320312 -0.570312 1.359375 -0.660156 1.359375 -0.765625 C 1.359375 -0.878906 1.320312 -0.96875 1.25 -1.03125 C 1.1875 -1.101562 1.101562 -1.140625 1 -1.140625 C 0.894531 -1.140625 0.804688 -1.101562 0.734375 -1.03125 Z M 0.734375 -1.03125 "/></g></g></g><g fill="#000000" fill-opacity="1"><g transform="translate(24.072526, 3.059682)"><g><path d="M 0.6875 -1.546875 L 0.6875 -0.8125 C 0.6875 -0.65625 0.707031 -0.546875 0.75 -0.484375 C 0.800781 -0.421875 0.878906 -0.390625 0.984375 -0.390625 C 1.097656 -0.390625 1.175781 -0.421875 1.21875 -0.484375 C 1.269531 -0.546875 1.296875 -0.65625 1.296875 -0.8125 L 1.296875 -1.546875 L 1.828125 -1.546875 L 1.828125 -0.6875 C 1.828125 -0.425781 1.757812 -0.238281 1.625 -0.125 C 1.488281 -0.0078125 1.273438 0.046875 0.984375 0.046875 C 0.691406 0.046875 0.476562 -0.0078125 0.34375 -0.125 C 0.21875 -0.238281 0.15625 -0.425781 0.15625 -0.6875 L 0.15625 -1.546875 Z M 0.6875 -1.546875 "/></g></g></g><g clip-path="url(#515d24151b)"><g fill="#000000" fill-opacity="1"><g transform="translate(27.828823, 3.059682)"><g><path d="M 0.265625 -1.546875 L 0.265625 -2.125 L 0.8125 -2.125 L 0.8125 -1.546875 L 1.125 -1.546875 L 1.125 -1.140625 L 0.8125 -1.140625 L 0.8125 -0.640625 C 0.8125 -0.503906 0.847656 -0.4375 0.921875 -0.4375 C 0.941406 -0.4375 0.960938 -0.4375 0.984375 -0.4375 C 1.003906 -0.445312 1.023438 -0.457031 1.046875 -0.46875 L 1.0625 -0.484375 L 1.1875 -0.046875 C 1.070312 0.015625 0.941406 0.046875 0.796875 0.046875 C 0.691406 0.046875 0.601562 0.03125 0.53125 0 C 0.46875 -0.0390625 0.414062 -0.0859375 0.375 -0.140625 C 0.332031 -0.203125 0.300781 -0.265625 0.28125 -0.328125 C 0.269531 -0.398438 0.265625 -0.472656 0.265625 -0.546875 L 0.265625 -1.140625 L 0.046875 -1.140625 L 0.046875 -1.546875 Z M 0.265625 -1.546875 "/></g></g></g></g><g fill="#000000" fill-opacity="1"><g transform="translate(30.813977, 3.059682)"><g/></g></g><g clip-path="url(#7d05bda360)"><g fill="#000000" fill-opacity="1"><g transform="translate(33.431631, 3.059682)"><g><path d="M 0.1875 0 L 0.1875 -2.59375 L 0.71875 -2.59375 L 0.71875 -1.390625 C 0.851562 -1.523438 1 -1.59375 1.15625 -1.59375 C 1.238281 -1.59375 1.316406 -1.582031 1.390625 -1.5625 C 1.460938 -1.539062 1.535156 -1.507812 1.609375 -1.46875 C 1.679688 -1.425781 1.738281 -1.363281 1.78125 -1.28125 C 1.820312 -1.207031 1.84375 -1.117188 1.84375 -1.015625 L 1.84375 0 L 1.3125 0 L 1.3125 -0.875 C 1.3125 -0.957031 1.285156 -1.023438 1.234375 -1.078125 C 1.179688 -1.140625 1.113281 -1.171875 1.03125 -1.171875 C 0.945312 -1.171875 0.875 -1.140625 0.8125 -1.078125 C 0.75 -1.015625 0.71875 -0.945312 0.71875 -0.875 L 0.71875 0 Z M 0.1875 0 "/></g></g></g></g><g fill="#000000" fill-opacity="1"><g transform="translate(37.218049, 3.059682)"><g><path d="M 0.28125 -0.1875 C 0.132812 -0.34375 0.0625 -0.535156 0.0625 -0.765625 C 0.0625 -0.992188 0.132812 -1.1875 0.28125 -1.34375 C 0.425781 -1.507812 0.613281 -1.59375 0.84375 -1.59375 C 1.039062 -1.59375 1.207031 -1.53125 1.34375 -1.40625 L 1.34375 -1.546875 L 1.875 -1.546875 L 1.875 0 L 1.34375 0 L 1.34375 -0.171875 C 1.207031 -0.0234375 1.039062 0.046875 0.84375 0.046875 C 0.613281 0.046875 0.425781 -0.03125 0.28125 -0.1875 Z M 0.734375 -1.03125 C 0.671875 -0.96875 0.640625 -0.878906 0.640625 -0.765625 C 0.640625 -0.660156 0.671875 -0.570312 0.734375 -0.5 C 0.796875 -0.4375 0.882812 -0.40625 1 -0.40625 C 1.101562 -0.40625 1.1875 -0.4375 1.25 -0.5 C 1.320312 -0.570312 1.359375 -0.660156 1.359375 -0.765625 C 1.359375 -0.878906 1.320312 -0.96875 1.25 -1.03125 C 1.1875 -1.101562 1.101562 -1.140625 1 -1.140625 C 0.894531 -1.140625 0.804688 -1.101562 0.734375 -1.03125 Z M 0.734375 -1.03125 "/></g></g></g><g clip-path="url(#394f167a78)"><g fill="#000000" fill-opacity="1"><g transform="translate(41.070739, 3.059682)"><g><path d="M 0.234375 -2.40625 C 0.296875 -2.46875 0.367188 -2.5 0.453125 -2.5 C 0.535156 -2.5 0.609375 -2.46875 0.671875 -2.40625 C 0.734375 -2.34375 0.765625 -2.269531 0.765625 -2.1875 C 0.765625 -2.101562 0.734375 -2.03125 0.671875 -1.96875 C 0.609375 -1.90625 0.535156 -1.875 0.453125 -1.875 C 0.367188 -1.875 0.296875 -1.90625 0.234375 -1.96875 C 0.171875 -2.03125 0.140625 -2.101562 0.140625 -2.1875 C 0.140625 -2.269531 0.171875 -2.34375 0.234375 -2.40625 Z M 0.1875 -1.546875 L 0.1875 0 L 0.71875 0 L 0.71875 -1.546875 Z M 0.1875 -1.546875 "/></g></g></g></g><g fill="#000000" fill-opacity="1"><g transform="translate(43.77575, 3.059682)"><g><path d="M 0.1875 0 L 0.1875 -1.546875 L 0.71875 -1.546875 L 0.71875 -1.328125 C 0.726562 -1.328125 0.734375 -1.332031 0.734375 -1.34375 C 0.742188 -1.363281 0.765625 -1.390625 0.796875 -1.421875 C 0.828125 -1.453125 0.859375 -1.476562 0.890625 -1.5 C 0.929688 -1.519531 0.976562 -1.539062 1.03125 -1.5625 C 1.082031 -1.582031 1.132812 -1.59375 1.1875 -1.59375 C 1.25 -1.59375 1.304688 -1.582031 1.359375 -1.5625 C 1.421875 -1.550781 1.460938 -1.535156 1.484375 -1.515625 L 1.53125 -1.5 L 1.3125 -1.046875 C 1.238281 -1.097656 1.144531 -1.125 1.03125 -1.125 C 0.96875 -1.125 0.910156 -1.109375 0.859375 -1.078125 C 0.816406 -1.054688 0.785156 -1.023438 0.765625 -0.984375 C 0.742188 -0.941406 0.726562 -0.90625 0.71875 -0.875 C 0.71875 -0.851562 0.71875 -0.832031 0.71875 -0.8125 L 0.71875 0 Z M 0.1875 0 "/></g></g></g></g></g></svg>