<svg xmlns="http://www.w3.org/2000/svg" xmlns:xlink="http://www.w3.org/1999/xlink" width="100" zoomAndPan="magnify" viewBox="0 0 75 44.999999" height="60" preserveAspectRatio="xMidYMid meet" version="1.0"><defs><g/><clipPath id="d0eb9eac7e"><path d="M 33.957031 2.328125 L 74.457031 2.328125 L 74.457031 4 L 33.957031 4 Z M 33.957031 2.328125 " clip-rule="nonzero"/></clipPath><clipPath id="546f821370"><path d="M 73 2.328125 L 74.457031 2.328125 L 74.457031 42.828125 L 73 42.828125 Z M 73 2.328125 " clip-rule="nonzero"/></clipPath><clipPath id="ec9694f588"><rect x="0" width="69" y="0" height="24"/></clipPath><clipPath id="6082db7226"><path d="M 0 41 L 40.335938 41 L 40.335938 42.664062 L 0 42.664062 Z M 0 41 " clip-rule="nonzero"/></clipPath><clipPath id="40659c1cb1"><path d="M 0 2.164062 L 2 2.164062 L 2 42.664062 L 0 42.664062 Z M 0 2.164062 " clip-rule="nonzero"/></clipPath><clipPath id="a4550a05c3"><path d="M 0.71875 2 L 3 2 L 3 5 L 0.71875 5 Z M 0.71875 2 " clip-rule="nonzero"/></clipPath><clipPath id="098b3053b3"><rect x="0" width="52" y="0" height="6"/></clipPath></defs><g clip-path="url(#d0eb9eac7e)"><path fill="#000000" d="M 34.597656 2.339844 L 73.835938 2.339844 C 74.1875 2.339844 74.46875 2.625 74.46875 2.976562 C 74.46875 3.324219 74.1875 3.609375 73.835938 3.609375 L 34.597656 3.609375 C 34.246094 3.609375 33.960938 3.324219 33.960938 2.976562 C 33.960938 2.625 34.246094 2.339844 34.597656 2.339844 Z M 34.597656 2.339844 " fill-opacity="1" fill-rule="nonzero"/></g><g clip-path="url(#546f821370)"><path fill="#000000" d="M 74.457031 42.195312 L 74.457031 2.960938 C 74.457031 2.609375 74.171875 2.324219 73.820312 2.324219 C 73.46875 2.324219 73.183594 2.609375 73.183594 2.960938 L 73.183594 42.195312 C 73.183594 42.546875 73.46875 42.832031 73.820312 42.832031 C 74.171875 42.832031 74.457031 42.546875 74.457031 42.195312 Z M 74.457031 42.195312 " fill-opacity="1" fill-rule="nonzero"/></g><g transform="matrix(1, 0, 0, 1, 3, 7)"><g clip-path="url(#ec9694f588)"><g fill="#000000" fill-opacity="1"><g transform="translate(0.805069, 17.15769)"><g><path d="M 1.09375 0 L 1.09375 -15.78125 L 4.34375 -15.78125 L 4.34375 -8.421875 L 4.390625 -8.421875 C 5.234375 -9.265625 6.128906 -9.6875 7.078125 -9.6875 C 7.546875 -9.6875 8.007812 -9.625 8.46875 -9.5 C 8.925781 -9.375 9.363281 -9.179688 9.78125 -8.921875 C 10.207031 -8.671875 10.550781 -8.3125 10.8125 -7.84375 C 11.070312 -7.375 11.203125 -6.828125 11.203125 -6.203125 L 11.203125 0 L 7.96875 0 L 7.96875 -5.3125 C 7.96875 -5.800781 7.8125 -6.226562 7.5 -6.59375 C 7.1875 -6.96875 6.78125 -7.15625 6.28125 -7.15625 C 5.789062 -7.15625 5.34375 -6.960938 4.9375 -6.578125 C 4.539062 -6.203125 4.34375 -5.78125 4.34375 -5.3125 L 4.34375 0 Z M 1.09375 0 "/></g></g></g><g fill="#000000" fill-opacity="1"><g transform="translate(11.311336, 17.15769)"><g><path d="M 1.734375 -1.15625 C 0.859375 -2.125 0.421875 -3.300781 0.421875 -4.6875 C 0.421875 -6.082031 0.859375 -7.265625 1.734375 -8.234375 C 2.617188 -9.203125 3.738281 -9.6875 5.09375 -9.6875 C 6.34375 -9.6875 7.375 -9.296875 8.1875 -8.515625 L 8.1875 -9.40625 L 11.421875 -9.40625 L 11.421875 0 L 8.21875 0 L 8.21875 -1.0625 L 8.1875 -1.0625 C 7.375 -0.164062 6.34375 0.28125 5.09375 0.28125 C 3.738281 0.28125 2.617188 -0.195312 1.734375 -1.15625 Z M 4.5 -6.296875 C 4.082031 -5.878906 3.875 -5.34375 3.875 -4.6875 C 3.875 -4.039062 4.070312 -3.515625 4.46875 -3.109375 C 4.875 -2.703125 5.410156 -2.5 6.078125 -2.5 C 6.710938 -2.5 7.234375 -2.703125 7.640625 -3.109375 C 8.046875 -3.523438 8.25 -4.054688 8.25 -4.703125 C 8.25 -5.347656 8.035156 -5.878906 7.609375 -6.296875 C 7.191406 -6.710938 6.679688 -6.921875 6.078125 -6.921875 C 5.453125 -6.921875 4.925781 -6.710938 4.5 -6.296875 Z M 4.5 -6.296875 "/></g></g></g><g fill="#000000" fill-opacity="1"><g transform="translate(22.221006, 17.15769)"><g><path d="M 1.40625 -14.65625 C 1.789062 -15.03125 2.242188 -15.21875 2.765625 -15.21875 C 3.296875 -15.21875 3.75 -15.03125 4.125 -14.65625 C 4.507812 -14.28125 4.703125 -13.828125 4.703125 -13.296875 C 4.703125 -12.773438 4.507812 -12.320312 4.125 -11.9375 C 3.75 -11.5625 3.296875 -11.375 2.765625 -11.375 C 2.242188 -11.375 1.789062 -11.5625 1.40625 -11.9375 C 1.03125 -12.320312 0.84375 -12.773438 0.84375 -13.296875 C 0.84375 -13.828125 1.03125 -14.28125 1.40625 -14.65625 Z M 1.09375 -9.40625 L 1.09375 0 L 4.34375 0 L 4.34375 -9.40625 Z M 1.09375 -9.40625 "/></g></g></g><g fill="#000000" fill-opacity="1"><g transform="translate(26.144349, 17.15769)"><g><path d="M 1.09375 0 L 1.09375 -9.40625 L 4.34375 -9.40625 L 4.34375 -8.046875 L 4.390625 -8.046875 C 4.410156 -8.097656 4.445312 -8.160156 4.5 -8.234375 C 4.550781 -8.304688 4.671875 -8.429688 4.859375 -8.609375 C 5.046875 -8.796875 5.242188 -8.960938 5.453125 -9.109375 C 5.660156 -9.265625 5.925781 -9.398438 6.25 -9.515625 C 6.582031 -9.628906 6.921875 -9.6875 7.265625 -9.6875 C 7.617188 -9.6875 7.96875 -9.632812 8.3125 -9.53125 C 8.65625 -9.4375 8.90625 -9.34375 9.0625 -9.25 L 9.3125 -9.09375 L 7.96875 -6.34375 C 7.5625 -6.6875 7 -6.859375 6.28125 -6.859375 C 5.882812 -6.859375 5.546875 -6.769531 5.265625 -6.59375 C 4.984375 -6.425781 4.785156 -6.21875 4.671875 -5.96875 C 4.554688 -5.726562 4.472656 -5.519531 4.421875 -5.34375 C 4.367188 -5.175781 4.34375 -5.046875 4.34375 -4.953125 L 4.34375 0 Z M 1.09375 0 "/></g></g></g><g fill="#000000" fill-opacity="1"><g transform="translate(33.66171, 17.15769)"><g/></g></g><g fill="#000000" fill-opacity="1"><g transform="translate(37.053291, 17.15769)"><g><path d="M 10.78125 -8.25 C 11.664062 -7.289062 12.109375 -6.113281 12.109375 -4.71875 C 12.109375 -3.320312 11.664062 -2.140625 10.78125 -1.171875 C 9.90625 -0.203125 8.785156 0.28125 7.421875 0.28125 C 6.179688 0.28125 5.15625 -0.113281 4.34375 -0.90625 L 4.34375 4.765625 L 1.09375 4.765625 L 1.09375 -9.40625 L 4.3125 -9.40625 L 4.3125 -8.34375 L 4.34375 -8.34375 C 5.15625 -9.238281 6.179688 -9.6875 7.421875 -9.6875 C 8.785156 -9.6875 9.90625 -9.207031 10.78125 -8.25 Z M 8.015625 -3.109375 C 8.441406 -3.523438 8.65625 -4.054688 8.65625 -4.703125 C 8.65625 -5.359375 8.453125 -5.890625 8.046875 -6.296875 C 7.648438 -6.710938 7.117188 -6.921875 6.453125 -6.921875 C 5.816406 -6.921875 5.296875 -6.710938 4.890625 -6.296875 C 4.484375 -5.878906 4.28125 -5.351562 4.28125 -4.71875 C 4.28125 -4.0625 4.488281 -3.523438 4.90625 -3.109375 C 5.332031 -2.703125 5.847656 -2.5 6.453125 -2.5 C 7.078125 -2.5 7.597656 -2.703125 8.015625 -3.109375 Z M 8.015625 -3.109375 "/></g></g></g><g fill="#000000" fill-opacity="1"><g transform="translate(47.962961, 17.15769)"><g><path d="M 1.09375 0 L 1.09375 -9.40625 L 4.34375 -9.40625 L 4.34375 -8.046875 L 4.390625 -8.046875 C 4.410156 -8.097656 4.445312 -8.160156 4.5 -8.234375 C 4.550781 -8.304688 4.671875 -8.429688 4.859375 -8.609375 C 5.046875 -8.796875 5.242188 -8.960938 5.453125 -9.109375 C 5.660156 -9.265625 5.925781 -9.398438 6.25 -9.515625 C 6.582031 -9.628906 6.921875 -9.6875 7.265625 -9.6875 C 7.617188 -9.6875 7.96875 -9.632812 8.3125 -9.53125 C 8.65625 -9.4375 8.90625 -9.34375 9.0625 -9.25 L 9.3125 -9.09375 L 7.96875 -6.34375 C 7.5625 -6.6875 7 -6.859375 6.28125 -6.859375 C 5.882812 -6.859375 5.546875 -6.769531 5.265625 -6.59375 C 4.984375 -6.425781 4.785156 -6.21875 4.671875 -5.96875 C 4.554688 -5.726562 4.472656 -5.519531 4.421875 -5.34375 C 4.367188 -5.175781 4.34375 -5.046875 4.34375 -4.953125 L 4.34375 0 Z M 1.09375 0 "/></g></g></g><g fill="#000000" fill-opacity="1"><g transform="translate(55.370276, 17.15769)"><g><path d="M 1.984375 -1.109375 C 0.941406 -2.046875 0.421875 -3.238281 0.421875 -4.6875 C 0.421875 -6.144531 0.960938 -7.34375 2.046875 -8.28125 C 3.140625 -9.21875 4.488281 -9.6875 6.09375 -9.6875 C 7.664062 -9.6875 8.992188 -9.210938 10.078125 -8.265625 C 11.160156 -7.328125 11.703125 -6.132812 11.703125 -4.6875 C 11.703125 -3.25 11.171875 -2.0625 10.109375 -1.125 C 9.054688 -0.1875 7.71875 0.28125 6.09375 0.28125 C 4.40625 0.28125 3.035156 -0.179688 1.984375 -1.109375 Z M 4.5 -6.296875 C 4.082031 -5.878906 3.875 -5.34375 3.875 -4.6875 C 3.875 -4.039062 4.070312 -3.515625 4.46875 -3.109375 C 4.875 -2.703125 5.410156 -2.5 6.078125 -2.5 C 6.710938 -2.5 7.234375 -2.703125 7.640625 -3.109375 C 8.046875 -3.523438 8.25 -4.054688 8.25 -4.703125 C 8.25 -5.347656 8.035156 -5.878906 7.609375 -6.296875 C 7.191406 -6.710938 6.679688 -6.921875 6.078125 -6.921875 C 5.453125 -6.921875 4.925781 -6.710938 4.5 -6.296875 Z M 4.5 -6.296875 "/></g></g></g></g></g><g clip-path="url(#6082db7226)"><path fill="#000000" d="M 39.691406 42.652344 L 39.691406 42.65625 L 0.457031 42.652344 C 0.105469 42.652344 -0.179688 42.371094 -0.179688 42.019531 C -0.179688 41.667969 0.105469 41.382812 0.457031 41.382812 L 39.691406 41.382812 C 40.042969 41.382812 40.328125 41.667969 40.328125 42.019531 C 40.328125 42.371094 40.042969 42.652344 39.691406 42.652344 Z M 39.691406 42.652344 " fill-opacity="1" fill-rule="nonzero"/></g><g clip-path="url(#40659c1cb1)"><path fill="#000000" d="M -0.164062 2.796875 L -0.164062 42.03125 C -0.164062 42.382812 0.121094 42.667969 0.472656 42.667969 C 0.824219 42.667969 1.109375 42.382812 1.109375 42.03125 L 1.109375 2.796875 C 1.109375 2.445312 0.824219 2.160156 0.472656 2.160156 C 0.121094 2.160156 -0.164062 2.445312 -0.164062 2.796875 Z M -0.164062 2.796875 " fill-opacity="1" fill-rule="nonzero"/></g><g transform="matrix(1, 0, 0, 1, 12, 30)"><g clip-path="url(#098b3053b3)"><g clip-path="url(#a4550a05c3)"><g fill="#000000" fill-opacity="1"><g transform="translate(0.86842, 4.008248)"><g><path d="M 0.3125 -0.203125 C 0.15625 -0.378906 0.078125 -0.59375 0.078125 -0.84375 C 0.078125 -1.09375 0.15625 -1.300781 0.3125 -1.46875 C 0.46875 -1.644531 0.664062 -1.734375 0.90625 -1.734375 C 1.132812 -1.734375 1.320312 -1.660156 1.46875 -1.515625 L 1.46875 -1.6875 L 2.046875 -1.6875 L 2.046875 0 L 1.46875 0 L 1.46875 -0.1875 C 1.320312 -0.03125 1.132812 0.046875 0.90625 0.046875 C 0.664062 0.046875 0.46875 -0.0351562 0.3125 -0.203125 Z M 0.796875 -1.125 C 0.722656 -1.050781 0.6875 -0.957031 0.6875 -0.84375 C 0.6875 -0.726562 0.722656 -0.632812 0.796875 -0.5625 C 0.867188 -0.488281 0.96875 -0.453125 1.09375 -0.453125 C 1.195312 -0.453125 1.285156 -0.488281 1.359375 -0.5625 C 1.441406 -0.632812 1.484375 -0.726562 1.484375 -0.84375 C 1.484375 -0.957031 1.441406 -1.050781 1.359375 -1.125 C 1.285156 -1.195312 1.195312 -1.234375 1.09375 -1.234375 C 0.976562 -1.234375 0.878906 -1.195312 0.796875 -1.125 Z M 0.796875 -1.125 "/></g></g></g></g><g fill="#000000" fill-opacity="1"><g transform="translate(5.068501, 4.008248)"><g><path d="M 0.203125 0 L 0.203125 -2.828125 L 0.78125 -2.828125 L 0.78125 0 Z M 0.203125 0 "/></g></g></g><g fill="#000000" fill-opacity="1"><g transform="translate(8.001, 4.008248)"><g><path d="M 0.203125 0 L 0.203125 -2.828125 L 0.78125 -2.828125 L 0.78125 0 Z M 0.203125 0 "/></g></g></g><g fill="#000000" fill-opacity="1"><g transform="translate(10.9335, 4.008248)"><g/></g></g><g fill="#000000" fill-opacity="1"><g transform="translate(13.787183, 4.008248)"><g><path d="M 0.3125 -0.203125 C 0.15625 -0.378906 0.078125 -0.59375 0.078125 -0.84375 C 0.078125 -1.09375 0.15625 -1.300781 0.3125 -1.46875 C 0.46875 -1.644531 0.664062 -1.734375 0.90625 -1.734375 C 1.132812 -1.734375 1.320312 -1.660156 1.46875 -1.515625 L 1.46875 -1.6875 L 2.046875 -1.6875 L 2.046875 0 L 1.46875 0 L 1.46875 -0.1875 C 1.320312 -0.03125 1.132812 0.046875 0.90625 0.046875 C 0.664062 0.046875 0.46875 -0.0351562 0.3125 -0.203125 Z M 0.796875 -1.125 C 0.722656 -1.050781 0.6875 -0.957031 0.6875 -0.84375 C 0.6875 -0.726562 0.722656 -0.632812 0.796875 -0.5625 C 0.867188 -0.488281 0.96875 -0.453125 1.09375 -0.453125 C 1.195312 -0.453125 1.285156 -0.488281 1.359375 -0.5625 C 1.441406 -0.632812 1.484375 -0.726562 1.484375 -0.84375 C 1.484375 -0.957031 1.441406 -1.050781 1.359375 -1.125 C 1.285156 -1.195312 1.195312 -1.234375 1.09375 -1.234375 C 0.976562 -1.234375 0.878906 -1.195312 0.796875 -1.125 Z M 0.796875 -1.125 "/></g></g></g><g fill="#000000" fill-opacity="1"><g transform="translate(17.987265, 4.008248)"><g><path d="M 1.921875 -1.46875 C 2.085938 -1.300781 2.171875 -1.09375 2.171875 -0.84375 C 2.171875 -0.59375 2.085938 -0.378906 1.921875 -0.203125 C 1.765625 -0.0351562 1.566406 0.046875 1.328125 0.046875 C 1.109375 0.046875 0.925781 -0.03125 0.78125 -0.1875 L 0.765625 -0.1875 L 0.765625 0 L 0.203125 0 L 0.203125 -2.828125 L 0.78125 -2.828125 L 0.78125 -1.515625 C 0.925781 -1.660156 1.109375 -1.734375 1.328125 -1.734375 C 1.566406 -1.734375 1.765625 -1.644531 1.921875 -1.46875 Z M 1.4375 -0.5625 C 1.507812 -0.632812 1.546875 -0.726562 1.546875 -0.84375 C 1.546875 -0.957031 1.507812 -1.050781 1.4375 -1.125 C 1.363281 -1.195312 1.269531 -1.234375 1.15625 -1.234375 C 1.039062 -1.234375 0.945312 -1.195312 0.875 -1.125 C 0.800781 -1.050781 0.765625 -0.957031 0.765625 -0.84375 C 0.765625 -0.726562 0.800781 -0.632812 0.875 -0.5625 C 0.945312 -0.488281 1.039062 -0.453125 1.15625 -0.453125 C 1.269531 -0.453125 1.363281 -0.488281 1.4375 -0.5625 Z M 1.4375 -0.5625 "/></g></g></g><g fill="#000000" fill-opacity="1"><g transform="translate(22.187346, 4.008248)"><g><path d="M 0.359375 -0.203125 C 0.171875 -0.367188 0.078125 -0.582031 0.078125 -0.84375 C 0.078125 -1.101562 0.171875 -1.316406 0.359375 -1.484375 C 0.554688 -1.648438 0.800781 -1.734375 1.09375 -1.734375 C 1.375 -1.734375 1.609375 -1.648438 1.796875 -1.484375 C 1.992188 -1.316406 2.09375 -1.101562 2.09375 -0.84375 C 2.09375 -0.582031 2 -0.367188 1.8125 -0.203125 C 1.625 -0.0351562 1.382812 0.046875 1.09375 0.046875 C 0.789062 0.046875 0.546875 -0.0351562 0.359375 -0.203125 Z M 0.796875 -1.125 C 0.722656 -1.050781 0.6875 -0.957031 0.6875 -0.84375 C 0.6875 -0.726562 0.722656 -0.632812 0.796875 -0.5625 C 0.867188 -0.488281 0.96875 -0.453125 1.09375 -0.453125 C 1.195312 -0.453125 1.285156 -0.488281 1.359375 -0.5625 C 1.441406 -0.632812 1.484375 -0.726562 1.484375 -0.84375 C 1.484375 -0.957031 1.441406 -1.050781 1.359375 -1.125 C 1.285156 -1.195312 1.195312 -1.234375 1.09375 -1.234375 C 0.976562 -1.234375 0.878906 -1.195312 0.796875 -1.125 Z M 0.796875 -1.125 "/></g></g></g><g fill="#000000" fill-opacity="1"><g transform="translate(26.315181, 4.008248)"><g><path d="M 0.75 -1.6875 L 0.75 -0.875 C 0.75 -0.71875 0.769531 -0.601562 0.8125 -0.53125 C 0.863281 -0.457031 0.945312 -0.421875 1.0625 -0.421875 C 1.1875 -0.421875 1.273438 -0.457031 1.328125 -0.53125 C 1.378906 -0.601562 1.40625 -0.71875 1.40625 -0.875 L 1.40625 -1.6875 L 1.984375 -1.6875 L 1.984375 -0.734375 C 1.984375 -0.460938 1.910156 -0.265625 1.765625 -0.140625 C 1.617188 -0.015625 1.382812 0.046875 1.0625 0.046875 C 0.75 0.046875 0.519531 -0.015625 0.375 -0.140625 C 0.238281 -0.265625 0.171875 -0.460938 0.171875 -0.734375 L 0.171875 -1.6875 Z M 0.75 -1.6875 "/></g></g></g><g fill="#000000" fill-opacity="1"><g transform="translate(30.410178, 4.008248)"><g><path d="M 0.296875 -1.6875 L 0.296875 -2.3125 L 0.875 -2.3125 L 0.875 -1.6875 L 1.234375 -1.6875 L 1.234375 -1.234375 L 0.875 -1.234375 L 0.875 -0.703125 C 0.875 -0.546875 0.914062 -0.46875 1 -0.46875 C 1.03125 -0.46875 1.054688 -0.472656 1.078125 -0.484375 C 1.097656 -0.492188 1.113281 -0.503906 1.125 -0.515625 L 1.15625 -0.53125 L 1.296875 -0.0625 C 1.171875 0.0078125 1.03125 0.046875 0.875 0.046875 C 0.757812 0.046875 0.660156 0.03125 0.578125 0 C 0.503906 -0.0390625 0.445312 -0.09375 0.40625 -0.15625 C 0.363281 -0.226562 0.332031 -0.296875 0.3125 -0.359375 C 0.300781 -0.429688 0.296875 -0.507812 0.296875 -0.59375 L 0.296875 -1.234375 L 0.046875 -1.234375 L 0.046875 -1.6875 Z M 0.296875 -1.6875 "/></g></g></g><g fill="#000000" fill-opacity="1"><g transform="translate(33.664498, 4.008248)"><g/></g></g><g fill="#000000" fill-opacity="1"><g transform="translate(36.518182, 4.008248)"><g><path d="M 0.203125 0 L 0.203125 -2.828125 L 0.78125 -2.828125 L 0.78125 -1.5 C 0.9375 -1.65625 1.097656 -1.734375 1.265625 -1.734375 C 1.347656 -1.734375 1.429688 -1.722656 1.515625 -1.703125 C 1.597656 -1.679688 1.675781 -1.644531 1.75 -1.59375 C 1.820312 -1.550781 1.878906 -1.488281 1.921875 -1.40625 C 1.972656 -1.320312 2 -1.222656 2 -1.109375 L 2 0 L 1.421875 0 L 1.421875 -0.953125 C 1.421875 -1.035156 1.390625 -1.109375 1.328125 -1.171875 C 1.273438 -1.242188 1.207031 -1.28125 1.125 -1.28125 C 1.03125 -1.28125 0.945312 -1.242188 0.875 -1.171875 C 0.8125 -1.109375 0.78125 -1.035156 0.78125 -0.953125 L 0.78125 0 Z M 0.203125 0 "/></g></g></g><g fill="#000000" fill-opacity="1"><g transform="translate(40.646016, 4.008248)"><g><path d="M 0.3125 -0.203125 C 0.15625 -0.378906 0.078125 -0.59375 0.078125 -0.84375 C 0.078125 -1.09375 0.15625 -1.300781 0.3125 -1.46875 C 0.46875 -1.644531 0.664062 -1.734375 0.90625 -1.734375 C 1.132812 -1.734375 1.320312 -1.660156 1.46875 -1.515625 L 1.46875 -1.6875 L 2.046875 -1.6875 L 2.046875 0 L 1.46875 0 L 1.46875 -0.1875 C 1.320312 -0.03125 1.132812 0.046875 0.90625 0.046875 C 0.664062 0.046875 0.46875 -0.0351562 0.3125 -0.203125 Z M 0.796875 -1.125 C 0.722656 -1.050781 0.6875 -0.957031 0.6875 -0.84375 C 0.6875 -0.726562 0.722656 -0.632812 0.796875 -0.5625 C 0.867188 -0.488281 0.96875 -0.453125 1.09375 -0.453125 C 1.195312 -0.453125 1.285156 -0.488281 1.359375 -0.5625 C 1.441406 -0.632812 1.484375 -0.726562 1.484375 -0.84375 C 1.484375 -0.957031 1.441406 -1.050781 1.359375 -1.125 C 1.285156 -1.195312 1.195312 -1.234375 1.09375 -1.234375 C 0.976562 -1.234375 0.878906 -1.195312 0.796875 -1.125 Z M 0.796875 -1.125 "/></g></g></g><g fill="#000000" fill-opacity="1"><g transform="translate(44.846098, 4.008248)"><g><path d="M 0.25 -2.609375 C 0.320312 -2.679688 0.40625 -2.71875 0.5 -2.71875 C 0.59375 -2.71875 0.671875 -2.679688 0.734375 -2.609375 C 0.804688 -2.546875 0.84375 -2.46875 0.84375 -2.375 C 0.84375 -2.28125 0.804688 -2.195312 0.734375 -2.125 C 0.671875 -2.0625 0.59375 -2.03125 0.5 -2.03125 C 0.40625 -2.03125 0.320312 -2.0625 0.25 -2.125 C 0.1875 -2.195312 0.15625 -2.28125 0.15625 -2.375 C 0.15625 -2.46875 0.1875 -2.546875 0.25 -2.609375 Z M 0.203125 -1.6875 L 0.203125 0 L 0.78125 0 L 0.78125 -1.6875 Z M 0.203125 -1.6875 "/></g></g></g><g fill="#000000" fill-opacity="1"><g transform="translate(47.795016, 4.008248)"><g><path d="M 0.203125 0 L 0.203125 -1.6875 L 0.78125 -1.6875 L 0.78125 -1.4375 C 0.789062 -1.445312 0.800781 -1.457031 0.8125 -1.46875 C 0.820312 -1.488281 0.84375 -1.515625 0.875 -1.546875 C 0.90625 -1.578125 0.9375 -1.601562 0.96875 -1.625 C 1.007812 -1.65625 1.054688 -1.679688 1.109375 -1.703125 C 1.171875 -1.722656 1.234375 -1.734375 1.296875 -1.734375 C 1.359375 -1.734375 1.421875 -1.722656 1.484375 -1.703125 C 1.546875 -1.691406 1.59375 -1.675781 1.625 -1.65625 L 1.671875 -1.625 L 1.421875 -1.140625 C 1.347656 -1.203125 1.25 -1.234375 1.125 -1.234375 C 1.050781 -1.234375 0.988281 -1.21875 0.9375 -1.1875 C 0.882812 -1.15625 0.847656 -1.113281 0.828125 -1.0625 C 0.804688 -1.019531 0.789062 -0.984375 0.78125 -0.953125 C 0.78125 -0.921875 0.78125 -0.898438 0.78125 -0.890625 L 0.78125 0 Z M 0.203125 0 "/></g></g></g></g></g></svg>