<svg xmlns="http://www.w3.org/2000/svg" xmlns:xlink="http://www.w3.org/1999/xlink" width="150" zoomAndPan="magnify" viewBox="0 0 112.5 37.5" height="50" preserveAspectRatio="xMidYMid meet" version="1.0"><defs><g/><clipPath id="58ca3918ea"><path d="M 53.074219 0 L 90.082031 0 L 90.082031 2 L 53.074219 2 Z M 53.074219 0 " clip-rule="nonzero"/></clipPath><clipPath id="2f68059fcf"><path d="M 88 0 L 90.082031 0 L 90.082031 37.007812 L 88 37.007812 Z M 88 0 " clip-rule="nonzero"/></clipPath><clipPath id="9a78120511"><path d="M 50 6 L 58.992188 6 L 58.992188 14 L 50 14 Z M 50 6 " clip-rule="nonzero"/></clipPath><clipPath id="b8d6d130b0"><rect x="0" width="59" y="0" height="19"/></clipPath><clipPath id="c2bbdd4f76"><path d="M 21.925781 35 L 58.933594 35 L 58.933594 37 L 21.925781 37 Z M 21.925781 35 " clip-rule="nonzero"/></clipPath><clipPath id="15b12a6454"><path d="M 21.925781 0 L 24 0 L 24 37.007812 L 21.925781 37.007812 Z M 21.925781 0 " clip-rule="nonzero"/></clipPath></defs><g clip-path="url(#58ca3918ea)"><path fill="#000000" d="M 53.660156 0.0078125 L 89.511719 0.0078125 C 89.832031 0.0078125 90.09375 0.269531 90.09375 0.589844 C 90.09375 0.910156 89.832031 1.171875 89.511719 1.171875 L 53.660156 1.171875 C 53.339844 1.171875 53.082031 0.910156 53.082031 0.589844 C 53.082031 0.269531 53.339844 0.0078125 53.660156 0.0078125 Z M 53.660156 0.0078125 " fill-opacity="1" fill-rule="nonzero"/></g><g clip-path="url(#2f68059fcf)"><path fill="#000000" d="M 90.082031 36.429688 L 90.082031 0.578125 C 90.082031 0.257812 89.820312 -0.00390625 89.5 -0.00390625 C 89.179688 -0.00390625 88.917969 0.257812 88.917969 0.578125 L 88.917969 36.429688 C 88.917969 36.75 89.179688 37.007812 89.5 37.007812 C 89.820312 37.007812 90.082031 36.75 90.082031 36.429688 Z M 90.082031 36.429688 " fill-opacity="1" fill-rule="nonzero"/></g><g transform="matrix(1, 0, 0, 1, 27, 9)"><g clip-path="url(#b8d6d130b0)"><g fill="#000000" fill-opacity="1"><g transform="translate(0.375962, 13.674931)"><g><path d="M 0.875 0 L 0.875 -10.828125 L 3.421875 -10.828125 L 3.421875 -5.796875 C 3.597656 -6.035156 3.816406 -6.273438 4.078125 -6.515625 C 4.347656 -6.753906 4.65625 -6.960938 5 -7.140625 C 5.34375 -7.316406 5.707031 -7.40625 6.09375 -7.40625 C 6.695312 -7.40625 7.179688 -7.25 7.546875 -6.9375 C 7.921875 -6.625 8.109375 -6.269531 8.109375 -5.875 L 8.109375 0 L 5.5625 0 L 5.5625 -5.921875 C 5.5625 -6.398438 5.425781 -6.671875 5.15625 -6.734375 C 4.882812 -6.804688 4.585938 -6.703125 4.265625 -6.421875 C 4.191406 -6.367188 4.054688 -6.238281 3.859375 -6.03125 C 3.671875 -5.832031 3.523438 -5.65625 3.421875 -5.5 L 3.421875 0 Z M 0.875 0 "/></g></g></g><g fill="#000000" fill-opacity="1"><g transform="translate(9.353645, 13.674931)"><g><path d="M 2.53125 0.171875 C 1.925781 0.171875 1.425781 0.0078125 1.03125 -0.3125 C 0.632812 -0.632812 0.4375 -1.03125 0.4375 -1.5 C 0.4375 -1.957031 0.550781 -2.320312 0.78125 -2.59375 C 1.007812 -2.863281 1.320312 -3.09375 1.71875 -3.28125 C 2.125 -3.46875 2.585938 -3.65625 3.109375 -3.84375 C 3.640625 -4.039062 4.210938 -4.285156 4.828125 -4.578125 L 4.828125 -5.828125 C 4.828125 -6.242188 4.710938 -6.554688 4.484375 -6.765625 C 4.265625 -6.984375 3.992188 -7.09375 3.671875 -7.09375 C 3.359375 -7.09375 3.082031 -7.007812 2.84375 -6.84375 C 2.601562 -6.6875 2.484375 -6.398438 2.484375 -5.984375 C 2.484375 -5.722656 2.53125 -5.519531 2.625 -5.375 C 2.71875 -5.238281 2.8125 -5.144531 2.90625 -5.09375 C 3 -5.050781 3.046875 -5.03125 3.046875 -5.03125 C 3.046875 -4.863281 2.953125 -4.679688 2.765625 -4.484375 C 2.578125 -4.285156 2.34375 -4.175781 2.0625 -4.15625 C 1.601562 -4.113281 1.269531 -4.222656 1.0625 -4.484375 C 0.851562 -4.753906 0.75 -5.050781 0.75 -5.375 C 0.75 -5.738281 0.878906 -6.0625 1.140625 -6.34375 C 1.398438 -6.632812 1.753906 -6.863281 2.203125 -7.03125 C 2.648438 -7.195312 3.144531 -7.28125 3.6875 -7.28125 C 4.800781 -7.28125 5.707031 -6.992188 6.40625 -6.421875 C 6.707031 -6.179688 6.941406 -5.890625 7.109375 -5.546875 C 7.285156 -5.210938 7.375 -4.828125 7.375 -4.390625 L 7.375 -1.484375 C 7.375 -1.328125 7.390625 -1.1875 7.421875 -1.0625 C 7.460938 -0.945312 7.539062 -0.890625 7.65625 -0.890625 C 7.707031 -0.890625 7.753906 -0.921875 7.796875 -0.984375 C 7.847656 -1.054688 7.878906 -1.222656 7.890625 -1.484375 L 8.03125 -1.46875 C 8.03125 -1.007812 7.867188 -0.617188 7.546875 -0.296875 C 7.234375 0.015625 6.847656 0.171875 6.390625 0.171875 C 5.984375 0.171875 5.632812 0.0390625 5.34375 -0.21875 C 5.050781 -0.476562 4.882812 -0.804688 4.84375 -1.203125 C 4.707031 -0.984375 4.515625 -0.769531 4.265625 -0.5625 C 4.023438 -0.351562 3.753906 -0.175781 3.453125 -0.03125 C 3.148438 0.101562 2.84375 0.171875 2.53125 0.171875 Z M 3.703125 -0.828125 C 4.140625 -0.828125 4.515625 -1.007812 4.828125 -1.375 L 4.828125 -4.421875 C 4.210938 -4.066406 3.726562 -3.707031 3.375 -3.34375 C 3.03125 -2.976562 2.859375 -2.488281 2.859375 -1.875 C 2.859375 -1.601562 2.9375 -1.359375 3.09375 -1.140625 C 3.257812 -0.929688 3.460938 -0.828125 3.703125 -0.828125 Z M 3.703125 -0.828125 "/></g></g></g><g fill="#000000" fill-opacity="1"><g transform="translate(17.824804, 13.674931)"><g><path d="M 2.234375 -8.09375 C 1.859375 -8.09375 1.535156 -8.222656 1.265625 -8.484375 C 1.003906 -8.753906 0.875 -9.082031 0.875 -9.46875 C 0.875 -9.84375 1.003906 -10.160156 1.265625 -10.421875 C 1.535156 -10.691406 1.859375 -10.828125 2.234375 -10.828125 C 2.617188 -10.828125 2.941406 -10.691406 3.203125 -10.421875 C 3.472656 -10.160156 3.609375 -9.84375 3.609375 -9.46875 C 3.609375 -9.082031 3.472656 -8.753906 3.203125 -8.484375 C 2.941406 -8.222656 2.617188 -8.09375 2.234375 -8.09375 Z M 0.953125 0 L 0.953125 -7.125 L 3.515625 -7.109375 L 3.515625 0 Z M 0.953125 0 "/></g></g></g><g fill="#000000" fill-opacity="1"><g transform="translate(22.313645, 13.674931)"><g><path d="M 5.4375 -7.28125 C 5.78125 -7.28125 6.113281 -7.21875 6.4375 -7.09375 C 6.769531 -6.96875 7.035156 -6.757812 7.234375 -6.46875 C 7.441406 -6.175781 7.546875 -5.789062 7.546875 -5.3125 C 7.546875 -5.0625 7.5 -4.8125 7.40625 -4.5625 C 7.320312 -4.320312 7.175781 -4.117188 6.96875 -3.953125 C 6.769531 -3.796875 6.5 -3.71875 6.15625 -3.71875 C 5.800781 -3.71875 5.523438 -3.832031 5.328125 -4.0625 C 5.128906 -4.300781 5.019531 -4.53125 5 -4.75 C 5 -4.75 5.070312 -4.796875 5.21875 -4.890625 C 5.375 -4.992188 5.523438 -5.140625 5.671875 -5.328125 C 5.816406 -5.523438 5.890625 -5.765625 5.890625 -6.046875 C 5.890625 -6.316406 5.8125 -6.546875 5.65625 -6.734375 C 5.5 -6.921875 5.289062 -7.015625 5.03125 -7.015625 C 4.707031 -7.015625 4.40625 -6.90625 4.125 -6.6875 C 3.851562 -6.46875 3.617188 -6.164062 3.421875 -5.78125 L 3.421875 0 L 0.875 0 L 0.875 -7.125 L 3.421875 -7.125 L 3.421875 -6.125 C 3.640625 -6.5 3.910156 -6.785156 4.234375 -6.984375 C 4.566406 -7.179688 4.96875 -7.28125 5.4375 -7.28125 Z M 5.4375 -7.28125 "/></g></g></g><g fill="#000000" fill-opacity="1"><g transform="translate(30.121086, 13.674931)"><g/></g></g><g fill="#000000" fill-opacity="1"><g transform="translate(33.666748, 13.674931)"><g><path d="M 0.875 3.703125 L 0.875 -7.125 L 3.421875 -7.125 L 3.421875 -6.578125 C 3.679688 -6.847656 3.960938 -7.035156 4.265625 -7.140625 C 4.578125 -7.242188 4.910156 -7.296875 5.265625 -7.296875 C 5.804688 -7.296875 6.296875 -7.132812 6.734375 -6.8125 C 7.179688 -6.5 7.535156 -6.066406 7.796875 -5.515625 C 8.066406 -4.972656 8.203125 -4.351562 8.203125 -3.65625 C 8.203125 -2.957031 8.066406 -2.320312 7.796875 -1.75 C 7.535156 -1.175781 7.179688 -0.71875 6.734375 -0.375 C 6.296875 -0.03125 5.804688 0.140625 5.265625 0.140625 C 4.910156 0.140625 4.578125 0.0664062 4.265625 -0.078125 C 3.960938 -0.234375 3.679688 -0.441406 3.421875 -0.703125 L 3.421875 3.703125 Z M 4.4375 -0.328125 C 4.738281 -0.328125 4.976562 -0.472656 5.15625 -0.765625 C 5.332031 -1.054688 5.457031 -1.453125 5.53125 -1.953125 C 5.601562 -2.453125 5.640625 -3.019531 5.640625 -3.65625 C 5.640625 -4.28125 5.597656 -4.835938 5.515625 -5.328125 C 5.429688 -5.828125 5.300781 -6.222656 5.125 -6.515625 C 4.945312 -6.804688 4.71875 -6.953125 4.4375 -6.953125 C 4.226562 -6.953125 4.035156 -6.875 3.859375 -6.71875 C 3.691406 -6.5625 3.546875 -6.347656 3.421875 -6.078125 L 3.421875 -1.203125 C 3.546875 -0.929688 3.691406 -0.71875 3.859375 -0.5625 C 4.035156 -0.40625 4.226562 -0.328125 4.4375 -0.328125 Z M 4.4375 -0.328125 "/></g></g><g transform="translate(42.312572, 13.674931)"><g><path d="M 5.4375 -7.28125 C 5.78125 -7.28125 6.113281 -7.21875 6.4375 -7.09375 C 6.769531 -6.96875 7.035156 -6.757812 7.234375 -6.46875 C 7.441406 -6.175781 7.546875 -5.789062 7.546875 -5.3125 C 7.546875 -5.0625 7.5 -4.8125 7.40625 -4.5625 C 7.320312 -4.320312 7.175781 -4.117188 6.96875 -3.953125 C 6.769531 -3.796875 6.5 -3.71875 6.15625 -3.71875 C 5.800781 -3.71875 5.523438 -3.832031 5.328125 -4.0625 C 5.128906 -4.300781 5.019531 -4.53125 5 -4.75 C 5 -4.75 5.070312 -4.796875 5.21875 -4.890625 C 5.375 -4.992188 5.523438 -5.140625 5.671875 -5.328125 C 5.816406 -5.523438 5.890625 -5.765625 5.890625 -6.046875 C 5.890625 -6.316406 5.8125 -6.546875 5.65625 -6.734375 C 5.5 -6.921875 5.289062 -7.015625 5.03125 -7.015625 C 4.707031 -7.015625 4.40625 -6.90625 4.125 -6.6875 C 3.851562 -6.46875 3.617188 -6.164062 3.421875 -5.78125 L 3.421875 0 L 0.875 0 L 0.875 -7.125 L 3.421875 -7.125 L 3.421875 -6.125 C 3.640625 -6.5 3.910156 -6.785156 4.234375 -6.984375 C 4.566406 -7.179688 4.96875 -7.28125 5.4375 -7.28125 Z M 5.4375 -7.28125 "/></g></g></g><g clip-path="url(#9a78120511)"><g fill="#000000" fill-opacity="1"><g transform="translate(50.120007, 13.674931)"><g><path d="M 4.296875 0.171875 C 3.585938 0.171875 2.941406 0.00390625 2.359375 -0.328125 C 1.773438 -0.660156 1.304688 -1.109375 0.953125 -1.671875 C 0.609375 -2.242188 0.4375 -2.875 0.4375 -3.5625 C 0.4375 -4.25 0.609375 -4.875 0.953125 -5.4375 C 1.304688 -6 1.773438 -6.445312 2.359375 -6.78125 C 2.941406 -7.113281 3.585938 -7.28125 4.296875 -7.28125 C 5.003906 -7.28125 5.648438 -7.113281 6.234375 -6.78125 C 6.816406 -6.445312 7.28125 -6 7.625 -5.4375 C 7.976562 -4.875 8.15625 -4.25 8.15625 -3.5625 C 8.15625 -2.875 7.976562 -2.242188 7.625 -1.671875 C 7.28125 -1.109375 6.816406 -0.660156 6.234375 -0.328125 C 5.648438 0.00390625 5.003906 0.171875 4.296875 0.171875 Z M 4.296875 0 C 4.617188 0 4.875 -0.15625 5.0625 -0.46875 C 5.257812 -0.78125 5.398438 -1.203125 5.484375 -1.734375 C 5.566406 -2.273438 5.609375 -2.882812 5.609375 -3.5625 C 5.609375 -4.238281 5.5625 -4.84375 5.46875 -5.375 C 5.375 -5.914062 5.226562 -6.34375 5.03125 -6.65625 C 4.84375 -6.96875 4.597656 -7.125 4.296875 -7.125 C 3.984375 -7.125 3.726562 -6.96875 3.53125 -6.65625 C 3.34375 -6.34375 3.203125 -5.914062 3.109375 -5.375 C 3.023438 -4.84375 2.984375 -4.238281 2.984375 -3.5625 C 2.984375 -2.882812 3.023438 -2.273438 3.109375 -1.734375 C 3.203125 -1.203125 3.34375 -0.78125 3.53125 -0.46875 C 3.726562 -0.15625 3.984375 0 4.296875 0 Z M 4.296875 0 "/></g></g></g></g></g></g><g clip-path="url(#c2bbdd4f76)"><path fill="#000000" d="M 58.34375 36.996094 L 22.496094 36.996094 C 22.171875 36.996094 21.914062 36.738281 21.914062 36.414062 C 21.914062 36.09375 22.171875 35.835938 22.496094 35.835938 L 58.34375 35.835938 C 58.667969 35.835938 58.925781 36.09375 58.925781 36.414062 C 58.925781 36.738281 58.667969 36.996094 58.34375 36.996094 Z M 58.34375 36.996094 " fill-opacity="1" fill-rule="nonzero"/></g><g clip-path="url(#15b12a6454)"><path fill="#000000" d="M 21.925781 0.578125 L 21.925781 36.429688 C 21.925781 36.75 22.1875 37.011719 22.507812 37.011719 C 22.828125 37.011719 23.089844 36.75 23.089844 36.429688 L 23.089844 0.578125 C 23.089844 0.257812 22.828125 -0.00390625 22.507812 -0.00390625 C 22.1875 -0.00390625 21.925781 0.257812 21.925781 0.578125 Z M 21.925781 0.578125 " fill-opacity="1" fill-rule="nonzero"/></g></svg>