<svg xmlns="http://www.w3.org/2000/svg" xmlns:xlink="http://www.w3.org/1999/xlink" width="100" zoomAndPan="magnify" viewBox="0 0 75 30.000001" height="40" preserveAspectRatio="xMidYMid meet" version="1.0"><defs><g/><clipPath id="9f5f1f8d48"><path d="M 35.203125 0 L 64.234375 0 L 64.234375 1 L 35.203125 1 Z M 35.203125 0 " clip-rule="nonzero"/></clipPath><clipPath id="fc433a7577"><path d="M 63 0 L 64.234375 0 L 64.234375 29.03125 L 63 29.03125 Z M 63 0 " clip-rule="nonzero"/></clipPath><clipPath id="d9dc904482"><rect x="0" width="50" y="0" height="18"/></clipPath><clipPath id="7ebeab16da"><path d="M 10.765625 28 L 39.796875 28 L 39.796875 29.03125 L 10.765625 29.03125 Z M 10.765625 28 " clip-rule="nonzero"/></clipPath><clipPath id="79cae62856"><path d="M 10.765625 0 L 12 0 L 12 29.03125 L 10.765625 29.03125 Z M 10.765625 0 " clip-rule="nonzero"/></clipPath><clipPath id="6e3419f9bc"><path d="M 0.0234375 1 L 2 1 L 2 3 L 0.0234375 3 Z M 0.0234375 1 " clip-rule="nonzero"/></clipPath><clipPath id="1e66263c0e"><path d="M 3 0.4375 L 4 0.4375 L 4 3 L 3 3 Z M 3 0.4375 " clip-rule="nonzero"/></clipPath><clipPath id="01eb774298"><path d="M 5 0.4375 L 6 0.4375 L 6 3 L 5 3 Z M 5 0.4375 " clip-rule="nonzero"/></clipPath><clipPath id="86ee5d7ba5"><path d="M 12 0.4375 L 14 0.4375 L 14 3 L 12 3 Z M 12 0.4375 " clip-rule="nonzero"/></clipPath><clipPath id="651ec44573"><path d="M 25 0.4375 L 28 0.4375 L 28 3 L 25 3 Z M 25 0.4375 " clip-rule="nonzero"/></clipPath><clipPath id="891632c9fc"><path d="M 31 0.4375 L 33 0.4375 L 33 3 L 31 3 Z M 31 0.4375 " clip-rule="nonzero"/></clipPath><clipPath id="d20b4d49ef"><rect x="0" width="37" y="0" height="4"/></clipPath></defs><g clip-path="url(#9f5f1f8d48)"><path fill="#000000" d="M 35.664062 0.0078125 L 63.789062 0.0078125 C 64.039062 0.0078125 64.246094 0.210938 64.246094 0.464844 C 64.246094 0.714844 64.039062 0.917969 63.789062 0.917969 L 35.664062 0.917969 C 35.410156 0.917969 35.207031 0.714844 35.207031 0.464844 C 35.207031 0.210938 35.410156 0.0078125 35.664062 0.0078125 Z M 35.664062 0.0078125 " fill-opacity="1" fill-rule="nonzero"/></g><g clip-path="url(#fc433a7577)"><path fill="#000000" d="M 64.234375 28.578125 L 64.234375 0.453125 C 64.234375 0.199219 64.03125 -0.00390625 63.777344 -0.00390625 C 63.527344 -0.00390625 63.320312 0.199219 63.320312 0.453125 L 63.320312 28.578125 C 63.320312 28.832031 63.527344 29.035156 63.777344 29.035156 C 64.03125 29.035156 64.234375 28.832031 64.234375 28.578125 Z M 64.234375 28.578125 " fill-opacity="1" fill-rule="nonzero"/></g><g transform="matrix(1, 0, 0, 1, 13, 3)"><g clip-path="url(#d9dc904482)"><g fill="#000000" fill-opacity="1"><g transform="translate(0.504384, 12.709053)"><g><path d="M 0.796875 0 L 0.796875 -11.359375 L 3.125 -11.359375 L 3.125 -6.0625 L 3.15625 -6.0625 C 3.757812 -6.664062 4.40625 -6.96875 5.09375 -6.96875 C 5.425781 -6.96875 5.757812 -6.921875 6.09375 -6.828125 C 6.425781 -6.742188 6.742188 -6.609375 7.046875 -6.421875 C 7.347656 -6.242188 7.59375 -5.984375 7.78125 -5.640625 C 7.96875 -5.304688 8.0625 -4.914062 8.0625 -4.46875 L 8.0625 0 L 5.734375 0 L 5.734375 -3.828125 C 5.734375 -4.179688 5.617188 -4.488281 5.390625 -4.75 C 5.171875 -5.019531 4.878906 -5.15625 4.515625 -5.15625 C 4.160156 -5.15625 3.835938 -5.015625 3.546875 -4.734375 C 3.265625 -4.460938 3.125 -4.160156 3.125 -3.828125 L 3.125 0 Z M 0.796875 0 "/></g></g></g><g fill="#000000" fill-opacity="1"><g transform="translate(8.06499, 12.709053)"><g><path d="M 1.25 -0.828125 C 0.613281 -1.523438 0.296875 -2.375 0.296875 -3.375 C 0.296875 -4.382812 0.613281 -5.234375 1.25 -5.921875 C 1.882812 -6.617188 2.691406 -6.96875 3.671875 -6.96875 C 4.566406 -6.96875 5.304688 -6.6875 5.890625 -6.125 L 5.890625 -6.765625 L 8.21875 -6.765625 L 8.21875 0 L 5.921875 0 L 5.921875 -0.765625 L 5.890625 -0.765625 C 5.304688 -0.117188 4.566406 0.203125 3.671875 0.203125 C 2.691406 0.203125 1.882812 -0.140625 1.25 -0.828125 Z M 3.234375 -4.53125 C 2.929688 -4.226562 2.78125 -3.84375 2.78125 -3.375 C 2.78125 -2.914062 2.925781 -2.535156 3.21875 -2.234375 C 3.507812 -1.941406 3.894531 -1.796875 4.375 -1.796875 C 4.832031 -1.796875 5.207031 -1.941406 5.5 -2.234375 C 5.789062 -2.535156 5.9375 -2.914062 5.9375 -3.375 C 5.9375 -3.84375 5.785156 -4.226562 5.484375 -4.53125 C 5.179688 -4.832031 4.8125 -4.984375 4.375 -4.984375 C 3.925781 -4.984375 3.546875 -4.832031 3.234375 -4.53125 Z M 3.234375 -4.53125 "/></g></g></g><g fill="#000000" fill-opacity="1"><g transform="translate(15.915897, 12.709053)"><g><path d="M 1.015625 -10.546875 C 1.285156 -10.816406 1.609375 -10.953125 1.984375 -10.953125 C 2.367188 -10.953125 2.695312 -10.816406 2.96875 -10.546875 C 3.238281 -10.273438 3.375 -9.945312 3.375 -9.5625 C 3.375 -9.1875 3.238281 -8.863281 2.96875 -8.59375 C 2.695312 -8.320312 2.367188 -8.1875 1.984375 -8.1875 C 1.609375 -8.1875 1.285156 -8.320312 1.015625 -8.59375 C 0.742188 -8.863281 0.609375 -9.1875 0.609375 -9.5625 C 0.609375 -9.945312 0.742188 -10.273438 1.015625 -10.546875 Z M 0.796875 -6.765625 L 0.796875 0 L 3.125 0 L 3.125 -6.765625 Z M 0.796875 -6.765625 "/></g></g></g><g fill="#000000" fill-opacity="1"><g transform="translate(18.739246, 12.709053)"><g><path d="M 0.796875 0 L 0.796875 -6.765625 L 3.125 -6.765625 L 3.125 -5.796875 L 3.15625 -5.796875 C 3.175781 -5.828125 3.203125 -5.867188 3.234375 -5.921875 C 3.273438 -5.972656 3.363281 -6.066406 3.5 -6.203125 C 3.632812 -6.335938 3.773438 -6.457031 3.921875 -6.5625 C 4.066406 -6.664062 4.257812 -6.757812 4.5 -6.84375 C 4.738281 -6.925781 4.984375 -6.96875 5.234375 -6.96875 C 5.484375 -6.96875 5.726562 -6.929688 5.96875 -6.859375 C 6.21875 -6.796875 6.398438 -6.726562 6.515625 -6.65625 L 6.703125 -6.546875 L 5.734375 -4.5625 C 5.441406 -4.8125 5.035156 -4.9375 4.515625 -4.9375 C 4.234375 -4.9375 3.988281 -4.875 3.78125 -4.75 C 3.582031 -4.625 3.441406 -4.472656 3.359375 -4.296875 C 3.273438 -4.128906 3.210938 -3.984375 3.171875 -3.859375 C 3.140625 -3.734375 3.125 -3.632812 3.125 -3.5625 L 3.125 0 Z M 0.796875 0 "/></g></g></g><g fill="#000000" fill-opacity="1"><g transform="translate(24.148951, 12.709053)"><g/></g></g><g fill="#000000" fill-opacity="1"><g transform="translate(26.589629, 12.709053)"><g><path d="M 7.765625 -5.921875 C 8.398438 -5.234375 8.71875 -4.390625 8.71875 -3.390625 C 8.71875 -2.390625 8.398438 -1.539062 7.765625 -0.84375 C 7.128906 -0.144531 6.320312 0.203125 5.34375 0.203125 C 4.445312 0.203125 3.707031 -0.078125 3.125 -0.640625 L 3.125 3.4375 L 0.796875 3.4375 L 0.796875 -6.765625 L 3.109375 -6.765625 L 3.109375 -6 L 3.125 -6 C 3.707031 -6.644531 4.445312 -6.96875 5.34375 -6.96875 C 6.320312 -6.96875 7.128906 -6.617188 7.765625 -5.921875 Z M 5.78125 -2.234375 C 6.082031 -2.535156 6.234375 -2.921875 6.234375 -3.390625 C 6.234375 -3.859375 6.085938 -4.238281 5.796875 -4.53125 C 5.503906 -4.832031 5.117188 -4.984375 4.640625 -4.984375 C 4.191406 -4.984375 3.816406 -4.832031 3.515625 -4.53125 C 3.222656 -4.226562 3.078125 -3.847656 3.078125 -3.390625 C 3.078125 -2.921875 3.226562 -2.535156 3.53125 -2.234375 C 3.832031 -1.941406 4.203125 -1.796875 4.640625 -1.796875 C 5.097656 -1.796875 5.476562 -1.941406 5.78125 -2.234375 Z M 5.78125 -2.234375 "/></g></g></g><g fill="#000000" fill-opacity="1"><g transform="translate(34.440536, 12.709053)"><g><path d="M 0.796875 0 L 0.796875 -6.765625 L 3.125 -6.765625 L 3.125 -5.796875 L 3.15625 -5.796875 C 3.175781 -5.828125 3.203125 -5.867188 3.234375 -5.921875 C 3.273438 -5.972656 3.363281 -6.066406 3.5 -6.203125 C 3.632812 -6.335938 3.773438 -6.457031 3.921875 -6.5625 C 4.066406 -6.664062 4.257812 -6.757812 4.5 -6.84375 C 4.738281 -6.925781 4.984375 -6.96875 5.234375 -6.96875 C 5.484375 -6.96875 5.726562 -6.929688 5.96875 -6.859375 C 6.21875 -6.796875 6.398438 -6.726562 6.515625 -6.65625 L 6.703125 -6.546875 L 5.734375 -4.5625 C 5.441406 -4.8125 5.035156 -4.9375 4.515625 -4.9375 C 4.234375 -4.9375 3.988281 -4.875 3.78125 -4.75 C 3.582031 -4.625 3.441406 -4.472656 3.359375 -4.296875 C 3.273438 -4.128906 3.210938 -3.984375 3.171875 -3.859375 C 3.140625 -3.734375 3.125 -3.632812 3.125 -3.5625 L 3.125 0 Z M 0.796875 0 "/></g></g></g><g fill="#000000" fill-opacity="1"><g transform="translate(39.77105, 12.709053)"><g><path d="M 1.421875 -0.796875 C 0.671875 -1.472656 0.296875 -2.332031 0.296875 -3.375 C 0.296875 -4.425781 0.6875 -5.285156 1.46875 -5.953125 C 2.257812 -6.628906 3.234375 -6.96875 4.390625 -6.96875 C 5.523438 -6.96875 6.476562 -6.628906 7.25 -5.953125 C 8.03125 -5.273438 8.421875 -4.414062 8.421875 -3.375 C 8.421875 -2.34375 8.039062 -1.488281 7.28125 -0.8125 C 6.519531 -0.132812 5.554688 0.203125 4.390625 0.203125 C 3.171875 0.203125 2.179688 -0.128906 1.421875 -0.796875 Z M 3.234375 -4.53125 C 2.929688 -4.226562 2.78125 -3.84375 2.78125 -3.375 C 2.78125 -2.914062 2.925781 -2.535156 3.21875 -2.234375 C 3.507812 -1.941406 3.894531 -1.796875 4.375 -1.796875 C 4.832031 -1.796875 5.207031 -1.941406 5.5 -2.234375 C 5.789062 -2.535156 5.9375 -2.914062 5.9375 -3.375 C 5.9375 -3.84375 5.785156 -4.226562 5.484375 -4.53125 C 5.179688 -4.832031 4.8125 -4.984375 4.375 -4.984375 C 3.925781 -4.984375 3.546875 -4.832031 3.234375 -4.53125 Z M 3.234375 -4.53125 "/></g></g></g></g></g><g clip-path="url(#7ebeab16da)"><path fill="#000000" d="M 39.335938 29.023438 L 11.210938 29.023438 C 10.960938 29.023438 10.753906 28.820312 10.753906 28.570312 C 10.753906 28.316406 10.960938 28.113281 11.210938 28.113281 L 39.335938 28.113281 C 39.589844 28.113281 39.792969 28.316406 39.792969 28.570312 C 39.792969 28.820312 39.589844 29.023438 39.335938 29.023438 Z M 39.335938 29.023438 " fill-opacity="1" fill-rule="nonzero"/></g><g clip-path="url(#79cae62856)"><path fill="#000000" d="M 10.765625 0.453125 L 10.765625 28.578125 C 10.765625 28.832031 10.96875 29.035156 11.222656 29.035156 C 11.472656 29.035156 11.679688 28.832031 11.679688 28.578125 L 11.679688 0.453125 C 11.679688 0.203125 11.472656 -0.00390625 11.222656 -0.00390625 C 10.96875 -0.00390625 10.765625 0.203125 10.765625 0.453125 Z M 10.765625 0.453125 " fill-opacity="1" fill-rule="nonzero"/></g><g transform="matrix(1, 0, 0, 1, 20, 20)"><g clip-path="url(#d20b4d49ef)"><g clip-path="url(#6e3419f9bc)"><g fill="#000000" fill-opacity="1"><g transform="translate(0.0266283, 2.797792)"><g><path d="M 0.21875 -0.140625 C 0.101562 -0.265625 0.046875 -0.414062 0.046875 -0.59375 C 0.046875 -0.78125 0.101562 -0.9375 0.21875 -1.0625 C 0.332031 -1.1875 0.476562 -1.25 0.65625 -1.25 C 0.8125 -1.25 0.941406 -1.195312 1.046875 -1.09375 L 1.046875 -1.203125 L 1.46875 -1.203125 L 1.46875 0 L 1.0625 0 L 1.0625 -0.140625 L 1.046875 -0.140625 C 0.941406 -0.0234375 0.8125 0.03125 0.65625 0.03125 C 0.476562 0.03125 0.332031 -0.0234375 0.21875 -0.140625 Z M 0.578125 -0.8125 C 0.523438 -0.757812 0.5 -0.691406 0.5 -0.609375 C 0.5 -0.523438 0.523438 -0.457031 0.578125 -0.40625 C 0.628906 -0.351562 0.695312 -0.328125 0.78125 -0.328125 C 0.863281 -0.328125 0.929688 -0.351562 0.984375 -0.40625 C 1.035156 -0.457031 1.0625 -0.523438 1.0625 -0.609375 C 1.0625 -0.691406 1.035156 -0.757812 0.984375 -0.8125 C 0.929688 -0.863281 0.863281 -0.890625 0.78125 -0.890625 C 0.695312 -0.890625 0.628906 -0.863281 0.578125 -0.8125 Z M 0.578125 -0.8125 "/></g></g></g></g><g clip-path="url(#1e66263c0e)"><g fill="#000000" fill-opacity="1"><g transform="translate(3.049126, 2.797792)"><g><path d="M 0.140625 0 L 0.140625 -2.03125 L 0.5625 -2.03125 L 0.5625 0 Z M 0.140625 0 "/></g></g></g></g><g clip-path="url(#01eb774298)"><g fill="#000000" fill-opacity="1"><g transform="translate(5.159435, 2.797792)"><g><path d="M 0.140625 0 L 0.140625 -2.03125 L 0.5625 -2.03125 L 0.5625 0 Z M 0.140625 0 "/></g></g></g></g><g fill="#000000" fill-opacity="1"><g transform="translate(7.269745, 2.797792)"><g/></g></g><g fill="#000000" fill-opacity="1"><g transform="translate(9.323336, 2.797792)"><g><path d="M 0.21875 -0.140625 C 0.101562 -0.265625 0.046875 -0.414062 0.046875 -0.59375 C 0.046875 -0.78125 0.101562 -0.9375 0.21875 -1.0625 C 0.332031 -1.1875 0.476562 -1.25 0.65625 -1.25 C 0.8125 -1.25 0.941406 -1.195312 1.046875 -1.09375 L 1.046875 -1.203125 L 1.46875 -1.203125 L 1.46875 0 L 1.0625 0 L 1.0625 -0.140625 L 1.046875 -0.140625 C 0.941406 -0.0234375 0.8125 0.03125 0.65625 0.03125 C 0.476562 0.03125 0.332031 -0.0234375 0.21875 -0.140625 Z M 0.578125 -0.8125 C 0.523438 -0.757812 0.5 -0.691406 0.5 -0.609375 C 0.5 -0.523438 0.523438 -0.457031 0.578125 -0.40625 C 0.628906 -0.351562 0.695312 -0.328125 0.78125 -0.328125 C 0.863281 -0.328125 0.929688 -0.351562 0.984375 -0.40625 C 1.035156 -0.457031 1.0625 -0.523438 1.0625 -0.609375 C 1.0625 -0.691406 1.035156 -0.757812 0.984375 -0.8125 C 0.929688 -0.863281 0.863281 -0.890625 0.78125 -0.890625 C 0.695312 -0.890625 0.628906 -0.863281 0.578125 -0.8125 Z M 0.578125 -0.8125 "/></g></g></g><g clip-path="url(#86ee5d7ba5)"><g fill="#000000" fill-opacity="1"><g transform="translate(12.345834, 2.797792)"><g><path d="M 1.390625 -1.0625 C 1.503906 -0.9375 1.5625 -0.78125 1.5625 -0.59375 C 1.5625 -0.414062 1.503906 -0.265625 1.390625 -0.140625 C 1.273438 -0.0234375 1.128906 0.03125 0.953125 0.03125 C 0.796875 0.03125 0.664062 -0.0234375 0.5625 -0.140625 L 0.546875 -0.140625 L 0.546875 0 L 0.140625 0 L 0.140625 -2.03125 L 0.5625 -2.03125 L 0.5625 -1.09375 C 0.664062 -1.195312 0.796875 -1.25 0.953125 -1.25 C 1.128906 -1.25 1.273438 -1.1875 1.390625 -1.0625 Z M 1.03125 -0.40625 C 1.082031 -0.457031 1.109375 -0.523438 1.109375 -0.609375 C 1.109375 -0.691406 1.082031 -0.757812 1.03125 -0.8125 C 0.976562 -0.863281 0.910156 -0.890625 0.828125 -0.890625 C 0.753906 -0.890625 0.6875 -0.863281 0.625 -0.8125 C 0.570312 -0.757812 0.546875 -0.691406 0.546875 -0.609375 C 0.546875 -0.523438 0.570312 -0.457031 0.625 -0.40625 C 0.675781 -0.351562 0.742188 -0.328125 0.828125 -0.328125 C 0.910156 -0.328125 0.976562 -0.351562 1.03125 -0.40625 Z M 1.03125 -0.40625 "/></g></g></g></g><g fill="#000000" fill-opacity="1"><g transform="translate(15.368331, 2.797792)"><g><path d="M 0.25 -0.140625 C 0.113281 -0.265625 0.046875 -0.421875 0.046875 -0.609375 C 0.046875 -0.796875 0.113281 -0.945312 0.25 -1.0625 C 0.394531 -1.1875 0.570312 -1.25 0.78125 -1.25 C 0.988281 -1.25 1.160156 -1.1875 1.296875 -1.0625 C 1.429688 -0.9375 1.5 -0.78125 1.5 -0.59375 C 1.5 -0.414062 1.429688 -0.265625 1.296875 -0.140625 C 1.160156 -0.0234375 0.988281 0.03125 0.78125 0.03125 C 0.5625 0.03125 0.382812 -0.0234375 0.25 -0.140625 Z M 0.578125 -0.8125 C 0.523438 -0.757812 0.5 -0.691406 0.5 -0.609375 C 0.5 -0.523438 0.523438 -0.457031 0.578125 -0.40625 C 0.628906 -0.351562 0.695312 -0.328125 0.78125 -0.328125 C 0.863281 -0.328125 0.929688 -0.351562 0.984375 -0.40625 C 1.035156 -0.457031 1.0625 -0.523438 1.0625 -0.609375 C 1.0625 -0.691406 1.035156 -0.757812 0.984375 -0.8125 C 0.929688 -0.863281 0.863281 -0.890625 0.78125 -0.890625 C 0.695312 -0.890625 0.628906 -0.863281 0.578125 -0.8125 Z M 0.578125 -0.8125 "/></g></g></g><g fill="#000000" fill-opacity="1"><g transform="translate(18.338838, 2.797792)"><g><path d="M 0.53125 -1.203125 L 0.53125 -0.640625 C 0.53125 -0.515625 0.546875 -0.425781 0.578125 -0.375 C 0.617188 -0.320312 0.679688 -0.296875 0.765625 -0.296875 C 0.859375 -0.296875 0.921875 -0.320312 0.953125 -0.375 C 0.992188 -0.425781 1.015625 -0.515625 1.015625 -0.640625 L 1.015625 -1.203125 L 1.4375 -1.203125 L 1.4375 -0.53125 C 1.4375 -0.332031 1.378906 -0.1875 1.265625 -0.09375 C 1.160156 -0.0078125 0.992188 0.03125 0.765625 0.03125 C 0.546875 0.03125 0.382812 -0.0078125 0.28125 -0.09375 C 0.175781 -0.1875 0.125 -0.332031 0.125 -0.53125 L 0.125 -1.203125 Z M 0.53125 -1.203125 "/></g></g></g><g fill="#000000" fill-opacity="1"><g transform="translate(21.285714, 2.797792)"><g><path d="M 0.21875 -1.203125 L 0.21875 -1.65625 L 0.625 -1.65625 L 0.625 -1.203125 L 0.890625 -1.203125 L 0.890625 -0.890625 L 0.625 -0.890625 L 0.625 -0.5 C 0.625 -0.394531 0.65625 -0.34375 0.71875 -0.34375 C 0.738281 -0.34375 0.753906 -0.34375 0.765625 -0.34375 C 0.785156 -0.351562 0.800781 -0.363281 0.8125 -0.375 L 0.828125 -0.375 L 0.9375 -0.046875 C 0.84375 0.00390625 0.738281 0.03125 0.625 0.03125 C 0.539062 0.03125 0.472656 0.0195312 0.421875 0 C 0.367188 -0.03125 0.328125 -0.0664062 0.296875 -0.109375 C 0.265625 -0.160156 0.242188 -0.210938 0.234375 -0.265625 C 0.222656 -0.316406 0.21875 -0.367188 0.21875 -0.421875 L 0.21875 -0.890625 L 0.03125 -0.890625 L 0.03125 -1.203125 Z M 0.21875 -1.203125 "/></g></g></g><g fill="#000000" fill-opacity="1"><g transform="translate(23.627615, 2.797792)"><g/></g></g><g clip-path="url(#651ec44573)"><g fill="#000000" fill-opacity="1"><g transform="translate(25.681207, 2.797792)"><g><path d="M 0.140625 0 L 0.140625 -2.03125 L 0.5625 -2.03125 L 0.5625 -1.078125 C 0.675781 -1.191406 0.789062 -1.25 0.90625 -1.25 C 0.96875 -1.25 1.023438 -1.238281 1.078125 -1.21875 C 1.140625 -1.207031 1.195312 -1.179688 1.25 -1.140625 C 1.3125 -1.109375 1.359375 -1.0625 1.390625 -1 C 1.421875 -0.945312 1.4375 -0.878906 1.4375 -0.796875 L 1.4375 0 L 1.03125 0 L 1.03125 -0.6875 C 1.03125 -0.75 1.007812 -0.800781 0.96875 -0.84375 C 0.925781 -0.894531 0.875 -0.921875 0.8125 -0.921875 C 0.75 -0.921875 0.691406 -0.894531 0.640625 -0.84375 C 0.585938 -0.800781 0.5625 -0.75 0.5625 -0.6875 L 0.5625 0 Z M 0.140625 0 "/></g></g></g></g><g fill="#000000" fill-opacity="1"><g transform="translate(28.651713, 2.797792)"><g><path d="M 0.21875 -0.140625 C 0.101562 -0.265625 0.046875 -0.414062 0.046875 -0.59375 C 0.046875 -0.78125 0.101562 -0.9375 0.21875 -1.0625 C 0.332031 -1.1875 0.476562 -1.25 0.65625 -1.25 C 0.8125 -1.25 0.941406 -1.195312 1.046875 -1.09375 L 1.046875 -1.203125 L 1.46875 -1.203125 L 1.46875 0 L 1.0625 0 L 1.0625 -0.140625 L 1.046875 -0.140625 C 0.941406 -0.0234375 0.8125 0.03125 0.65625 0.03125 C 0.476562 0.03125 0.332031 -0.0234375 0.21875 -0.140625 Z M 0.578125 -0.8125 C 0.523438 -0.757812 0.5 -0.691406 0.5 -0.609375 C 0.5 -0.523438 0.523438 -0.457031 0.578125 -0.40625 C 0.628906 -0.351562 0.695312 -0.328125 0.78125 -0.328125 C 0.863281 -0.328125 0.929688 -0.351562 0.984375 -0.40625 C 1.035156 -0.457031 1.0625 -0.523438 1.0625 -0.609375 C 1.0625 -0.691406 1.035156 -0.757812 0.984375 -0.8125 C 0.929688 -0.863281 0.863281 -0.890625 0.78125 -0.890625 C 0.695312 -0.890625 0.628906 -0.863281 0.578125 -0.8125 Z M 0.578125 -0.8125 "/></g></g></g><g clip-path="url(#891632c9fc)"><g fill="#000000" fill-opacity="1"><g transform="translate(31.674211, 2.797792)"><g><path d="M 0.171875 -1.875 C 0.222656 -1.925781 0.28125 -1.953125 0.34375 -1.953125 C 0.414062 -1.953125 0.476562 -1.925781 0.53125 -1.875 C 0.582031 -1.832031 0.609375 -1.773438 0.609375 -1.703125 C 0.609375 -1.640625 0.582031 -1.582031 0.53125 -1.53125 C 0.476562 -1.488281 0.414062 -1.46875 0.34375 -1.46875 C 0.28125 -1.46875 0.222656 -1.488281 0.171875 -1.53125 C 0.128906 -1.582031 0.109375 -1.640625 0.109375 -1.703125 C 0.109375 -1.773438 0.128906 -1.832031 0.171875 -1.875 Z M 0.140625 -1.203125 L 0.140625 0 L 0.5625 0 L 0.5625 -1.203125 Z M 0.140625 -1.203125 "/></g></g></g></g><g fill="#000000" fill-opacity="1"><g transform="translate(33.796336, 2.797792)"><g><path d="M 0.140625 0 L 0.140625 -1.203125 L 0.5625 -1.203125 L 0.5625 -1.03125 C 0.5625 -1.039062 0.566406 -1.050781 0.578125 -1.0625 C 0.585938 -1.070312 0.601562 -1.085938 0.625 -1.109375 C 0.644531 -1.128906 0.664062 -1.148438 0.6875 -1.171875 C 0.71875 -1.191406 0.753906 -1.207031 0.796875 -1.21875 C 0.847656 -1.238281 0.894531 -1.25 0.9375 -1.25 C 0.976562 -1.25 1.019531 -1.238281 1.0625 -1.21875 C 1.113281 -1.207031 1.148438 -1.195312 1.171875 -1.1875 L 1.203125 -1.171875 L 1.03125 -0.8125 C 0.976562 -0.851562 0.90625 -0.875 0.8125 -0.875 C 0.757812 -0.875 0.710938 -0.863281 0.671875 -0.84375 C 0.640625 -0.820312 0.613281 -0.796875 0.59375 -0.765625 C 0.582031 -0.734375 0.570312 -0.707031 0.5625 -0.6875 C 0.5625 -0.664062 0.5625 -0.648438 0.5625 -0.640625 L 0.5625 0 Z M 0.140625 0 "/></g></g></g></g></g></svg>