<svg xmlns="http://www.w3.org/2000/svg" xmlns:xlink="http://www.w3.org/1999/xlink" width="250" zoomAndPan="magnify" viewBox="0 0 187.5 112.499997" height="150" preserveAspectRatio="xMidYMid meet" version="1.0"><defs><g/><clipPath id="a7c9baa588"><path d="M 86.035156 11.199219 L 175.636719 11.199219 L 175.636719 15 L 86.035156 15 Z M 86.035156 11.199219 " clip-rule="nonzero"/></clipPath><clipPath id="5084dd5c0e"><path d="M 172 11.199219 L 175.636719 11.199219 L 175.636719 100.800781 L 172 100.800781 Z M 172 11.199219 " clip-rule="nonzero"/></clipPath><clipPath id="6afcf5fe51"><rect x="0" width="143" y="0" height="44"/></clipPath><clipPath id="01b0939a1c"><path d="M 10.621094 97 L 100.222656 97 L 100.222656 100.800781 L 10.621094 100.800781 Z M 10.621094 97 " clip-rule="nonzero"/></clipPath><clipPath id="81a0d51feb"><path d="M 10.621094 11.199219 L 14 11.199219 L 14 100.800781 L 10.621094 100.800781 Z M 10.621094 11.199219 " clip-rule="nonzero"/></clipPath></defs><g clip-path="url(#a7c9baa588)"><path fill="#000000" d="M 87.457031 11.222656 L 174.261719 11.222656 C 175.039062 11.222656 175.667969 11.851562 175.667969 12.628906 C 175.667969 13.40625 175.039062 14.039062 174.261719 14.039062 L 87.457031 14.039062 C 86.679688 14.039062 86.050781 13.40625 86.050781 12.628906 C 86.050781 11.851562 86.679688 11.222656 87.457031 11.222656 Z M 87.457031 11.222656 " fill-opacity="1" fill-rule="nonzero"/></g><g clip-path="url(#5084dd5c0e)"><path fill="#000000" d="M 175.636719 99.402344 L 175.636719 12.597656 C 175.636719 11.820312 175.007812 11.191406 174.230469 11.191406 C 173.453125 11.191406 172.820312 11.820312 172.820312 12.597656 L 172.820312 99.402344 C 172.820312 100.179688 173.453125 100.808594 174.230469 100.808594 C 175.007812 100.808594 175.636719 100.179688 175.636719 99.402344 Z M 175.636719 99.402344 " fill-opacity="1" fill-rule="nonzero"/></g><g transform="matrix(1, 0, 0, 1, 23, 34)"><g clip-path="url(#6afcf5fe51)"><g fill="#000000" fill-opacity="1"><g transform="translate(0.814231, 32.101642)"><g><path d="M 2.109375 0 L 2.109375 -26.21875 L 8.296875 -26.21875 L 8.296875 -14.046875 C 8.710938 -14.609375 9.242188 -15.1875 9.890625 -15.78125 C 10.546875 -16.375 11.285156 -16.878906 12.109375 -17.296875 C 12.941406 -17.722656 13.828125 -17.9375 14.765625 -17.9375 C 16.234375 -17.9375 17.410156 -17.554688 18.296875 -16.796875 C 19.179688 -16.035156 19.625 -15.175781 19.625 -14.21875 L 19.625 0 L 13.453125 0 L 13.453125 -14.34375 C 13.453125 -15.5 13.125 -16.160156 12.46875 -16.328125 C 11.820312 -16.492188 11.109375 -16.238281 10.328125 -15.5625 C 10.148438 -15.425781 9.828125 -15.109375 9.359375 -14.609375 C 8.898438 -14.117188 8.546875 -13.691406 8.296875 -13.328125 L 8.296875 0 Z M 2.109375 0 "/></g></g></g><g fill="#000000" fill-opacity="1"><g transform="translate(22.551345, 32.101642)"><g><path d="M 6.140625 0.421875 C 4.671875 0.421875 3.457031 0.0234375 2.5 -0.765625 C 1.539062 -1.554688 1.0625 -2.515625 1.0625 -3.640625 C 1.0625 -4.734375 1.332031 -5.613281 1.875 -6.28125 C 2.425781 -6.945312 3.1875 -7.503906 4.15625 -7.953125 C 5.132812 -8.398438 6.265625 -8.859375 7.546875 -9.328125 C 8.828125 -9.796875 10.203125 -10.378906 11.671875 -11.078125 L 11.671875 -14.125 C 11.671875 -15.113281 11.398438 -15.867188 10.859375 -16.390625 C 10.328125 -16.910156 9.664062 -17.171875 8.875 -17.171875 C 8.113281 -17.171875 7.441406 -16.972656 6.859375 -16.578125 C 6.285156 -16.179688 6 -15.492188 6 -14.515625 C 6 -13.859375 6.113281 -13.359375 6.34375 -13.015625 C 6.570312 -12.679688 6.796875 -12.457031 7.015625 -12.34375 C 7.242188 -12.238281 7.359375 -12.1875 7.359375 -12.1875 C 7.359375 -11.789062 7.128906 -11.351562 6.671875 -10.875 C 6.222656 -10.394531 5.660156 -10.125 4.984375 -10.0625 C 3.890625 -9.945312 3.085938 -10.210938 2.578125 -10.859375 C 2.066406 -11.515625 1.8125 -12.238281 1.8125 -13.03125 C 1.8125 -13.90625 2.128906 -14.6875 2.765625 -15.375 C 3.398438 -16.0625 4.257812 -16.609375 5.34375 -17.015625 C 6.4375 -17.429688 7.628906 -17.640625 8.921875 -17.640625 C 11.628906 -17.640625 13.828125 -16.945312 15.515625 -15.5625 C 16.253906 -14.96875 16.828125 -14.257812 17.234375 -13.4375 C 17.640625 -12.625 17.84375 -11.679688 17.84375 -10.609375 L 17.84375 -3.59375 C 17.84375 -3.226562 17.882812 -2.894531 17.96875 -2.59375 C 18.0625 -2.300781 18.25 -2.15625 18.53125 -2.15625 C 18.664062 -2.15625 18.789062 -2.238281 18.90625 -2.40625 C 19.019531 -2.582031 19.09375 -2.976562 19.125 -3.59375 L 19.453125 -3.546875 C 19.453125 -2.453125 19.0625 -1.515625 18.28125 -0.734375 C 17.507812 0.0351562 16.578125 0.421875 15.484375 0.421875 C 14.492188 0.421875 13.644531 0.101562 12.9375 -0.53125 C 12.238281 -1.164062 11.832031 -1.960938 11.71875 -2.921875 C 11.40625 -2.378906 10.953125 -1.851562 10.359375 -1.34375 C 9.765625 -0.84375 9.101562 -0.421875 8.375 -0.078125 C 7.644531 0.253906 6.898438 0.421875 6.140625 0.421875 Z M 8.96875 -1.984375 C 10.039062 -1.984375 10.941406 -2.4375 11.671875 -3.34375 L 11.671875 -10.703125 C 10.203125 -9.859375 9.046875 -8.988281 8.203125 -8.09375 C 7.359375 -7.207031 6.9375 -6.019531 6.9375 -4.53125 C 6.9375 -3.875 7.125 -3.285156 7.5 -2.765625 C 7.882812 -2.242188 8.375 -1.984375 8.96875 -1.984375 Z M 8.96875 -1.984375 "/></g></g></g><g fill="#000000" fill-opacity="1"><g transform="translate(43.062046, 32.101642)"><g><path d="M 5.40625 -19.578125 C 4.507812 -19.578125 3.734375 -19.898438 3.078125 -20.546875 C 2.429688 -21.203125 2.109375 -21.992188 2.109375 -22.921875 C 2.109375 -23.828125 2.429688 -24.601562 3.078125 -25.25 C 3.734375 -25.894531 4.507812 -26.21875 5.40625 -26.21875 C 6.34375 -26.21875 7.132812 -25.894531 7.78125 -25.25 C 8.425781 -24.601562 8.75 -23.828125 8.75 -22.921875 C 8.75 -21.992188 8.425781 -21.203125 7.78125 -20.546875 C 7.132812 -19.898438 6.34375 -19.578125 5.40625 -19.578125 Z M 2.328125 0 L 2.328125 -17.25 L 8.5 -17.21875 L 8.5 0 Z M 2.328125 0 "/></g></g></g><g fill="#000000" fill-opacity="1"><g transform="translate(53.930603, 32.101642)"><g><path d="M 13.15625 -17.640625 C 14 -17.640625 14.816406 -17.484375 15.609375 -17.171875 C 16.398438 -16.859375 17.039062 -16.347656 17.53125 -15.640625 C 18.019531 -14.941406 18.265625 -14.015625 18.265625 -12.859375 C 18.265625 -12.265625 18.160156 -11.671875 17.953125 -11.078125 C 17.742188 -10.484375 17.390625 -9.988281 16.890625 -9.59375 C 16.398438 -9.207031 15.734375 -9.015625 14.890625 -9.015625 C 14.046875 -9.015625 13.382812 -9.296875 12.90625 -9.859375 C 12.425781 -10.421875 12.15625 -10.96875 12.09375 -11.5 C 12.09375 -11.5 12.273438 -11.617188 12.640625 -11.859375 C 13.015625 -12.097656 13.375 -12.453125 13.71875 -12.921875 C 14.070312 -13.390625 14.25 -13.960938 14.25 -14.640625 C 14.25 -15.285156 14.054688 -15.835938 13.671875 -16.296875 C 13.296875 -16.765625 12.800781 -17 12.1875 -17 C 11.394531 -17 10.664062 -16.726562 10 -16.1875 C 9.34375 -15.65625 8.773438 -14.925781 8.296875 -14 L 8.296875 0 L 2.109375 0 L 2.109375 -17.25 L 8.296875 -17.25 L 8.296875 -14.84375 C 8.828125 -15.75 9.488281 -16.441406 10.28125 -16.921875 C 11.070312 -17.398438 12.03125 -17.640625 13.15625 -17.640625 Z M 13.15625 -17.640625 "/></g></g></g><g fill="#000000" fill-opacity="1"><g transform="translate(72.83428, 32.101642)"><g/></g></g><g fill="#000000" fill-opacity="1"><g transform="translate(81.419176, 32.101642)"><g><path d="M 2.109375 8.96875 L 2.109375 -17.25 L 8.296875 -17.25 L 8.296875 -15.953125 C 8.910156 -16.597656 9.59375 -17.046875 10.34375 -17.296875 C 11.09375 -17.554688 11.890625 -17.6875 12.734375 -17.6875 C 14.054688 -17.6875 15.253906 -17.296875 16.328125 -16.515625 C 17.398438 -15.742188 18.257812 -14.691406 18.90625 -13.359375 C 19.550781 -12.035156 19.875 -10.53125 19.875 -8.84375 C 19.875 -7.144531 19.550781 -5.601562 18.90625 -4.21875 C 18.257812 -2.84375 17.398438 -1.738281 16.328125 -0.90625 C 15.253906 -0.0703125 14.054688 0.34375 12.734375 0.34375 C 11.890625 0.34375 11.09375 0.160156 10.34375 -0.203125 C 9.59375 -0.578125 8.910156 -1.070312 8.296875 -1.6875 L 8.296875 8.96875 Z M 10.75 -0.796875 C 11.476562 -0.796875 12.050781 -1.148438 12.46875 -1.859375 C 12.894531 -2.566406 13.195312 -3.523438 13.375 -4.734375 C 13.5625 -5.953125 13.65625 -7.320312 13.65625 -8.84375 C 13.65625 -10.363281 13.554688 -11.722656 13.359375 -12.921875 C 13.160156 -14.117188 12.84375 -15.066406 12.40625 -15.765625 C 11.976562 -16.472656 11.425781 -16.828125 10.75 -16.828125 C 10.238281 -16.828125 9.773438 -16.632812 9.359375 -16.25 C 8.953125 -15.875 8.597656 -15.363281 8.296875 -14.71875 L 8.296875 -2.921875 C 8.597656 -2.273438 8.953125 -1.757812 9.359375 -1.375 C 9.773438 -0.988281 10.238281 -0.796875 10.75 -0.796875 Z M 10.75 -0.796875 "/></g></g><g transform="translate(102.35278, 32.101642)"><g><path d="M 13.15625 -17.640625 C 14 -17.640625 14.816406 -17.484375 15.609375 -17.171875 C 16.398438 -16.859375 17.039062 -16.347656 17.53125 -15.640625 C 18.019531 -14.941406 18.265625 -14.015625 18.265625 -12.859375 C 18.265625 -12.265625 18.160156 -11.671875 17.953125 -11.078125 C 17.742188 -10.484375 17.390625 -9.988281 16.890625 -9.59375 C 16.398438 -9.207031 15.734375 -9.015625 14.890625 -9.015625 C 14.046875 -9.015625 13.382812 -9.296875 12.90625 -9.859375 C 12.425781 -10.421875 12.15625 -10.96875 12.09375 -11.5 C 12.09375 -11.5 12.273438 -11.617188 12.640625 -11.859375 C 13.015625 -12.097656 13.375 -12.453125 13.71875 -12.921875 C 14.070312 -13.390625 14.25 -13.960938 14.25 -14.640625 C 14.25 -15.285156 14.054688 -15.835938 13.671875 -16.296875 C 13.296875 -16.765625 12.800781 -17 12.1875 -17 C 11.394531 -17 10.664062 -16.726562 10 -16.1875 C 9.34375 -15.65625 8.773438 -14.925781 8.296875 -14 L 8.296875 0 L 2.109375 0 L 2.109375 -17.25 L 8.296875 -17.25 L 8.296875 -14.84375 C 8.828125 -15.75 9.488281 -16.441406 10.28125 -16.921875 C 11.070312 -17.398438 12.03125 -17.640625 13.15625 -17.640625 Z M 13.15625 -17.640625 "/></g></g></g><g fill="#000000" fill-opacity="1"><g transform="translate(121.256446, 32.101642)"><g><path d="M 10.40625 0.421875 C 8.6875 0.421875 7.117188 0.0195312 5.703125 -0.78125 C 4.296875 -1.582031 3.171875 -2.675781 2.328125 -4.0625 C 1.484375 -5.445312 1.0625 -6.96875 1.0625 -8.625 C 1.0625 -10.289062 1.484375 -11.804688 2.328125 -13.171875 C 3.171875 -14.546875 4.296875 -15.632812 5.703125 -16.4375 C 7.117188 -17.238281 8.6875 -17.640625 10.40625 -17.640625 C 12.125 -17.640625 13.6875 -17.238281 15.09375 -16.4375 C 16.507812 -15.632812 17.640625 -14.546875 18.484375 -13.171875 C 19.328125 -11.804688 19.75 -10.289062 19.75 -8.625 C 19.75 -6.96875 19.328125 -5.445312 18.484375 -4.0625 C 17.640625 -2.675781 16.507812 -1.582031 15.09375 -0.78125 C 13.6875 0.0195312 12.125 0.421875 10.40625 0.421875 Z M 10.40625 0 C 11.195312 0 11.820312 -0.378906 12.28125 -1.140625 C 12.75 -1.898438 13.082031 -2.925781 13.28125 -4.21875 C 13.476562 -5.519531 13.578125 -6.988281 13.578125 -8.625 C 13.578125 -10.257812 13.460938 -11.722656 13.234375 -13.015625 C 13.015625 -14.316406 12.671875 -15.347656 12.203125 -16.109375 C 11.734375 -16.867188 11.132812 -17.25 10.40625 -17.25 C 9.644531 -17.25 9.03125 -16.867188 8.5625 -16.109375 C 8.101562 -15.347656 7.765625 -14.316406 7.546875 -13.015625 C 7.335938 -11.722656 7.234375 -10.257812 7.234375 -8.625 C 7.234375 -6.988281 7.335938 -5.519531 7.546875 -4.21875 C 7.765625 -2.925781 8.101562 -1.898438 8.5625 -1.140625 C 9.03125 -0.378906 9.644531 0 10.40625 0 Z M 10.40625 0 "/></g></g></g></g></g><g clip-path="url(#01b0939a1c)"><path fill="#000000" d="M 98.796875 100.78125 L 11.996094 100.78125 C 11.21875 100.78125 10.585938 100.148438 10.585938 99.371094 C 10.585938 98.59375 11.21875 97.964844 11.996094 97.964844 L 98.796875 97.964844 C 99.574219 97.964844 100.207031 98.59375 100.207031 99.371094 C 100.207031 100.148438 99.574219 100.78125 98.796875 100.78125 Z M 98.796875 100.78125 " fill-opacity="1" fill-rule="nonzero"/></g><g clip-path="url(#81a0d51feb)"><path fill="#000000" d="M 10.621094 12.601562 L 10.621094 99.402344 C 10.621094 100.183594 11.25 100.8125 12.027344 100.8125 C 12.804688 100.8125 13.433594 100.183594 13.433594 99.402344 L 13.433594 99.40625 L 13.433594 12.601562 C 13.433594 11.824219 12.804688 11.195312 12.027344 11.195312 C 11.25 11.195312 10.621094 11.824219 10.621094 12.601562 Z M 10.621094 12.601562 " fill-opacity="1" fill-rule="nonzero"/></g></svg>